<svg width="30" height="30" viewBox="0 0 30 30" fill="none" xmlns="http://www.w3.org/2000/svg">
<path d="M22.5 22.5H8.83333C8.36662 22.5 8.13327 22.5 7.95501 22.4092C7.79821 22.3293 7.67072 22.2018 7.59083 22.045C7.5 21.8667 7.5 21.6334 7.5 21.1667V7.5M22.5 10.8333L17.9714 15.3619C17.8064 15.5269 17.7239 15.6094 17.6288 15.6404C17.5451 15.6675 17.4549 15.6675 17.3712 15.6404C17.2761 15.6094 17.1936 15.5269 17.0286 15.3619L15.4714 13.8047C15.3064 13.6397 15.2239 13.5572 15.1288 13.5263C15.0451 13.4991 14.9549 13.4991 14.8712 13.5263C14.7761 13.5572 14.6936 13.6397 14.5286 13.8047L10.8333 17.5M22.5 10.8333H19.1667M22.5 10.8333V14.1667" stroke="#616C77" stroke-width="1.5" stroke-linecap="round" stroke-linejoin="round"/>
</svg>
