<svg width="22" height="22" viewBox="0 0 22 22" fill="none" xmlns="http://www.w3.org/2000/svg">
<path d="M20.8253 9.14221H12.0923C11.9071 9.14221 11.7294 9.21577 11.5984 9.34673C11.4674 9.4777 11.3938 9.65532 11.3938 9.84052V12.6293C11.3938 12.8146 11.4674 12.9922 11.5984 13.1231C11.7294 13.2541 11.9071 13.3277 12.0923 13.3277H17.0106C16.4726 14.7204 15.4757 15.8882 14.1844 16.6382L16.2817 20.2672C17.9101 19.352 19.2646 18.019 20.2056 16.4058C21.1466 14.7925 21.6398 12.9575 21.6345 11.09C21.639 10.6303 21.5986 10.1712 21.514 9.71924C21.485 9.55766 21.4001 9.41139 21.2743 9.30594C21.1484 9.20049 20.9896 9.14255 20.8253 9.14221Z" fill="#167EE6"/>
<path d="M10.9337 17.5113C9.7907 17.5102 8.6681 17.2084 7.67871 16.6362C6.68933 16.0641 5.86801 15.2416 5.29728 14.2516L1.66724 16.343C2.36874 17.5609 3.30354 18.6287 4.41816 19.4852C5.53278 20.3417 6.80536 20.9702 8.16313 21.3346C9.5209 21.6991 10.9372 21.7924 12.3311 21.6092C13.725 21.4261 15.069 20.97 16.2864 20.2671V20.2618L14.1891 16.6328C13.2007 17.2082 12.0774 17.5114 10.9337 17.5113Z" fill="#12B347"/>
<path d="M16.2817 20.2687V20.2633L14.1843 16.6344C13.1961 17.2104 12.0728 17.5142 10.929 17.5147V21.7064C12.8086 21.7061 14.655 21.2102 16.2817 20.2687Z" fill="#0F993E"/>
<path d="M4.41529 11.0114C4.4155 9.86794 4.71902 8.74499 5.29492 7.75704L1.66488 5.66565C0.722277 7.28979 0.22583 9.13413 0.22583 11.0118C0.22583 12.8895 0.722277 14.7339 1.66488 16.358L5.29492 14.2667C4.71887 13.2784 4.41534 12.1552 4.41529 11.0114Z" fill="#FFD500"/>
<path d="M10.9316 4.48822C12.4414 4.48684 13.9043 5.01198 15.0684 5.97315C15.2016 6.08388 15.3713 6.14094 15.5444 6.13319C15.7175 6.12544 15.8814 6.05342 16.0042 5.93123L17.9794 3.95311C18.0473 3.88456 18.1005 3.80277 18.1355 3.71282C18.1705 3.62287 18.1866 3.52668 18.1829 3.43023C18.1791 3.33378 18.1555 3.23914 18.1136 3.15219C18.0717 3.06524 18.0123 2.98784 17.9392 2.9248C16.7493 1.88873 15.3447 1.12905 13.8261 0.700363C12.3075 0.271676 10.7129 0.18463 9.15665 0.445483C7.60043 0.706336 6.12135 1.30861 4.82572 2.20901C3.53009 3.10941 2.45008 4.28558 1.66333 5.65297L5.29338 7.74436C5.8647 6.75473 6.6865 5.93285 7.67619 5.36129C8.66589 4.78973 9.78862 4.48862 10.9316 4.48822Z" fill="#FF4B26"/>
<path d="M15.0657 5.97152C15.1989 6.08225 15.3687 6.13932 15.5418 6.13157C15.7148 6.12381 15.8788 6.0518 16.0016 5.9296L17.9767 3.95505C18.0447 3.88651 18.0978 3.80471 18.1329 3.71476C18.1679 3.62481 18.184 3.52862 18.1802 3.43217C18.1765 3.33573 18.1529 3.24108 18.111 3.15413C18.069 3.06718 18.0097 2.98978 17.9366 2.92674C15.9946 1.23378 13.5056 0.300243 10.929 0.298462V4.49016C12.4383 4.48778 13.9012 5.01164 15.0657 5.97152Z" fill="#D93F21"/>
</svg>
