<svg width="20" height="29" viewBox="0 0 20 29" fill="none" xmlns="http://www.w3.org/2000/svg">
<path d="M1.05982 21.0937L1.06187 21.0845C1.067 21.0611 1.07294 21.0423 1.07771 21.0266L1.09971 20.9522C1.10421 20.9369 1.11217 20.9229 1.12299 20.9112C1.13381 20.8995 1.1472 20.8903 1.16214 20.8845C1.17708 20.8786 1.19317 20.8763 1.2092 20.8775C1.22522 20.8787 1.24074 20.8835 1.25459 20.8916C1.34948 20.9469 1.47136 21.0178 1.49534 21.0314C1.67178 21.1334 1.83348 21.2303 2.00699 21.3201C2.21145 21.4236 2.42164 21.5157 2.63656 21.5959C3.04751 21.7499 3.47054 21.8704 3.90141 21.9563C4.15426 22.0101 4.41005 22.0553 4.66547 22.0922H4.66701C5.26853 22.1787 5.87612 22.2175 6.48392 22.208C6.52667 22.2072 6.57074 22.2065 6.6154 22.2039C6.65405 22.203 6.69416 22.1995 6.73164 22.1988C6.83555 22.1947 6.93697 22.1885 7.03744 22.18C7.29682 22.1619 7.546 22.1315 7.788 22.0931C8.11896 22.0408 8.4326 21.8871 8.80668 21.5901L8.85852 21.5493C8.87068 21.5397 8.88481 21.5329 8.89992 21.5294C8.91504 21.5259 8.93075 21.5256 8.94596 21.5288C8.96117 21.5319 8.97549 21.5383 8.9879 21.5475C9.00032 21.5567 9.01053 21.5685 9.0178 21.5821L9.07537 21.6906C9.12267 21.7748 9.16374 21.8517 9.20737 21.9383C9.20851 21.9407 9.2098 21.9429 9.21126 21.9451C9.35777 22.256 9.41347 22.6011 9.37208 22.9416C9.36848 22.9687 9.36438 22.9953 9.35888 23.0225C9.28913 23.3706 9.11728 23.6907 8.86468 23.9431C8.46135 24.3616 7.94802 24.6626 7.24849 24.8866H7.24724C7.21945 24.8951 7.19122 24.9043 7.16254 24.913C7.09185 24.9328 7.02028 24.9523 6.94863 24.9685C6.70498 25.0232 6.45626 25.0529 6.20642 25.0572C5.91256 25.0611 5.61899 25.0372 5.32972 24.986C4.90197 24.9067 4.56801 24.8435 4.2317 24.7527C4.16123 24.7338 4.09054 24.7137 4.01838 24.6892C3.81055 24.6283 3.60419 24.5494 3.40238 24.4764L3.28886 24.435C2.83229 24.2634 2.39972 24.0351 2.00156 23.7557C1.5029 23.4036 1.19189 23.0043 1.0538 22.5367C0.922389 22.0969 0.925323 21.6261 1.05952 21.0937" fill="#FFD030"/>
<path d="M2.87929 25.0988C2.87806 25.0846 2.87979 25.0704 2.88436 25.0569C2.88894 25.0434 2.89626 25.031 2.90588 25.0204C2.9155 25.0098 2.92721 25.0013 2.94029 24.9954C2.95338 24.9894 2.96756 24.9862 2.98196 24.9859C2.99427 24.9856 3.00654 24.9875 3.01818 24.9915L3.08162 25.014C3.12239 25.0267 3.15986 25.0379 3.19968 25.0524C3.31078 25.0973 3.42159 25.132 3.53159 25.1674C3.65738 25.2091 3.78236 25.2488 3.90654 25.2865C4.54188 25.4778 5.19673 25.5992 5.85912 25.6483C5.97234 25.6563 6.08462 25.659 6.19161 25.6572C6.68698 25.6458 7.17661 25.5498 7.63877 25.3735C7.67848 25.3611 7.71741 25.3464 7.75537 25.3294C7.77568 25.3222 7.79937 25.3149 7.82005 25.3058C8.22956 25.1463 8.61151 24.925 8.95224 24.6499C8.96361 24.6401 8.97527 24.6301 8.98671 24.6209C9.02858 24.5852 9.07266 24.5447 9.1182 24.5027C9.1358 24.4847 9.15486 24.4665 9.1754 24.4489C9.1817 24.4433 9.1883 24.4371 9.19424 24.4318C9.20356 24.4241 9.25232 24.3791 9.2961 24.3383C9.31513 24.3209 9.34002 24.311 9.366 24.3105C9.39198 24.3101 9.4172 24.3191 9.43683 24.3359L9.43918 24.3386C9.54549 24.4298 9.64333 24.5301 9.73156 24.6384V24.639C10.0451 25.022 10.1551 25.4296 10.0637 25.8709C10.0359 26.003 9.99357 26.1318 9.93755 26.2549C9.57396 27.0538 8.93926 27.5474 8.04702 27.7289C7.66878 27.8019 7.28459 27.8408 6.8992 27.845C6.61287 27.8504 6.32646 27.8405 6.0412 27.8154C5.48673 27.7705 4.94026 27.6564 4.41489 27.4758C4.34662 27.4516 4.27497 27.4247 4.1998 27.3942L4.1968 27.3931C3.87368 27.2699 3.59011 27.0631 3.37583 26.7945C3.15156 26.5 3.00537 26.1548 2.9505 25.7904C2.94243 25.7602 2.93971 25.7319 2.93436 25.702C2.91815 25.5679 2.9095 25.4375 2.89769 25.2918L2.89256 25.2345L2.87929 25.0988Z" fill="#FFD030"/>
<path d="M15.6691 25.6441C15.5945 25.8108 15.512 25.9737 15.4216 26.1327C15.1 26.6963 14.6263 27.1609 14.0531 27.4746C13.8174 27.6042 13.5679 27.7075 13.309 27.7826C13.3043 27.7838 13.2995 27.7853 13.2944 27.7868C13.0597 27.8547 12.6914 28.174 10.705 28.1155C10.4923 28.1092 9.41673 27.9455 9.33438 27.8941C9.33358 27.8928 9.33312 27.8914 9.33301 27.8899C9.33291 27.8884 9.33318 27.8869 9.33379 27.8855C9.36818 27.8264 9.75582 27.5063 9.83576 27.4238C10.3108 26.9326 10.68 26.2764 10.6571 25.5818C10.6346 24.9063 10.2695 24.2904 9.78127 23.8343C9.74497 23.8003 9.63424 23.7882 9.64406 23.7105C9.65492 23.6301 9.7567 23.4997 9.79073 23.409C9.83087 23.3099 9.86097 23.2071 9.88056 23.1021C9.91443 22.8942 9.92109 22.6828 9.90036 22.4732C9.85588 22.0507 9.70898 21.6449 9.4721 21.2902L9.44093 21.2379C9.4292 21.2202 9.41754 21.2027 9.40646 21.1853C9.37431 21.1389 9.35161 21.0868 9.33966 21.0319C9.31597 20.9187 9.37354 20.8232 9.47166 20.6761L9.50972 20.6152C9.61556 20.4522 9.69272 20.2727 9.73793 20.0843C9.83312 19.6892 9.82103 19.2762 9.70288 18.8872C9.60602 18.5376 9.42658 18.2157 9.17928 17.9478C9.1647 17.9321 9.15535 17.9124 9.15246 17.8913C9.14958 17.8703 9.15331 17.8488 9.16314 17.8299C9.29078 17.583 9.37541 17.3167 9.4135 17.0421C9.44089 16.7716 9.42032 16.4985 9.35271 16.2349C9.3072 15.9975 9.20607 15.7738 9.0574 15.5817C8.97843 15.4854 8.8906 15.3964 8.79501 15.316C8.72901 15.2563 8.65993 15.1993 8.5866 15.1434C8.37358 14.9801 8.14773 14.8337 7.9112 14.7057C7.67878 14.5738 7.43715 14.4584 7.18813 14.3605C7.0708 14.3138 6.95329 14.2695 6.83562 14.2277C6.74512 14.1967 6.66937 14.1698 6.59662 14.1481C6.55243 14.1287 6.50478 14.118 6.45641 14.1168C6.43756 14.1141 6.4633 14.1144 6.44174 14.1147C6.41832 14.1142 6.39492 14.1162 6.37193 14.1206C6.31911 14.1301 6.26853 14.1491 6.22277 14.1768C6.1179 14.2386 6.08556 14.3408 6.06144 14.4597L6.02338 14.6219L6.02213 14.6276L6.02602 14.6287C6.04281 14.6344 6.10668 14.6556 6.12216 14.6606C6.40294 14.7366 6.67906 14.8284 6.94914 14.9356C6.96593 14.9424 6.98294 14.9492 7.00047 14.9566C7.1742 15.0264 7.34103 15.1027 7.50456 15.1848C7.80841 15.3334 8.0887 15.5249 8.3366 15.7532C8.69124 16.0788 8.86981 16.4652 8.78438 16.8551C8.78137 16.8676 8.77873 16.8805 8.77536 16.8933C8.70979 17.1273 8.58841 17.3425 8.42138 17.5208C8.33254 17.6214 8.23049 17.7099 8.11792 17.7838C8.09248 17.801 8.06615 17.8176 8.04004 17.8329C7.93935 17.8921 7.83388 17.9429 7.72471 17.9849C7.63297 18.0203 7.53536 18.0528 7.4302 18.0824C7.29307 18.12 7.15256 18.1489 7.0122 18.1776L6.88673 18.1927C6.84478 18.1986 6.80254 18.2054 6.75818 18.2113C6.5366 18.2401 6.31351 18.2562 6.09004 18.2595C5.93215 18.2621 5.78028 18.26 5.62576 18.2505C5.42292 18.2429 5.21898 18.2225 5.01468 18.1962C4.32653 18.1197 3.65235 17.9499 3.01121 17.6916C2.59765 17.531 2.21936 17.2931 1.89705 16.9911C1.44239 16.5439 1.11972 15.9324 1.20515 15.2602C1.26001 14.8556 1.35935 14.4581 1.50142 14.0747C1.61611 13.7599 1.74613 13.4548 1.97339 13.2018C2.19522 12.9616 2.46201 12.7659 2.75909 12.6255C3.3129 12.3556 3.90419 12.073 4.5122 11.9742C5.14535 11.8712 5.78925 11.8484 6.42825 11.9065C6.95962 11.955 7.52004 12.2045 8.03425 12.3416C8.21516 12.3898 8.3952 12.4412 8.57486 12.4947C8.87553 12.5869 9.13916 12.6747 9.3797 12.7581L9.78376 12.9044L9.8329 12.9248C9.93675 12.9728 10.0493 12.9999 10.1638 13.0044C10.1875 13.0044 10.2115 13.0006 10.2343 12.9985C10.2627 12.9942 10.2907 12.9874 10.3179 12.9781C10.3218 12.9769 10.3256 12.9754 10.3293 12.9737C10.3573 12.964 10.3842 12.9512 10.4092 12.9355C10.4193 12.9307 10.4289 12.925 10.438 12.9184C10.511 12.8668 10.5725 12.8012 10.6189 12.7253C10.6652 12.6495 10.6954 12.5651 10.7075 12.4774C10.7283 12.2857 10.696 12.0922 10.6141 11.9172C10.5964 11.8761 10.577 11.8341 10.5578 11.7957C10.4742 11.6076 10.3784 11.4266 10.2832 11.253C10.1972 11.0859 10.1037 10.9139 10.025 10.7422C9.84461 10.3666 9.68464 9.98184 9.54572 9.5895C9.33917 9.02425 9.20151 8.43676 9.13564 7.83941C9.07761 7.30172 9.18591 6.75928 9.44628 6.28349C9.53942 6.11589 9.6412 5.95183 9.74908 5.79551C9.96253 5.48414 10.2069 5.19452 10.4784 4.93093C10.4862 4.92296 10.4943 4.91587 10.5021 4.90784C10.7777 4.64302 11.0776 4.40405 11.398 4.194C11.4022 4.19103 11.4066 4.18837 11.4112 4.18604C11.4405 4.16715 11.4698 4.14877 11.5008 4.13227C11.7449 3.99528 12.0203 3.92183 12.3011 3.91885C12.4898 3.91735 12.6779 3.93839 12.8615 3.98152C12.9025 3.991 12.9436 4.00012 12.9849 4.01047C12.9861 4.01041 12.9873 4.01059 12.9885 4.011C12.9896 4.01141 12.9906 4.01204 12.9915 4.01286C13.0412 4.02771 13.0898 4.04576 13.1371 4.06692C13.2604 4.1209 13.3651 4.20906 13.4386 4.32069C13.5121 4.43232 13.5511 4.56261 13.551 4.69573C13.5575 4.7334 13.5573 4.7719 13.5503 4.80949L13.5491 4.83844C13.5507 4.85735 13.5502 4.87638 13.5476 4.89518L13.5449 4.92239L13.5434 4.92919C13.5374 4.96733 13.5315 5.00604 13.523 5.04498C13.4778 5.25485 13.47 5.45523 13.3817 5.6515C13.2109 6.073 13.0629 6.50319 12.9384 6.94023C12.937 6.94791 12.9351 6.95558 12.9336 6.96361C12.8965 7.14453 12.7629 7.99667 12.783 8.259C12.8141 8.63907 12.884 9.01508 12.9917 9.38129C13.0569 9.6086 13.1388 9.848 13.2417 10.1093L13.3591 10.3857L13.492 10.66C13.5381 10.7496 13.5861 10.8409 13.6355 10.9328C13.6715 10.9925 13.6999 11.0472 13.7292 11.1004C13.7292 11.1004 13.7772 11.1846 13.7778 11.1858L13.7898 11.2068C13.85 11.32 13.9207 11.4391 13.992 11.5473C14.1346 11.7716 14.1088 11.9924 14.2718 12.2058C14.3661 12.4438 14.4581 12.6826 14.5479 12.9223C15.1331 14.4885 15.6724 16.0864 15.9999 17.7284C16.0191 17.8268 16.0381 17.9257 16.0568 18.0251C16.0688 18.0881 16.0802 18.1508 16.0916 18.2143C16.1063 18.2956 16.12 18.3768 16.1341 18.4578C16.5115 20.68 16.6143 23.0419 15.8451 25.2056C15.7924 25.3542 15.7339 25.5004 15.6695 25.6442" fill="#FFD030"/>
<path d="M0.790349 17.6816C0.850262 17.561 0.915822 17.4419 0.985635 17.3257C0.991062 17.3174 0.996123 17.3091 1.00089 17.3012C1.02758 17.2577 1.05303 17.2134 1.07701 17.169L1.12548 17.0857L1.14103 17.0579L1.21832 17.1258L1.21891 17.1264L1.26108 17.1633C1.324 17.2169 1.38237 17.2685 1.44111 17.3225L1.51657 17.392C1.62503 17.4856 1.72924 17.5788 1.83528 17.6607V17.6613C1.84818 17.6716 1.86072 17.6814 1.87326 17.6908C2.31326 18.0245 2.83774 18.2743 3.52664 18.4771C4.37379 18.7412 5.25786 18.8717 6.14625 18.864L6.34242 18.8607C7.05111 18.8279 7.61292 18.7064 8.11496 18.48C8.21674 18.4289 8.31442 18.3768 8.41621 18.3183L8.45398 18.2943C8.4863 18.2785 8.52155 18.2692 8.5576 18.2671C8.60647 18.2687 8.65314 18.2876 8.68908 18.3203C8.86558 18.4747 9.00953 18.6618 9.11271 18.8711C9.21589 19.0803 9.27628 19.3076 9.29042 19.5399C9.29951 19.6741 9.29056 19.809 9.2638 19.9409C9.23177 20.099 9.17889 20.2523 9.1065 20.3969C8.82138 20.9703 8.42186 21.3729 7.91204 21.596C7.7791 21.6518 7.6395 21.6908 7.49661 21.7118C7.4298 21.7222 7.35918 21.7311 7.28218 21.7372C7.22498 21.744 7.16485 21.7467 7.10728 21.7494C6.8919 21.7695 6.67828 21.7769 6.46987 21.7804C5.3255 21.8028 4.1857 21.6314 3.09998 21.2738C2.84744 21.1915 2.60097 21.092 2.36232 20.9762H2.35932C2.04881 20.8252 1.75772 20.6381 1.49222 20.4189C1.44126 20.3799 1.39007 20.338 1.34123 20.2936C1.19336 20.1641 1.05975 20.0195 0.942589 19.8624C0.942123 19.8624 0.941675 19.8622 0.941345 19.8618C0.941015 19.8615 0.940829 19.8611 0.940829 19.8606C0.802659 19.6825 0.696041 19.4827 0.625496 19.2694C0.459249 18.7693 0.512269 18.2473 0.789909 17.6813" fill="#FFD030"/>
<path d="M17.1452 8.85878C17.1014 8.85868 17.0592 8.84255 17.0268 8.81352C16.9944 8.78449 16.974 8.74461 16.9696 8.70161C16.9653 8.65862 16.9772 8.61555 17.0032 8.58075C17.0291 8.54595 17.0673 8.52189 17.1102 8.51322L18.9241 8.14993C18.97 8.14072 19.0178 8.1499 19.0569 8.17546C19.096 8.20101 19.1232 8.24085 19.1325 8.2862C19.1419 8.33156 19.1326 8.37871 19.1067 8.4173C19.0808 8.45588 19.0404 8.48273 18.9945 8.49194L17.1806 8.85523C17.1689 8.85757 17.1571 8.85875 17.1452 8.85878Z" fill="#212121"/>
<path d="M16.415 5.23416C16.3743 5.23417 16.3348 5.22027 16.3032 5.19484C16.2717 5.1694 16.25 5.13398 16.2418 5.09457C16.2337 5.05517 16.2396 5.0142 16.2586 4.9786C16.2775 4.94301 16.3084 4.91497 16.3459 4.89924L19.1524 3.71963C19.1738 3.71065 19.1967 3.7059 19.22 3.70567C19.2432 3.70543 19.2662 3.70971 19.2877 3.71826C19.3093 3.72681 19.3289 3.73947 19.3455 3.75551C19.3621 3.77154 19.3753 3.79064 19.3844 3.81172C19.3935 3.8328 19.3983 3.85544 19.3986 3.87836C19.3988 3.90127 19.3945 3.924 19.3858 3.94526C19.3771 3.96652 19.3643 3.98589 19.3481 4.00226C19.3318 4.01863 19.3125 4.03167 19.2911 4.04066L16.4844 5.22027C16.4625 5.22941 16.439 5.23413 16.4152 5.23416" fill="#212121"/>
<path d="M14.1532 2.9C14.1185 2.89998 14.0846 2.88988 14.0556 2.87094C14.0267 2.85201 14.004 2.82508 13.9905 2.79353C13.977 2.76197 13.9732 2.72718 13.9796 2.6935C13.986 2.65982 14.0023 2.62875 14.0264 2.60415L15.1462 1.46551C15.1622 1.4485 15.1815 1.43481 15.2029 1.42526C15.2244 1.41571 15.2476 1.41048 15.2711 1.40988C15.2946 1.40928 15.318 1.41332 15.34 1.42177C15.3619 1.43022 15.3819 1.4429 15.3988 1.45907C15.4157 1.47525 15.4291 1.49459 15.4383 1.51596C15.4476 1.53733 15.4524 1.5603 15.4525 1.58353C15.4526 1.60676 15.448 1.62977 15.4389 1.65122C15.4299 1.67267 15.4166 1.69213 15.3999 1.70845L14.28 2.84688C14.2635 2.86363 14.2437 2.87695 14.2219 2.88603C14.2001 2.89512 14.1767 2.89979 14.153 2.89978" fill="#212121"/>
<path d="M5.63392 9.10505C5.62459 9.10509 5.61527 9.10439 5.60606 9.10295L3.77808 8.81746C3.75475 8.81434 3.73228 8.80666 3.712 8.79486C3.69172 8.78305 3.67404 8.76738 3.65998 8.74874C3.64592 8.7301 3.63578 8.70888 3.63014 8.68633C3.6245 8.66377 3.62349 8.64033 3.62716 8.61738C3.63083 8.59443 3.6391 8.57243 3.6515 8.55268C3.6639 8.53293 3.68016 8.51582 3.69935 8.50236C3.71854 8.4889 3.74026 8.47935 3.76323 8.47428C3.78621 8.46921 3.80998 8.46872 3.83315 8.47284L5.66142 8.75841C5.70541 8.7652 5.74517 8.78813 5.77277 8.8226C5.80037 8.85708 5.81376 8.90056 5.81028 8.94436C5.8068 8.98816 5.78669 9.02905 5.75398 9.05885C5.72127 9.08866 5.67837 9.10518 5.63385 9.10512" fill="#212121"/>
<path d="M6.2004 5.45228C6.17919 5.45234 6.15816 5.44854 6.13836 5.44106L3.28246 4.3826C3.23858 4.36629 3.20305 4.33343 3.18371 4.29127C3.16437 4.24911 3.16279 4.2011 3.17932 4.15779C3.19585 4.11448 3.22914 4.07942 3.27186 4.06033C3.31459 4.04125 3.36324 4.03969 3.40713 4.056L6.26273 5.11446C6.30149 5.12883 6.3339 5.15616 6.35433 5.1917C6.37476 5.22723 6.38191 5.26871 6.37453 5.30891C6.36714 5.34911 6.3457 5.38548 6.31393 5.41168C6.28217 5.43788 6.24209 5.45225 6.20069 5.45228" fill="#212121"/>
<path d="M8.35742 3.02383C8.31232 3.02387 8.26893 3.00682 8.2362 2.97621L7.06741 1.88641C7.04966 1.8709 7.03525 1.85202 7.02504 1.8309C7.01483 1.80978 7.00903 1.78684 7.00798 1.76347C7.00694 1.74009 7.01067 1.71674 7.01896 1.69481C7.02724 1.67289 7.03991 1.65283 7.05622 1.63583C7.07252 1.61884 7.09212 1.60525 7.11385 1.59589C7.13558 1.58652 7.159 1.58156 7.18271 1.58131C7.20642 1.58106 7.22994 1.58551 7.25187 1.59441C7.2738 1.60332 7.2937 1.61648 7.31037 1.63312L8.47879 2.72292C8.50454 2.74688 8.52241 2.77792 8.53008 2.81202C8.53775 2.84612 8.53486 2.88171 8.52178 2.91417C8.50871 2.94662 8.48606 2.97446 8.45677 2.99407C8.42747 3.01367 8.39289 3.02414 8.35749 3.02412" fill="#212121"/>
<path d="M11.3368 2.38008C11.2905 2.38001 11.246 2.36202 11.213 2.32997C11.1799 2.29791 11.1609 2.25435 11.1601 2.20864L11.125 0.1774C11.1242 0.131144 11.1421 0.0864705 11.1747 0.0532062C11.2072 0.019942 11.2519 0.000812194 11.2988 2.52692e-05C11.3456 -0.000761656 11.3909 0.0168587 11.4246 0.0490101C11.4583 0.0811615 11.4777 0.12521 11.4785 0.171466L11.5135 2.2027C11.514 2.22561 11.5098 2.24837 11.5013 2.26969C11.4928 2.291 11.4801 2.31045 11.4639 2.32692C11.4478 2.3434 11.4285 2.35657 11.4072 2.36569C11.3859 2.37481 11.363 2.3797 11.3398 2.38008H11.3368Z" fill="#212121"/>
<path d="M14.0508 14.8756C14.8116 16.6269 15.2202 18.4579 15.139 20.3684C14.985 19.445 14.875 18.5202 14.6858 17.6053C14.5057 16.689 14.2374 15.7934 14.0508 14.8756Z" fill="#212121"/>
<path d="M14.3439 23.9307C14.5406 24.5629 14.5257 25.3524 14.2394 25.966C14.1251 26.1745 13.9783 26.3639 13.8044 26.5273C13.6382 26.6926 13.4541 26.8394 13.2555 26.9651C12.6646 27.3366 11.9661 27.4998 11.2852 27.5926C12.1322 27.2967 13.0053 27.0153 13.6392 26.3636C13.797 26.2165 13.9331 26.0483 14.0432 25.8637C14.1428 25.6722 14.2145 25.4678 14.2565 25.2566C14.3576 24.8221 14.3871 24.3744 14.344 23.9306" fill="#212121"/>
<path d="M7.16406 19.5286C7.3009 19.461 7.47346 19.544 7.563 19.6584C7.71458 19.8511 7.77985 20.2578 7.66963 20.4801C7.60553 20.6155 7.42462 20.7262 7.28624 20.6466C7.59834 20.5836 7.49384 20.1734 7.45967 19.9591C7.44932 19.8683 7.42223 19.7802 7.37974 19.699C7.35739 19.6594 7.32783 19.6242 7.29254 19.5952C7.27399 19.5807 7.18863 19.5165 7.16406 19.5286Z" fill="#212121"/>
<path d="M7.16406 23.1048C7.3009 23.0372 7.47346 23.1202 7.563 23.2346C7.71458 23.4273 7.77985 23.834 7.66963 24.0562C7.60553 24.1917 7.42462 24.3023 7.28624 24.2227C7.59834 24.1597 7.49384 23.7495 7.45967 23.5352C7.44931 23.4444 7.42222 23.3563 7.37974 23.2751C7.35738 23.2355 7.32782 23.2003 7.29254 23.1713C7.27399 23.1569 7.18863 23.0927 7.16406 23.1048Z" fill="#212121"/>
<path d="M6.47751 16.9879C5.86532 17.4052 5.08777 17.7747 4.33353 17.5196C4.12857 17.4383 3.93606 17.3293 3.76153 17.1956C3.50267 17.0154 3.22686 16.8811 2.96176 16.6982C2.61431 16.4623 2.27463 16.0899 2.28541 15.6521C2.33168 15.8516 2.43324 16.0345 2.57874 16.1804C2.93844 16.561 3.45999 16.7159 3.89089 17.0068C4.74068 17.6773 5.56223 17.3465 6.47758 16.9879" fill="#212121"/>
<path d="M16.1205 18.6371C15.7963 16.7807 15.3088 14.9557 14.6634 13.1828C14.57 12.9295 14.4801 12.6945 14.3938 12.4808C14.3865 12.4631 13.8301 11.0786 13.621 10.6317C13.6081 10.6021 13.5941 10.5746 13.5814 10.5448C12.7083 8.26298 13.0969 7.07534 13.2272 6.78036C13.2595 6.70677 13.2907 6.63259 13.3215 6.55841C13.3524 6.48604 13.3847 6.41563 13.4182 6.34529C13.457 6.27249 13.4906 6.19714 13.5188 6.11979C13.5326 6.08874 13.5454 6.05892 13.5583 6.02759C13.6594 5.79571 13.7288 5.55159 13.7647 5.30166C13.8243 4.92187 13.7629 4.6159 13.5873 4.35523C13.4612 4.16955 13.284 4.02324 13.0766 3.93346C13.0359 3.91455 12.9933 3.89682 12.9487 3.88027C12.9062 3.86428 12.8616 3.84952 12.8152 3.83685C12.6014 3.77736 12.3801 3.74829 12.158 3.75052L12.087 3.75167C11.9162 3.75383 11.7474 3.78876 11.5902 3.85451L11.588 3.85509C11.4032 3.94158 11.2261 4.04343 11.0588 4.15954C11.0309 4.17727 11.0033 4.19442 10.9761 4.21331C10.9743 4.21389 10.9737 4.21512 10.9728 4.2157C10.2049 4.71539 9.55706 5.37463 9.07446 6.14729L8.91019 6.42923C8.72289 6.75662 8.59974 7.1159 8.54719 7.48827V7.49421C8.5403 7.54298 8.53553 7.59234 8.53106 7.64198C8.50061 8.10865 8.54353 8.57716 8.65829 9.03088C8.71886 9.30103 8.79968 9.58334 8.89134 9.88034C9.13299 10.6241 9.44661 11.3432 9.82788 12.0277C9.86924 12.1031 9.90547 12.1806 9.94617 12.2624C9.95306 12.2749 9.959 12.2872 9.96531 12.3003C9.98929 12.3464 10.0144 12.3928 10.0378 12.4378L10.1016 12.5599C10.1197 12.5968 10.1265 12.6382 10.121 12.6789C10.1156 12.7196 10.0983 12.7579 10.0712 12.789C10.0441 12.8202 10.0083 12.8428 9.96834 12.8542C9.92837 12.8656 9.8859 12.8652 9.84614 12.8531L9.77758 12.8318L9.70989 12.8108L9.66259 12.7931C9.63377 12.7854 9.61125 12.7757 9.5916 12.7718C9.57151 12.765 9.55112 12.7573 9.53051 12.7508L9.52839 12.7503C9.16304 12.6214 8.82094 12.5076 8.48456 12.4109H8.47826C8.0497 12.2868 7.64226 12.1866 7.25022 12.1076C7.13552 12.0845 7.02384 12.0642 6.91868 12.0441C6.75456 12.0151 6.59909 11.9906 6.45052 11.9717C6.12761 11.9276 5.8018 11.9075 5.47584 11.9114C5.40097 11.9126 5.32221 11.9187 5.24734 11.92C4.42161 11.975 3.61282 12.1772 2.86012 12.5167C1.78402 12.9964 1.08369 13.9279 0.82101 15.0555C0.682997 15.6472 0.629391 16.166 0.869631 16.8706C0.881041 16.9021 0.887495 16.9351 0.88877 16.9685C0.889258 17.0072 0.883617 17.0458 0.87205 17.0829C0.860189 17.1219 0.842413 17.159 0.819324 17.1928C0.767477 17.2685 0.707637 17.3448 0.656744 17.419C0.649173 17.4309 0.640845 17.4424 0.63181 17.4533C0.460797 17.6274 0.32777 17.9058 0.227744 18.1287C0.112505 18.381 0.038262 18.6496 0.00774371 18.9247C-0.0397903 19.4839 0.132813 20.0397 0.489691 20.4765C0.491337 20.4792 0.49336 20.4816 0.495703 20.4838C0.502596 20.492 0.50795 20.4991 0.515797 20.5086C0.53351 20.53 0.549242 20.553 0.562804 20.5772C0.588852 20.6246 0.603652 20.6773 0.606091 20.7312C0.60853 20.7851 0.598544 20.8388 0.576884 20.8884C0.504605 21.0764 0.444906 21.2689 0.398171 21.4647C0.372944 21.5765 0.352924 21.6873 0.338844 21.7976L0.338257 21.8C0.336585 21.8059 0.335964 21.812 0.336423 21.818C0.305052 22.0577 0.301755 22.3002 0.326596 22.5407C0.376425 23.1318 0.639803 23.6855 1.06873 24.101C1.36595 24.3908 1.70473 24.636 2.0742 24.8287C2.15626 24.8736 2.2054 24.9579 2.22153 25.1037C2.22669 25.1332 2.22731 25.1633 2.22336 25.193C2.1083 26.2964 2.50606 27.4527 3.51814 28.0406C3.71666 28.1543 3.92627 28.248 4.14382 28.3202C5.3198 28.7035 6.5728 28.7978 7.79406 28.5948C7.92136 28.5741 8.20406 28.5152 8.24784 28.5059C8.43653 28.547 8.62734 28.5792 8.81728 28.6125C10.065 28.8328 11.3737 28.9347 12.6175 28.6081C13.1935 28.4624 13.7362 28.2102 14.2168 27.8648C14.8988 27.3649 15.4059 26.6744 15.7449 25.9108C16.6938 23.7717 16.4967 20.8534 16.1205 18.6371ZM0.539557 20.0108C0.537724 20.0108 0.537724 20.0078 0.537724 20.0078C0.478737 19.9095 0.43074 19.8051 0.394577 19.6966C0.376243 19.6434 0.36011 19.5908 0.346617 19.5374L0.345957 19.5344C0.23097 19.0795 0.30467 18.6122 0.565957 18.1059C0.628584 17.9865 0.697443 17.8697 0.765496 17.7621C0.797543 17.7152 0.82299 17.6696 0.849977 17.6253L0.886204 17.5638L1.0138 17.3577L1.10305 17.431L1.10818 17.4357L1.25485 17.5575C1.32591 17.6172 1.39176 17.6684 1.45828 17.7272C1.50858 17.7697 1.55706 17.8093 1.60619 17.8522L1.60795 17.8543C1.66339 17.8977 1.717 17.9407 1.7706 17.9832C1.80294 18.0083 1.83411 18.0331 1.86674 18.0556C1.87151 18.0585 1.87576 18.0615 1.88053 18.0648C2.2923 18.3571 2.78649 18.5761 3.42962 18.755C4.24489 18.9936 5.09162 19.111 5.94195 19.1034L6.1343 19.1001C7.43509 19.044 8.20788 18.6193 8.3192 18.5646C8.4072 18.5212 8.45941 18.5574 8.58393 18.6955C8.93769 19.0881 9.13334 19.3694 9.17676 19.8261C9.178 19.8392 9.1791 19.8521 9.18035 19.8654V19.8743C9.19551 20.1789 9.1271 20.4819 8.98235 20.7513C8.69782 21.2907 8.30123 21.6768 7.80227 21.902H7.80073C7.77741 21.9132 7.75424 21.9229 7.73092 21.933C7.64292 21.9698 7.55171 21.9986 7.45841 22.0191C7.3919 22.0344 7.32091 22.048 7.24369 22.0589H7.24032C7.18429 22.0672 7.12621 22.074 7.06432 22.0788C7.03645 22.0814 7.00624 22.0838 6.9772 22.0844C6.79834 22.1004 6.62021 22.1098 6.44377 22.1157H6.43922C6.37931 22.1172 6.32006 22.119 6.26132 22.1199C5.9211 22.1255 5.58377 22.1154 5.24932 22.0897C4.45768 22.0315 3.67542 21.8838 2.9179 21.6495C2.71292 21.5852 2.5115 21.5103 2.31444 21.4252C1.88948 21.2476 1.49453 21.0068 1.14331 20.7114C1.10584 20.68 1.0691 20.6484 1.03551 20.6156C1.03053 20.6117 1.02582 20.6074 1.02143 20.6029C0.94157 20.53 0.865964 20.4527 0.794977 20.3713C0.729085 20.2958 0.668446 20.216 0.613477 20.1325C0.587125 20.0926 0.562681 20.052 0.540143 20.0107M1.71898 24.2529C1.36762 24.0173 1.07779 23.703 0.873224 23.3357L0.870217 23.3318C0.806184 23.2121 0.754305 23.0865 0.715337 22.9567C0.5961 22.5406 0.579878 22.1023 0.668037 21.6786C0.681831 21.5937 0.699943 21.5094 0.722304 21.4262C0.73059 21.3887 0.743497 21.3538 0.753104 21.3216L0.761831 21.2894L0.779211 21.2279L0.85401 20.9788L0.859144 20.9613L0.86809 20.9663L0.922357 20.9982L1.05986 21.0786L1.06968 21.0843L1.15416 21.1339C2.00747 21.6302 2.91776 22.0473 3.89302 22.2426C4.65971 22.3942 5.44017 22.4676 6.22208 22.4617C7.01284 22.4572 7.81019 22.4374 8.54044 21.9225L8.81178 21.731C8.81606 21.7279 8.82094 21.7258 8.8261 21.7248C8.83126 21.7237 8.83658 21.7237 8.84173 21.7248C8.84688 21.7259 8.85175 21.728 8.85602 21.7311C8.8603 21.7341 8.86388 21.738 8.86656 21.7425C8.86722 21.7436 8.87044 21.7497 8.8711 21.7513C9.03104 22.0987 9.2231 22.3785 9.28617 22.7655C9.29636 22.8281 9.30751 22.8899 9.31257 22.9536C9.31411 22.9693 9.31536 22.9852 9.31587 23.0006C9.32168 23.1119 9.31677 23.2236 9.3012 23.334C9.24203 23.7449 9.04856 24.1254 8.75018 24.4179C8.50105 24.6789 8.20987 24.8974 7.88844 25.0646C7.74364 25.1407 7.59475 25.209 7.44242 25.2691L7.43971 25.2703C7.30734 25.3217 7.16838 25.3711 7.02061 25.4157C7.01155 25.42 7.00213 25.4236 6.99245 25.4263C6.66856 25.5207 6.33324 25.5716 5.99556 25.5776C5.69344 25.5816 5.39164 25.5568 5.09436 25.5035C4.68128 25.4284 4.33536 25.3592 3.98916 25.2705C3.93826 25.2552 3.88649 25.2424 3.83428 25.225C3.5683 25.1437 3.30628 25.0459 3.05643 24.956L3.03252 24.9468C2.56677 24.7707 2.12529 24.5375 1.71846 24.2528M8.77606 27.9588C8.67892 28.0117 8.57869 28.0589 8.47591 28.1001C8.29021 28.175 8.09762 28.232 7.90083 28.2704C7.5128 28.3466 7.11848 28.3873 6.72288 28.3919C6.4307 28.3964 6.13848 28.3858 5.84742 28.3603C5.27859 28.3156 4.71807 28.198 4.17997 28.0106C4.13868 27.9961 4.09608 27.9811 4.05149 27.9648C3.9422 27.9234 3.8354 27.8759 3.73161 27.8226C3.61847 27.7646 3.51081 27.6968 3.4099 27.6199C3.2792 27.5227 3.16296 27.4079 3.06457 27.2789C2.82295 26.9558 2.66578 26.579 2.60697 26.1817C2.60242 26.1593 2.59795 26.1359 2.59406 26.1111C2.57786 25.9698 2.5662 25.8355 2.55388 25.6884C2.54882 25.626 2.54251 25.5613 2.53804 25.4965L2.50804 25.1554L2.50174 25.0836L2.8896 25.2228L2.89466 25.2246C2.89769 25.2253 2.90068 25.2262 2.9036 25.2273C2.91534 25.2308 2.92641 25.2345 2.93748 25.2388C2.98508 25.2562 3.02966 25.2687 3.07733 25.2864C3.19026 25.3308 3.29806 25.3636 3.40418 25.3987C3.53383 25.4428 3.66026 25.483 3.78808 25.5176C4.40808 25.7045 5.04717 25.8231 5.69364 25.8711C5.7991 25.8783 5.90748 25.8811 6.00993 25.8793C6.35866 25.8729 6.70504 25.8215 7.04026 25.7265C7.17505 25.6889 7.3116 25.6428 7.45276 25.5899C7.49464 25.5742 7.53871 25.558 7.58007 25.5412C7.98646 25.3828 8.36454 25.1613 8.69994 24.885C8.76763 24.8271 8.83194 24.762 8.90564 24.6958C8.92515 24.6795 8.944 24.6612 8.96321 24.6426C9.0268 24.5693 9.08428 24.491 9.1351 24.4085L9.14244 24.3976L9.14691 24.4017L9.15351 24.4076L9.36984 24.6007C9.45554 24.6749 9.53619 24.7547 9.61126 24.8395C9.63854 24.8711 9.66486 24.9033 9.6906 24.9352C9.90281 25.1875 10.035 25.4959 10.0708 25.8219C10.0722 25.8358 10.074 25.8494 10.0746 25.8636C10.0888 26.153 10.0314 26.4414 9.90745 26.704C9.74157 27.0849 9.48892 27.4229 9.16913 27.6918C9.07364 27.771 8.972 27.8426 8.86516 27.9061C8.83583 27.9244 8.80554 27.9423 8.77584 27.9587M15.0271 26.1341C14.9449 26.2803 14.8543 26.4218 14.7558 26.5579C14.04 27.5484 12.9715 28.1159 11.569 28.2537C11.5339 28.2581 11.4986 28.2609 11.4611 28.264C10.6219 28.3317 10.0867 28.29 9.11083 28.1943C9.48637 27.9379 9.8068 27.6108 10.0537 27.2318C10.3189 26.8291 10.4419 26.3514 10.4038 25.8727C10.3771 25.5165 10.1971 25.1763 10.0009 24.8789C9.89951 24.7259 9.78356 24.5828 9.65467 24.4515C9.53279 24.3267 9.39287 24.2204 9.42044 24.0256C9.44838 23.8343 9.55244 23.657 9.58647 23.4596C9.61828 23.2652 9.6243 23.0675 9.60436 22.8716C9.56205 22.4756 9.42466 22.0952 9.2036 21.762C9.13018 21.6669 9.07589 21.5588 9.04366 21.4436C9.00413 21.2373 9.13598 21.075 9.24041 20.9109C9.33523 20.7634 9.40461 20.6014 9.44574 20.4315C9.53495 20.0629 9.52297 19.6776 9.41105 19.3151C9.35577 19.1146 9.27163 18.923 9.16121 18.7461C9.14955 18.7278 9.02613 18.5623 8.92427 18.4432C8.85204 18.3639 8.79132 18.3069 8.77636 18.3303C8.823 18.2552 8.86619 18.179 8.90484 18.1015C8.93212 18.0462 8.95617 17.9907 8.97861 17.9336L8.97678 17.9331H8.97912C8.98418 17.92 8.98961 17.9074 8.99379 17.8943L8.99496 17.892C9.05412 17.7352 9.09592 17.5727 9.11963 17.4071C9.14409 17.1545 9.12392 16.8997 9.06001 16.654C9.02098 16.4404 8.9313 16.2391 8.79828 16.0663C8.72523 15.9791 8.64487 15.8981 8.55804 15.8242C8.49204 15.7645 8.42568 15.7104 8.35462 15.6564C8.14691 15.4991 7.92812 15.3567 7.6999 15.2301C7.52497 15.132 7.34467 15.0418 7.15899 14.9597C7.10568 14.938 7.05053 14.9162 6.99634 14.8934C6.97177 14.8837 6.94691 14.8748 6.92146 14.8651C6.82532 14.8278 6.7286 14.7933 6.63033 14.7581C6.55546 14.7315 6.39427 14.5633 6.3194 14.542C6.2902 14.5273 6.25787 14.5197 6.22509 14.5199C6.19371 14.5161 6.16196 14.5166 6.13071 14.5213C6.11641 14.5242 6.10238 14.5282 6.08876 14.5334C6.08288 14.5351 6.07724 14.5376 6.07197 14.5406C5.99321 14.5758 5.93 14.7342 5.91203 14.8203V14.8244C6.16628 14.8921 6.49217 15.0236 6.7187 15.1073C6.96727 15.1998 7.21071 15.3053 7.448 15.4233C7.52793 15.4649 7.6061 15.5069 7.68098 15.5516C7.91033 15.6834 8.12384 15.8403 8.31744 16.0195C8.56845 16.2348 8.73416 16.5308 8.78523 16.8551C8.78736 16.8652 8.78794 16.8753 8.78912 16.8856C8.83106 17.2601 8.68843 17.6515 8.36591 18.0114C8.29601 18.0909 8.21858 18.1636 8.13469 18.2285C7.88883 18.4106 7.60859 18.5424 7.31042 18.6161C7.30554 18.6172 7.30081 18.6188 7.29634 18.6211C7.15884 18.6607 7.01474 18.6905 6.87284 18.721C6.80186 18.7305 6.72757 18.7453 6.64756 18.7562C6.41963 18.7849 6.19026 18.8011 5.9605 18.8047C5.59345 18.8109 5.22647 18.7893 4.86278 18.74C4.24352 18.6704 3.63496 18.5278 3.05012 18.3152C3.04682 18.3152 3.04499 18.3126 3.04022 18.3114C2.96535 18.2848 2.88982 18.2561 2.81648 18.2246C2.50076 18.0985 2.20302 17.9323 1.93076 17.7304C1.89725 17.7047 1.86432 17.6783 1.8325 17.6523C1.76723 17.5992 1.70666 17.5468 1.64982 17.4913C1.60458 17.4466 1.56263 17.4023 1.52222 17.3559C1.27976 17.0833 1.11763 16.7504 1.05348 16.3934C1.03161 16.2636 1.0206 16.1323 1.02055 16.0008C1.01993 15.8898 1.02661 15.7788 1.04057 15.6686C1.08912 15.2639 1.18555 14.8662 1.32789 14.4836C1.51593 14.0034 1.82712 13.5795 2.23099 13.2536C2.23876 13.2468 2.24624 13.2408 2.2549 13.234C2.41217 13.1096 2.58038 12.9994 2.75752 12.9045C3.13766 12.7073 3.53973 12.5545 3.95564 12.449C4.17396 12.3904 4.3875 12.3435 4.58756 12.3021C4.76438 12.2667 4.94312 12.2415 5.12289 12.2264C5.77228 12.1857 6.42425 12.2325 7.06087 12.3653C7.19888 12.3907 7.33704 12.4182 7.47388 12.4504C7.47718 12.4504 7.47718 12.4504 7.47894 12.4534C7.81921 12.5297 8.16094 12.6271 8.48984 12.7247C8.76059 12.8078 9.03251 12.8935 9.30216 12.9913C9.439 13.0389 9.57166 13.0871 9.70622 13.1374C9.82356 13.1782 9.94492 13.2411 10.0749 13.221C10.1419 13.2079 10.2043 13.1784 10.2565 13.1351C10.3087 13.0917 10.349 13.0361 10.3736 12.9733L10.3751 12.9697C10.3936 12.9278 10.4062 12.8835 10.4125 12.8382C10.4243 12.7348 10.4157 12.6301 10.3873 12.5299C10.3722 12.4731 10.353 12.4175 10.3298 12.3634C10.1606 11.9617 9.9252 11.5887 9.74311 11.1915C9.55989 10.8118 9.39742 10.4226 9.2564 10.0257C9.04677 9.4477 8.90701 8.84728 8.84001 8.23692C8.77998 7.66732 8.89496 7.09307 9.17001 6.58881C9.2649 6.41707 9.37006 6.25005 9.48241 6.08751C9.77583 5.65783 10.1257 5.26846 10.5229 4.92961C10.5352 4.91956 10.5474 4.90921 10.5596 4.89886C10.739 4.75079 10.9263 4.613 11.1184 4.48093C11.3323 4.33344 11.538 4.17944 11.7912 4.10461C12.0868 4.01777 12.3767 4.04375 12.6724 4.11229C12.8998 4.15805 13.1076 4.27118 13.2682 4.43657C13.3473 4.53065 13.4069 4.63925 13.4434 4.75611C13.4799 4.87298 13.4926 4.99582 13.4808 5.11756C13.4538 5.4472 13.3626 5.76863 13.2124 6.06428C13.1978 6.10126 13.1795 6.14316 13.1611 6.18101C13.1246 6.25666 13.0902 6.33192 13.0581 6.4068C13.0419 6.44407 13.0263 6.48127 13.0116 6.51825C13.005 6.53388 12.999 6.55016 12.9933 6.5655C12.9699 6.60958 12.6731 7.18708 12.6501 8.22904C12.648 8.2967 12.648 8.36704 12.6486 8.4389C12.6676 9.2107 12.8067 9.97504 13.061 10.7051C13.2014 11.1227 13.3683 11.5312 13.5606 11.9281C14.0998 13.0475 15.0833 15.781 15.5839 18.725C15.975 21.0272 16.1725 24.1066 15.0266 26.1331M8.96834 17.9358L8.9701 17.9352L8.96834 17.9364V17.9358Z" fill="#FF8A00"/>
<path d="M16.299 18.4557C16.2856 18.3748 16.2712 18.2938 16.2569 18.2122C16.2451 18.149 16.2338 18.086 16.2218 18.0233C16.2033 17.9243 16.1843 17.8254 16.1649 17.7266C15.8313 16.0902 15.3661 14.4825 14.7736 12.9191C14.6838 12.6796 14.5917 12.4408 14.4974 12.2026C14.4901 12.1843 14.4828 12.1659 14.4754 12.1482C14.4485 12.0796 14.421 12.0116 14.3931 11.9437C14.361 11.8641 14.3284 11.785 14.2958 11.7049C14.2371 11.5612 14.1773 11.4176 14.1163 11.2742C14.108 11.2547 14.0998 11.2346 14.0912 11.2145C14.0585 11.1376 14.0252 11.0611 13.992 10.9842L13.9815 10.9594C13.9779 10.9511 13.9742 10.9428 13.9708 10.9346C13.4747 9.79115 13.1629 8.49872 13.452 7.26375C13.5665 6.77338 13.7898 6.34467 13.966 5.87869C14.0888 5.60838 14.1744 5.32309 14.2206 5.03039C14.2844 4.61333 14.2167 4.26632 14.016 3.9678C13.8253 3.68759 13.544 3.49603 13.1528 3.38437C13.1226 3.37583 13.0884 3.36693 13.0585 3.36042C12.8908 3.31984 12.719 3.29799 12.5463 3.29528C12.5143 3.29384 12.4803 3.29203 12.4484 3.29261L12.3756 3.29376C11.946 3.28897 11.5242 3.4067 11.1608 3.63281C10.562 4.00963 10.03 4.48106 9.58623 5.02822C9.54451 5.07888 9.50381 5.1299 9.46428 5.1828C9.34335 5.34049 9.23049 5.50405 9.12614 5.67288L9.06322 5.77991L9.04459 5.81153L8.96011 5.95627C8.95447 5.96633 8.94845 5.97668 8.9431 5.98674C8.94031 5.99209 8.93679 5.99795 8.93379 6.00389C8.92814 6.01366 8.92271 6.02459 8.91729 6.03465C8.89008 6.08697 8.86397 6.139 8.83882 6.19248C8.81367 6.24596 8.79181 6.29799 8.76996 6.35061C8.75969 6.3763 8.74987 6.40126 8.74063 6.42601C8.73945 6.42985 8.73799 6.43253 8.73703 6.43549C8.7297 6.45619 8.72237 6.4766 8.71606 6.49607C8.70682 6.52147 8.69868 6.54629 8.69061 6.57082C8.68555 6.58769 8.67983 6.60419 8.67448 6.62148C8.67384 6.62499 8.67294 6.62845 8.67177 6.63183C8.66128 6.66729 8.65138 6.70217 8.64295 6.73705C8.63759 6.75565 8.63341 6.77396 8.62887 6.79292C8.62432 6.81188 8.62051 6.8299 8.61662 6.84821C8.61273 6.86652 8.60848 6.88519 8.60467 6.9035C8.60232 6.91624 8.60019 6.92803 8.59836 6.94077C8.59565 6.95199 8.59447 6.96292 8.59205 6.97355C8.58993 6.98658 8.5878 7.00047 8.58545 7.01408L8.57768 7.07197C8.57585 7.08348 8.57438 7.09622 8.5732 7.10816C8.57203 7.11764 8.57049 7.12741 8.5702 7.13653C8.56785 7.151 8.5669 7.16547 8.56573 7.17995C8.56485 7.18378 8.56514 7.18849 8.56419 7.19297C8.56301 7.20926 8.56206 7.22402 8.56118 7.24023C8.55847 7.27012 8.55634 7.30203 8.55385 7.33337C8.55267 7.35906 8.5512 7.38569 8.55025 7.41297C8.5493 7.42745 8.54901 7.44402 8.54842 7.45907C8.54842 7.46884 8.54754 7.4789 8.54842 7.48889V7.49482C8.54779 7.50181 8.54779 7.50883 8.54842 7.51581C8.54773 7.52131 8.54751 7.52685 8.54776 7.53238C8.54776 7.56046 8.54776 7.58854 8.54776 7.61691C8.54842 7.64325 8.54959 7.66923 8.55018 7.69492C8.55106 7.71026 8.55106 7.7251 8.55289 7.73986C8.55377 7.77149 8.55531 7.80311 8.55795 7.8359C8.55942 7.85334 8.5603 7.87049 8.56242 7.88822C8.56543 7.93048 8.56903 7.97274 8.57475 8.01588C8.5801 8.06704 8.5867 8.11842 8.59418 8.17161C8.59865 8.20295 8.6032 8.23486 8.60885 8.26678C8.61193 8.28538 8.61457 8.30376 8.61816 8.32207C8.62197 8.34486 8.62623 8.36788 8.63011 8.39096C8.63789 8.43735 8.6472 8.4841 8.65739 8.53194C8.66759 8.57977 8.67778 8.6271 8.68797 8.67588C8.70264 8.74028 8.71855 8.80708 8.73615 8.87511C8.74906 8.92627 8.76255 8.97794 8.77685 9.03084C8.78111 9.04857 8.78646 9.06601 8.79093 9.08403C8.80054 9.12022 8.81161 9.1564 8.82181 9.19309L8.85444 9.30454C8.86177 9.32792 8.86786 9.35187 8.87534 9.37459C8.88942 9.4225 8.90467 9.47128 8.92029 9.52092C8.92213 9.52686 8.92389 9.53272 8.92601 9.53807C8.94068 9.5833 8.95535 9.62911 8.97001 9.67463C9.00057 9.76538 9.03252 9.85623 9.06586 9.94717C9.14824 10.1747 9.2391 10.4022 9.33844 10.6297C9.37826 10.7198 9.41911 10.8106 9.46149 10.901C9.50388 10.9914 9.54656 11.0828 9.59122 11.1729C9.68017 11.3539 9.77455 11.5341 9.8737 11.713C9.877 11.7186 9.87942 11.7239 9.88265 11.7292C9.89643 11.7544 9.91051 11.781 9.92371 11.8075C9.94021 11.8398 9.95605 11.8717 9.97189 11.9054L10.0102 11.9817L10.0851 12.1209L10.101 12.1531L10.1466 12.242C10.1477 12.245 10.1487 12.2481 10.1493 12.2512C10.15 12.2539 10.1503 12.2567 10.1505 12.2595C10.1508 12.2639 10.15 12.2684 10.1483 12.2725C10.147 12.2757 10.1458 12.279 10.1447 12.2823C10.1442 12.2823 10.1432 12.2832 10.1414 12.2861L10.1391 12.2905C10.1382 12.2923 10.137 12.2939 10.1355 12.2952C10.1292 12.3022 10.1208 12.3071 10.1115 12.3091C10.1087 12.3099 10.1057 12.3102 10.1028 12.31L9.95151 12.2642L9.94703 12.2625L9.91139 12.2515C9.91139 12.2515 9.88081 12.2403 9.87869 12.2403C9.86761 12.2356 9.85779 12.2321 9.8473 12.2285C9.84253 12.2274 9.8374 12.2258 9.83322 12.2247C9.82904 12.2235 9.8242 12.2232 9.81973 12.2223C9.679 12.1732 9.53908 12.125 9.40253 12.0795C9.38544 12.0742 9.36807 12.068 9.3512 12.0624C9.30053 12.0452 9.24905 12.0286 9.19845 12.0121C9.13105 11.9909 9.06395 11.9699 8.99685 11.9498C8.98131 11.9448 8.96693 11.9403 8.95168 11.9353L8.92235 11.927C8.91215 11.9241 8.90233 11.9208 8.89301 11.9178C8.89126 11.9178 8.88956 11.9172 8.88825 11.916C8.87959 11.9139 8.87028 11.9116 8.86163 11.9092C8.85591 11.9078 8.8496 11.906 8.84424 11.9051C8.83514 11.9021 8.82583 11.8999 8.81638 11.8983C8.64204 11.8442 8.47003 11.7951 8.30033 11.7508C8.25751 11.7396 8.21468 11.7277 8.17273 11.7177C8.13651 11.7077 8.10021 11.6988 8.06398 11.6902C8.01485 11.6775 7.96725 11.6666 7.91929 11.6554C7.88211 11.6465 7.84596 11.6373 7.81025 11.63C7.79558 11.6261 7.77996 11.6232 7.76412 11.6199C7.72129 11.6098 7.67847 11.6004 7.63586 11.5909C7.58167 11.5792 7.52777 11.5682 7.47387 11.5569C6.74985 11.4127 6.19097 11.3497 5.66209 11.3589C5.62433 11.3589 5.58451 11.3619 5.54432 11.3625H5.54256C5.53325 11.3633 5.52459 11.3646 5.51469 11.3652C5.4877 11.3663 5.4605 11.3669 5.43534 11.3673C5.32996 11.3738 5.22568 11.3835 5.12177 11.3945C5.07044 11.4004 5.01757 11.4066 4.96543 11.4128C4.86151 11.4273 4.75819 11.4432 4.65486 11.4616C4.07856 11.5653 3.51756 11.7394 2.98476 11.9797C2.73318 12.0893 2.49444 12.2255 2.27277 12.3861C2.23948 12.4095 2.2078 12.4338 2.17604 12.4585C2.15624 12.4742 2.13593 12.4898 2.11642 12.5064C2.01821 12.5854 1.92489 12.6702 1.83695 12.7603C1.58827 13.0141 1.38039 13.304 1.22051 13.6198C1.01026 14.038 0.870417 14.513 0.782931 15.1231C0.759811 15.2829 0.747903 15.4441 0.747291 15.6055C0.744021 15.9224 0.798186 16.2373 0.907231 16.5354C0.92201 16.5792 0.918987 16.627 0.898797 16.6687C0.894424 16.6781 0.889528 16.6873 0.884131 16.6962C0.881647 16.7006 0.878828 16.7049 0.875697 16.7089L0.848491 16.7494C0.843358 16.7551 0.839471 16.7607 0.834705 16.7669C0.791291 16.8248 0.748171 16.8827 0.710038 16.941L0.688038 16.9718C0.685681 16.9754 0.682844 16.9787 0.679604 16.9815C0.677121 16.9854 0.674325 16.989 0.671244 16.9925C0.581004 17.1095 0.497139 17.2311 0.420005 17.3569C0.173929 17.7567 0.0360323 18.2121 0.0195312 18.6796C0.0195312 18.7142 0.0195312 18.7488 0.0195312 18.7821C0.0218253 18.9441 0.0430364 19.1053 0.0827446 19.2624C0.152315 19.5399 0.273675 19.8021 0.440611 20.0357C0.482938 20.099 0.528742 20.16 0.577817 20.2183C0.57951 20.2196 0.58093 20.2212 0.581998 20.2231C0.608419 20.252 0.625562 20.288 0.631265 20.3266C0.636968 20.3652 0.630976 20.4045 0.614044 20.4397C0.596371 20.4861 0.579284 20.5313 0.56403 20.5777C0.425112 20.9587 0.34886 21.3592 0.338165 21.7639C0.337514 21.7665 0.337315 21.7692 0.337577 21.7719C0.337577 21.7869 0.336697 21.8018 0.337577 21.818C0.336657 21.9343 0.342043 22.0506 0.353711 22.1664C0.409008 22.795 0.689861 23.3834 1.14571 23.8258C1.4531 24.1258 1.80322 24.3798 2.18499 24.5798C2.22594 24.5998 2.25886 24.6328 2.27842 24.6736C2.29405 24.709 2.29956 24.7479 2.29433 24.7862C2.26005 25.1109 2.26811 25.4386 2.31831 25.7613C2.34993 25.9819 2.40398 26.1989 2.47964 26.4089C2.73514 27.1508 3.21298 27.6554 3.93531 27.9503C3.99163 27.9725 4.04825 27.9977 4.10691 28.0174C4.11982 28.0224 4.13294 28.0266 4.14585 28.0319L4.23004 28.0624C4.26803 28.076 4.30579 28.089 4.34415 28.1017C4.34774 28.1025 4.35148 28.1043 4.35588 28.1055C4.48524 28.1487 4.61724 28.1876 4.75188 28.2222C4.78635 28.2314 4.82022 28.2397 4.85454 28.248C4.85931 28.2494 4.86415 28.2504 4.86921 28.2515C4.95604 28.2725 5.0444 28.2917 5.13431 28.3101C5.16607 28.3163 5.19745 28.3222 5.22898 28.3281C5.25348 28.3322 5.27834 28.3366 5.30445 28.3411C5.36099 28.3512 5.41797 28.3607 5.47575 28.3689C5.56287 28.3819 5.65131 28.3934 5.74026 28.4038C5.77018 28.4079 5.79988 28.411 5.8298 28.4139C5.90204 28.4211 5.97361 28.4275 6.04731 28.4337C6.12101 28.4399 6.19464 28.444 6.26929 28.4482C6.31843 28.4514 6.36778 28.4538 6.41904 28.4564C6.44507 28.4573 6.47081 28.4588 6.49692 28.4597C6.52302 28.4605 6.55023 28.4605 6.57759 28.4608C6.59108 28.4614 6.60457 28.4617 6.61865 28.4614C6.63273 28.4611 6.64681 28.462 6.66052 28.462C6.68179 28.462 6.70394 28.4626 6.7255 28.462C6.7915 28.462 6.85999 28.462 6.93252 28.4605C7.29634 28.4568 7.65927 28.4243 8.01785 28.3636C8.02211 28.3629 8.02632 28.362 8.03047 28.3609C8.12448 28.3434 8.21585 28.3269 8.31229 28.3047C8.32878 28.303 8.34668 28.2982 8.36362 28.295C8.39295 28.3022 8.42324 28.3094 8.45529 28.3167C8.55414 28.3391 8.6593 28.3607 8.76952 28.3818C8.82195 28.3927 8.87556 28.4028 8.92983 28.4128C8.95733 28.4178 8.98461 28.4232 9.01335 28.4279C9.0421 28.4326 9.06938 28.4385 9.09871 28.4432C9.10323 28.4444 9.10784 28.4451 9.1125 28.4453C9.16464 28.4545 9.21766 28.4642 9.27068 28.4734C9.29759 28.4778 9.32458 28.4826 9.35186 28.487C9.35993 28.4879 9.36741 28.4894 9.37547 28.4903C9.43927 28.5009 9.50337 28.511 9.569 28.5205C9.60193 28.526 9.63581 28.5314 9.66932 28.5361C9.77353 28.5514 9.87839 28.566 9.98201 28.5802L10.0407 28.5881L10.0727 28.5925C10.0755 28.5926 10.0783 28.5929 10.0811 28.5934C10.0884 28.5943 10.0949 28.5946 10.1021 28.5955C10.464 28.6326 10.8277 28.6488 11.1915 28.644H11.1954C11.2846 28.6422 11.3721 28.6386 11.4594 28.6342C11.5034 28.6321 11.5465 28.6301 11.5894 28.627C12.184 28.5937 12.7701 28.4714 13.3274 28.2643C13.3924 28.2389 13.4568 28.2131 13.52 28.1857C13.6464 28.1307 13.769 28.0711 13.8878 28.0069C14.1832 27.8474 14.4588 27.6546 14.7092 27.4325C14.7117 27.4306 14.714 27.4284 14.7161 27.426C14.7577 27.3888 14.7986 27.3509 14.8389 27.3123C14.8404 27.3108 14.8416 27.3105 14.8425 27.309C14.8617 27.2904 14.8805 27.2721 14.8997 27.2531C14.927 27.2262 14.9539 27.1984 14.9809 27.1701C15.0141 27.1355 15.0462 27.0997 15.0782 27.0637C15.1016 27.0383 15.1237 27.0125 15.1462 26.986C15.1723 26.9558 15.1983 26.9248 15.2226 26.8935C15.2249 26.8914 15.227 26.8891 15.2289 26.8867C15.2477 26.863 15.2669 26.8385 15.2849 26.8143C15.3172 26.7732 15.3487 26.7318 15.3789 26.6892C15.5939 26.3892 15.7767 26.068 15.9244 25.7306C16.8732 23.5912 16.6764 20.6733 16.2999 18.4568M0.904297 17.7879C0.956144 17.6889 1.01188 17.5925 1.07142 17.497C1.10076 17.4509 1.13009 17.4051 1.15942 17.3584C1.16676 17.3457 1.25109 17.2145 1.24742 17.2118C1.43281 17.3649 1.61343 17.5245 1.80395 17.6723C2.3233 18.076 2.92324 18.3371 3.5594 18.515C3.56512 18.5167 3.57136 18.518 3.57708 18.5197C4.40753 18.7631 5.27015 18.8827 6.13641 18.8747L6.32869 18.8717C7.02118 18.8401 7.57023 18.727 8.06053 18.5185C8.16056 18.4709 8.25553 18.4227 8.35555 18.3686L8.39222 18.3465C8.42413 18.3318 8.45861 18.3232 8.49379 18.3214C8.54111 18.3226 8.58658 18.3398 8.62256 18.3701C8.98079 18.6813 9.18114 19.0592 9.20835 19.4957C9.21739 19.6197 9.20862 19.7444 9.18231 19.8661C9.15026 20.0125 9.09846 20.1541 9.02831 20.287C8.84027 20.6619 8.55611 20.9818 8.20405 21.2148C8.20016 21.2172 8.19671 21.2198 8.19202 21.2225C7.93114 21.3759 7.64146 21.4755 7.34047 21.5154C7.04477 21.5501 6.74719 21.5671 6.4494 21.5661C5.33382 21.5882 4.22201 21.4314 3.15739 21.1017C2.91157 21.0262 2.67112 20.9347 2.43762 20.8277H2.43462C2.13288 20.6898 1.84852 20.5176 1.58732 20.3146C1.5379 20.2784 1.48788 20.2398 1.44022 20.1993C1.2966 20.0805 1.1661 19.9471 1.05089 19.8013C1.05065 19.8013 1.05042 19.8013 1.0502 19.8012C1.04997 19.8011 1.04977 19.801 1.0496 19.8008C1.04943 19.8006 1.04929 19.8004 1.0492 19.8002C1.04911 19.8 1.04906 19.7998 1.04906 19.7996C0.915198 19.637 0.811183 19.4527 0.741717 19.2548C0.579724 18.7931 0.632378 18.311 0.904078 17.7881M2.00664 23.731C1.51128 23.3813 1.20247 22.9843 1.06556 22.5197C0.934071 22.0825 0.937298 21.6151 1.07062 21.0855C1.0712 21.0826 1.07238 21.079 1.07304 21.0769C1.0771 21.0573 1.08239 21.038 1.08888 21.019L1.11022 20.9454C1.11612 20.9239 1.12932 20.905 1.14762 20.892L1.14938 20.8911C1.16583 20.879 1.18553 20.872 1.206 20.871C1.22647 20.8699 1.2468 20.8748 1.26444 20.8852C1.35882 20.9399 1.48011 21.0108 1.50372 21.0241C1.67833 21.1254 1.83981 21.2221 2.012 21.3111C2.21494 21.4142 2.42375 21.5055 2.63738 21.5848C3.04571 21.738 3.46607 21.8579 3.89424 21.9433C4.14578 21.9965 4.39981 22.0417 4.65354 22.0781H4.65537C4.76305 22.0852 4.87018 22.0989 4.97613 22.1192C5.08858 22.1319 5.2008 22.1429 5.31281 22.1522C5.52907 22.1706 5.74745 22.186 5.964 22.1842C6.4106 22.1812 6.85567 22.1981 7.3008 22.1431C7.56752 22.1124 7.82999 22.0527 8.08341 21.9651C8.33295 21.8764 8.56502 21.7457 8.7693 21.5788L8.82027 21.5383L8.82386 21.5356C8.83603 21.5268 8.84998 21.5207 8.86476 21.5176C8.87953 21.5146 8.8948 21.5148 8.90952 21.5181C8.92423 21.5214 8.93805 21.5278 8.95005 21.5368C8.96204 21.5459 8.97193 21.5573 8.97903 21.5705L9.03594 21.6787C9.08265 21.7623 9.12394 21.8386 9.16684 21.9243L9.17073 21.9315C9.31636 22.2403 9.37175 22.583 9.33067 22.9211C9.32678 22.948 9.32333 22.9749 9.31754 23.0015C9.24861 23.3475 9.07768 23.6658 8.82621 23.9163C8.67748 24.0707 8.51281 24.2094 8.33487 24.3301C8.33176 24.3327 8.32837 24.335 8.32475 24.3369C8.26367 24.3789 8.19957 24.4193 8.13335 24.4578C7.84486 24.6226 7.53879 24.7554 7.22072 24.8538L7.21947 24.8547C7.19109 24.8632 7.16381 24.8721 7.13507 24.8804C7.06467 24.9005 6.99375 24.9197 6.9224 24.9357C6.68048 24.9904 6.43341 25.0198 6.18525 25.0235C5.89312 25.0275 5.60127 25.0039 5.31368 24.9531C4.88894 24.8748 4.5571 24.8119 4.22219 24.7215C4.15274 24.7024 4.08286 24.6822 4.01106 24.6577C3.8047 24.5977 3.59952 24.5191 3.39851 24.4464L3.28558 24.4053C2.83195 24.2349 2.40218 24.0081 2.00664 23.7305M9.06865 27.3127C9.05185 27.3245 9.03506 27.3354 9.01834 27.3464C8.99707 27.3597 8.97551 27.3733 8.95417 27.386C8.67748 27.5473 8.37491 27.6609 8.05951 27.7218C7.6813 27.7948 7.29713 27.8337 6.91177 27.8379C6.62543 27.8435 6.339 27.8335 6.05376 27.8081C5.49932 27.7633 4.95285 27.6495 4.42738 27.4693C4.35874 27.4448 4.28804 27.4173 4.212 27.3872L4.20899 27.386C4.05781 27.3251 3.91378 27.2482 3.7794 27.1567C3.62956 27.0552 3.49736 26.9304 3.38795 26.7872C3.1635 26.4929 3.01728 26.1479 2.96262 25.7835C2.95551 25.7545 2.95022 25.7251 2.94678 25.6954C2.93064 25.5609 2.92162 25.4309 2.90938 25.2849V25.2837L2.9049 25.2278L2.89918 25.1667L2.89185 25.0916C2.89137 25.0879 2.89117 25.0842 2.89126 25.0804L2.87836 24.9326L3.02092 24.982L3.09425 25.0071C3.13502 25.0196 3.17272 25.0308 3.21224 25.0455C3.32371 25.0905 3.43415 25.1251 3.54445 25.16C3.66994 25.2022 3.79485 25.2421 3.91918 25.2796C4.55448 25.4707 5.2092 25.5921 5.87146 25.6415C5.98527 25.6497 6.09732 25.6521 6.20425 25.6507C6.69956 25.6392 7.18912 25.5431 7.65119 25.3666C7.69109 25.3543 7.73026 25.3398 7.76852 25.3232C7.78891 25.3155 7.81252 25.3087 7.83327 25.2993C8.04738 25.213 8.25514 25.1122 8.45507 24.9975C8.47787 24.9842 8.50156 24.97 8.524 24.9567C8.54644 24.9434 8.56983 24.9286 8.59198 24.9141C8.645 24.8801 8.69619 24.8452 8.74598 24.8095C8.77531 24.7882 8.80465 24.7669 8.83398 24.7451C8.83699 24.7424 8.83999 24.7406 8.84329 24.7378C8.85796 24.7266 8.87329 24.7147 8.88825 24.7029C8.89397 24.698 8.90057 24.6929 8.90717 24.6885C8.92631 24.6734 8.94669 24.6589 8.96466 24.6435C8.97632 24.6341 8.98835 24.6241 8.99913 24.6146C9.04166 24.5788 9.08537 24.5383 9.13061 24.4963C9.14917 24.4786 9.16728 24.4601 9.18781 24.4429C9.19471 24.4372 9.20131 24.4311 9.20695 24.4257C9.21619 24.4185 9.26562 24.3731 9.30845 24.3326C9.31167 24.3295 9.31529 24.3268 9.31923 24.3246L9.32047 24.3237H9.32172L9.3226 24.3229L9.32414 24.3223C9.34306 24.3099 9.36557 24.304 9.38823 24.3054C9.41089 24.3069 9.43245 24.3156 9.44961 24.3302L9.45174 24.3329C9.55827 24.4242 9.65643 24.5246 9.74507 24.633C10.0584 25.0165 10.168 25.4237 10.0764 25.8655C10.0488 25.9975 10.0066 26.1262 9.95055 26.2491C9.7641 26.6788 9.45857 27.0478 9.06909 27.3138M15.2071 25.9544C15.1247 26.1005 15.0343 26.242 14.9363 26.3783C14.2675 27.3026 13.1865 27.8963 12.0481 28.0294C11.2442 28.1234 10.4412 28.0557 9.64717 27.9162C9.60046 27.9079 9.55184 27.9017 9.49926 27.8945C9.48276 27.8933 9.46993 27.8915 9.45225 27.8888H9.44748C9.42681 27.8861 9.40737 27.8823 9.38728 27.8796C9.37995 27.8788 9.3732 27.8775 9.36631 27.8767C9.37313 27.872 9.37709 27.8663 9.38215 27.8628C9.7197 27.6089 10.0153 27.3048 10.2583 26.9615C10.5863 26.4865 10.7897 25.9104 10.7088 25.3311C10.6271 24.7449 10.2676 24.2256 9.83931 23.8263C9.8329 23.82 9.8269 23.8133 9.82134 23.8062L9.73422 23.7108L9.82134 23.4663C9.87145 23.346 9.91096 23.2215 9.93941 23.0945C9.97292 22.8863 9.97967 22.6747 9.9595 22.4649C9.9143 22.0423 9.76722 21.6366 9.53057 21.2817L9.49977 21.2296C9.45551 21.1666 9.42136 21.0972 9.3985 21.0239C9.38053 20.9627 9.38053 20.9189 9.52969 20.6674L9.56863 20.6065C9.67399 20.4434 9.75113 20.2641 9.79692 20.076C9.89183 19.6808 9.87964 19.2679 9.76157 18.8789C9.70029 18.6643 9.60927 18.4591 9.49112 18.2691C9.41638 18.1524 9.33183 18.042 9.23834 17.9392C9.22373 17.9236 9.21432 17.9039 9.21139 17.8828C9.20845 17.8617 9.21212 17.8403 9.22191 17.8213C9.55741 17.1728 9.59481 16.3346 9.19588 15.7009C8.68988 14.897 7.65786 14.4851 6.79429 14.1825C6.60619 14.1166 6.40466 14.0595 6.22434 14.1763C6.17527 14.2071 6.13297 14.2473 6.09994 14.2946C6.06691 14.3418 6.04383 14.3951 6.03206 14.4513L5.99283 14.6186L6.00118 14.6201C6.03499 14.6257 6.16252 14.6467 6.18151 14.6523C6.46214 14.7284 6.73815 14.8202 7.0082 14.9273C7.20107 15.0033 7.3844 15.086 7.56319 15.1767C7.86683 15.325 8.14701 15.5161 8.39493 15.744C8.60816 15.9373 8.74559 16.1986 8.78314 16.482C8.82068 16.7653 8.75594 17.0527 8.60027 17.2937C8.20999 17.9117 7.44505 18.1259 6.75696 18.2108C5.85452 18.322 4.92274 18.2209 4.04362 18.0045C3.05971 17.7627 1.83468 17.2691 1.48964 16.2387C1.19763 15.3659 1.46031 14.334 1.96917 13.5901C2.02578 13.5076 2.08631 13.428 2.15074 13.3512C3.11075 12.2213 4.84494 11.889 6.26702 11.9995C7.07139 12.0753 7.86478 12.2388 8.63268 12.4869C8.93393 12.5791 9.19691 12.6663 9.43773 12.7506L9.84107 12.896L9.89108 12.9164C9.99479 12.9648 10.1074 12.9921 10.222 12.9965C10.2454 12.9965 10.2687 12.9927 10.2924 12.9906C10.3208 12.9864 10.3487 12.9795 10.3757 12.9699C10.403 12.961 10.4294 12.9495 10.4545 12.9356C10.4645 12.9307 10.474 12.9249 10.483 12.9184C11.0365 12.5726 10.6546 11.8295 10.4248 11.4092C10.0812 10.7805 9.79133 10.1246 9.55836 9.44834C9.26092 8.58614 9.0575 7.64738 9.30588 6.77013C9.6042 5.71492 10.5992 4.67687 11.5457 4.13179C11.7927 3.98937 12.0731 3.91315 12.3592 3.91071C12.5479 3.90903 12.736 3.92998 12.9196 3.97309C12.961 3.98163 13.002 3.99169 13.043 4.00261C13.0452 4.00251 13.0473 4.00291 13.0493 4.00377C13.099 4.01934 13.1477 4.03771 13.1952 4.05877C13.3184 4.11285 13.4231 4.20108 13.4965 4.31274C13.57 4.4244 13.6089 4.55469 13.6088 4.6878C13.6537 5.03422 13.4662 5.4232 13.3338 5.73533C12.891 6.76199 12.732 7.88613 12.8728 8.99321C13.0121 10.0286 13.3979 11.0191 13.8415 11.9614C14.2759 12.9067 14.6291 13.8864 14.8975 14.89C15.2308 16.1036 15.5265 17.3081 15.7628 18.5446C16.154 20.8472 16.352 23.9259 15.206 25.9527" fill="#212121"/>
<path d="M2.90863 25.2827L2.89844 25.166L2.90408 25.2269L2.90863 25.2827Z" fill="#212121"/>
</svg>
