<svg width="142" height="38" viewBox="0 0 142 38" fill="none" xmlns="http://www.w3.org/2000/svg">
<g clip-path="url(#clip0_40853_217469)">
<mask id="mask0_40853_217469" style="mask-type:luminance" maskUnits="userSpaceOnUse" x="0" y="0" width="142" height="38">
<path d="M142 0.315796H0V37.6842H142V0.315796Z" fill="white"/>
</mask>
<g mask="url(#mask0_40853_217469)">
<mask id="mask1_40853_217469" style="mask-type:luminance" maskUnits="userSpaceOnUse" x="0" y="0" width="142" height="38">
<path d="M142 0.40918H0V37.6098H142V0.40918Z" fill="white"/>
</mask>
<g mask="url(#mask1_40853_217469)">
<path d="M14.658 10.8192C13.2772 10.9741 11.9895 11.5835 11.0025 12.5491C9.98298 13.5305 9.1749 14.7389 8.57832 16.1744C7.96024 17.695 7.55854 19.2928 7.38466 20.9222C7.18535 22.6222 7.1917 24.3396 7.4036 26.0382C7.59887 27.66 8.02596 29.2463 8.67213 30.7498C9.30627 32.21 10.133 33.3817 11.1524 34.2648C11.7962 34.847 12.5507 35.2974 13.3721 35.5899C14.1327 35.8561 14.9335 35.993 15.7404 35.9947C16.5115 35.9993 17.2768 35.862 17.9969 35.5899C18.6738 35.3416 19.2811 34.9378 19.7686 34.4121V26.9033C19.7686 26.1185 19.5323 25.5481 19.0598 25.192C18.577 24.833 17.9857 24.6451 17.3814 24.6586V24.1064H26.4445V33.9343C25.7818 34.4912 25.0406 34.95 24.244 35.2961C23.3328 35.7036 22.3914 36.042 21.4281 36.3084C20.401 36.5945 19.3536 36.8038 18.2946 36.9344C17.2494 37.0669 16.1968 37.1346 15.143 37.137C13.1381 37.1516 11.1414 36.8852 9.21249 36.3456C7.37242 35.8183 5.7687 34.9964 4.40134 33.88C3.03397 32.7635 1.9584 31.3462 1.17462 29.628C0.391541 27.9116 0 25.8626 0 23.481C0 21.1008 0.416533 19.0518 1.2496 17.3339C2.08267 15.616 3.19544 14.1991 4.58793 13.0832C6.00255 11.9553 7.62318 11.1056 9.36206 10.5799C11.1756 10.0241 13.0588 9.72066 14.9573 9.6783C16.4303 9.66225 17.9004 9.81048 19.3396 10.1202C20.7926 10.4111 22.1899 10.9266 23.4799 11.6476C24.7102 12.3467 25.6611 13.2362 26.3326 14.3163C27.004 15.3964 27.1781 16.6845 26.8549 18.1807C26.7666 18.6454 26.5757 19.0852 26.2958 19.4689C26.0269 19.8323 25.6992 20.1494 25.3257 20.4075C24.9442 20.6692 24.5222 20.868 24.0761 20.9961C23.6348 21.1284 23.1763 21.1967 22.7151 21.1987C22.2341 21.1974 21.7561 21.123 21.298 20.9781C20.8385 20.8384 20.4131 20.6066 20.0484 20.2974C19.6744 19.9739 19.3701 19.5796 19.1533 19.1378C18.9027 18.6186 18.757 18.0561 18.7245 17.4819C19.3706 17.2125 19.8491 16.8506 20.1601 16.3963C20.4665 15.9559 20.6411 15.4392 20.6639 14.9055C20.6845 14.3487 20.5558 13.7964 20.2909 13.3044C20.0042 12.7614 19.6038 12.2848 19.1162 11.906C18.5502 11.4734 17.9038 11.1545 17.2134 10.9674C16.4545 10.7469 15.6028 10.6976 14.6585 10.8197L14.658 10.8192Z" fill="#026A25"/>
<path d="M47.9263 33.6032C47.9263 34.3889 48.0321 34.9226 48.2438 35.2043C48.4555 35.4859 48.8843 35.627 49.5302 35.6275V36.1429H44.3458C43.3262 36.1429 42.6238 35.9773 42.2385 35.6461C41.8533 35.3149 41.6606 34.769 41.6605 34.0085C40.7919 34.8829 39.7597 35.5829 38.621 36.0697C37.5143 36.5691 36.3133 36.8326 35.0963 36.8431C34.476 36.8472 33.8589 36.7539 33.2682 36.5669C32.7075 36.3894 32.1922 36.0944 31.7579 35.7019C31.296 35.271 30.9389 34.7424 30.7135 34.1558C30.4525 33.5182 30.3219 32.7577 30.3218 31.8741V20.9421C30.3277 20.6215 30.3027 20.3011 30.2472 19.9851C30.2083 19.7604 30.0972 19.5541 29.9302 19.3966C29.7387 19.2351 29.507 19.1271 29.259 19.0837C28.8839 19.0149 28.5026 18.984 28.1211 18.9914V18.623L33.0816 17.5927C33.355 17.5439 33.6288 17.4948 33.903 17.4455C34.1735 17.3964 34.448 17.3717 34.7231 17.3715C35.2454 17.3715 35.6807 17.5064 36.0288 17.7764C36.3769 18.0463 36.5633 18.537 36.5879 19.2484V30.9532C36.5879 31.935 36.8054 32.6956 37.2405 33.235C37.4381 33.4933 37.6952 33.7014 37.9904 33.8422C38.2856 33.9831 38.6106 34.0526 38.9384 34.045C39.385 34.0335 39.8238 33.9268 40.2247 33.7321C40.7479 33.4786 41.2214 33.1358 41.6236 32.7194V20.9417C41.6236 20.1564 41.4932 19.635 41.2323 19.3772C40.9705 19.1193 40.3797 18.9905 39.4599 18.9908V18.6226L44.4204 17.592C44.6934 17.5431 44.9669 17.494 45.2409 17.4446C45.5117 17.3959 45.7865 17.3713 46.0618 17.371C46.5364 17.3564 47.0024 17.4988 47.3857 17.7754C47.746 18.0456 47.9262 18.5364 47.9262 19.2478V33.6032H47.9263Z" fill="#026A25"/>
<path d="M98.4916 29.444C98.4664 30.7203 98.1182 31.8368 97.4472 32.7934C96.7661 33.7595 95.8818 34.5694 94.8548 35.1678C93.7369 35.8173 92.5224 36.2892 91.2559 36.5662C89.9104 36.8732 88.5337 37.0276 87.1527 37.0264C85.8046 37.0296 84.4601 36.8877 83.1431 36.6032C81.9152 36.3484 80.7289 35.9271 79.618 35.3513C78.6243 34.8403 77.7432 34.1399 77.0256 33.2905C76.3521 32.4924 75.9421 31.5099 75.8508 30.4751C75.769 29.821 75.8523 29.1571 76.0933 28.5425C76.3156 27.9883 76.6449 27.482 77.0629 27.0517C77.4687 26.6374 77.9579 26.3115 78.499 26.0951C79.031 25.8772 79.6011 25.7645 80.1771 25.7635C80.8634 25.7644 81.5381 25.9372 82.1383 26.2656C82.7385 26.594 83.2444 27.0673 83.6087 27.6413C82.8705 28.1949 82.3337 28.9695 82.0787 29.8492C81.8054 30.7237 81.7991 31.6582 82.0605 32.5362C82.3211 33.4199 82.8556 34.2051 83.664 34.892C84.4713 35.5792 85.584 35.9964 87.002 36.1438C87.7077 36.2256 88.423 36.1438 89.0911 35.9049C89.6708 35.6967 90.2032 35.3775 90.6576 34.9657C91.0747 34.5803 91.4105 34.1175 91.646 33.6039C91.8681 33.1415 92.0008 32.6423 92.0372 32.1318C92.0867 31.126 91.8941 30.2549 91.4593 29.5185C91.0069 28.7635 90.4118 28.1013 89.7061 27.5679C88.9208 26.9717 88.0775 26.4538 87.1886 26.0218C86.2429 25.5559 85.2732 25.102 84.2795 24.66C83.2842 24.2181 82.3082 23.752 81.3513 23.2616C80.4388 22.8014 79.5868 22.2327 78.8143 21.5683C78.0954 20.949 77.4953 20.2071 77.0426 19.3781C76.5953 18.5565 76.384 17.5935 76.4089 16.4889C76.4329 15.2868 76.7126 14.2623 77.2479 13.4153C77.7902 12.5616 78.5321 11.8486 79.4112 11.3361C80.3192 10.7966 81.3822 10.404 82.6004 10.1583C84.6146 9.76861 86.6776 9.68791 88.7168 9.91902C89.4309 9.99979 90.1403 10.1163 90.8424 10.2681C91.4586 10.3994 92.0635 10.5778 92.6516 10.8019C93.1127 10.9746 93.556 11.1902 93.9755 11.446C94.8207 12.0347 95.3741 12.6666 95.6358 13.3416C95.8974 14.0166 95.9472 14.6363 95.7851 15.2008C95.6126 15.7759 95.2559 16.2805 94.7684 16.6388C94.2809 16.9971 93.6889 17.1898 93.0811 17.1881C92.2854 17.1881 91.5145 16.8937 90.7685 16.3048C91.241 15.6184 91.4774 14.9436 91.4776 14.2807C91.4859 13.6477 91.3041 13.0265 90.9552 12.4953C90.5869 11.9506 90.0784 11.5125 89.4819 11.2258C88.8026 10.8961 88.0573 10.72 87.3004 10.7103C86.7652 10.709 86.2322 10.7771 85.715 10.9127C85.2323 11.0361 84.7728 11.2348 84.3537 11.5013C83.9663 11.7488 83.6308 12.0677 83.3655 12.4404C83.1025 12.814 82.9302 13.2423 82.862 13.6922C82.7623 14.5268 82.9054 15.2568 83.2913 15.8824C83.6757 16.5082 84.2349 17.0726 84.9689 17.5757C85.7723 18.1179 86.6208 18.5918 87.5052 18.9925C88.4626 19.4344 89.4448 19.8884 90.4518 20.3543C91.4589 20.8203 92.4535 21.3234 93.4356 21.8635C94.3826 22.3783 95.2598 23.0092 96.0463 23.7412C96.8008 24.4481 97.4197 25.2836 97.8733 26.2075C98.3334 27.1404 98.5387 28.2201 98.4892 29.4466L98.4916 29.444Z" fill="#026A25"/>
<path d="M101.361 9.75143C101.366 9.43097 101.341 9.11069 101.286 8.79489C101.247 8.57026 101.136 8.36394 100.969 8.20634C100.777 8.04493 100.546 7.93692 100.298 7.89347C99.9227 7.8246 99.5416 7.79367 99.1602 7.80117V7.46934L104.121 6.4021C104.394 6.3529 104.668 6.30367 104.942 6.2544C105.2 6.2068 105.462 6.18217 105.725 6.18079C106.271 6.18079 106.713 6.31559 107.049 6.58521C107.385 6.85482 107.553 7.35798 107.552 8.0947V20.0202C108.453 19.1177 109.524 18.3986 110.705 17.9036C111.782 17.4416 112.942 17.1975 114.117 17.1859C114.757 17.1813 115.393 17.2808 116.001 17.4804C116.57 17.6686 117.092 17.9762 117.53 18.382C117.983 18.813 118.339 19.3333 118.574 19.9091C118.835 20.5227 118.966 21.2588 118.966 22.1176V33.6382C118.966 34.4238 119.103 34.9512 119.376 35.2205C119.649 35.4911 120.109 35.6262 120.756 35.6258V36.1779H115.235C114.906 36.1841 114.579 36.1236 114.274 36.0003C113.97 35.8769 113.694 35.6932 113.464 35.4605C112.986 34.9992 112.712 34.3711 112.699 33.7118V23.0383C112.699 22.0814 112.475 21.3269 112.028 20.7749C111.828 20.513 111.569 20.3013 111.271 20.1574C110.972 20.0134 110.644 19.9411 110.312 19.9466C109.851 19.9557 109.398 20.069 108.988 20.2777C108.467 20.5428 107.994 20.891 107.589 21.3083V33.6389C107.589 34.4245 107.72 34.952 107.981 35.2213C108.243 35.4906 108.709 35.6257 109.38 35.6265V36.1787H103.897C103.56 36.1868 103.225 36.1256 102.914 35.9988C102.602 35.8721 102.321 35.6827 102.088 35.4426C101.853 35.2112 101.667 34.9356 101.542 34.6321C101.418 34.3286 101.356 34.0034 101.361 33.6759L101.361 9.75143Z" fill="#026A25"/>
<path d="M131.985 36.6574C129.747 36.6574 127.882 36.173 126.39 35.2041C124.898 34.2352 123.779 33.0268 123.033 31.5789C122.285 30.1191 121.901 28.5035 121.914 26.8674C121.901 25.2312 122.285 23.6156 123.033 22.1558C123.779 20.7084 124.898 19.5 126.39 18.5304C127.881 17.5608 129.734 17.0763 131.947 17.077C134.16 17.077 136.043 17.5616 137.523 18.5304C139.003 19.4992 140.115 20.7083 140.862 22.1556C141.61 23.6164 142 25.2304 141.999 26.8672C142.025 28.5004 141.654 30.116 140.917 31.5787C140.184 33.0267 139.071 34.2351 137.579 35.2039C136.087 36.1727 134.222 36.6571 131.984 36.6572L131.985 36.6574ZM131.798 35.7374C132.643 35.7374 133.346 35.3018 133.906 34.4305C134.466 33.5593 134.895 32.4674 135.192 31.1548C135.5 29.7582 135.656 28.3333 135.658 26.9042C135.68 25.4776 135.548 24.0529 135.267 22.6535C134.993 21.341 134.577 20.249 134.017 19.3778C133.458 18.5066 132.756 18.0707 131.91 18.0703C131.066 18.0703 130.357 18.5059 129.784 19.3771C129.211 20.2484 128.782 21.3403 128.498 22.6529C128.203 24.0508 128.059 25.4757 128.069 26.9035C128.06 28.3305 128.197 29.7547 128.479 31.1542C128.753 32.4671 129.163 33.559 129.71 34.4299C130.257 35.3008 130.954 35.7364 131.8 35.7368L131.798 35.7374Z" fill="#026A25"/>
<path d="M52.4803 27.6395L52.483 27.6277C52.4896 27.5975 52.4973 27.5731 52.5034 27.5529L52.5318 27.4568C52.5376 27.4371 52.5479 27.4191 52.5619 27.4039C52.5759 27.3888 52.5931 27.377 52.6124 27.3694C52.6317 27.3619 52.6525 27.3588 52.6732 27.3604C52.6939 27.362 52.7139 27.3682 52.7318 27.3786C52.8543 27.45 53.0116 27.5415 53.0426 27.5591C53.2703 27.6907 53.4791 27.8159 53.7031 27.9318C53.967 28.0654 54.2383 28.1843 54.5158 28.2879C55.0463 28.4866 55.5924 28.6422 56.1486 28.753C56.475 28.8225 56.8052 28.8808 57.1349 28.9285H57.1369C57.9134 29.0402 58.6977 29.0902 59.4824 29.078C59.5376 29.0769 59.5944 29.0761 59.6521 29.0727C59.702 29.0716 59.7538 29.067 59.8021 29.0662C59.9363 29.0608 60.0672 29.0528 60.1969 29.0418C60.5317 29.0185 60.8534 28.9792 61.1658 28.9297C61.5931 28.8621 61.9979 28.6637 62.4808 28.2803L62.5478 28.2276C62.5635 28.2153 62.5817 28.2065 62.6012 28.202C62.6207 28.1974 62.641 28.1971 62.6606 28.2011C62.6803 28.2052 62.6988 28.2134 62.7148 28.2253C62.7308 28.2372 62.744 28.2524 62.7534 28.2699L62.8277 28.4101C62.8888 28.5188 62.9418 28.618 62.9981 28.7298C62.9996 28.7329 63.0012 28.7358 63.0031 28.7386C63.1923 29.14 63.2641 29.5855 63.2107 30.0249C63.2061 30.06 63.2008 30.0943 63.1937 30.1295C63.1036 30.5787 62.8818 30.9919 62.5557 31.3178C62.035 31.8581 61.3724 32.2466 60.4694 32.5358H60.4677C60.4319 32.5468 60.3954 32.5587 60.3584 32.5698C60.2671 32.5954 60.1748 32.6206 60.0823 32.6416C59.7677 32.7121 59.4467 32.7505 59.1241 32.756C58.7448 32.761 58.3658 32.7302 57.9924 32.6641C57.4402 32.5618 57.0091 32.4801 56.575 32.363C56.484 32.3386 56.3927 32.3126 56.2996 32.281C56.0313 32.2024 55.7649 32.1005 55.5044 32.0062L55.3578 31.9528C54.7684 31.7312 54.21 31.4366 53.6961 31.0759C53.0523 30.6214 52.6508 30.1059 52.4726 29.5023C52.3029 28.9345 52.3067 28.3267 52.48 27.6395" fill="#FFD030"/>
<path d="M54.8325 32.8097C54.8309 32.7914 54.8332 32.773 54.8391 32.7556C54.845 32.7382 54.8544 32.7222 54.8668 32.7085C54.8793 32.6949 54.8944 32.6839 54.9113 32.6762C54.9282 32.6685 54.9465 32.6644 54.9651 32.664C54.981 32.6636 54.9968 32.6661 55.0118 32.6712L55.0937 32.7002C55.1463 32.7166 55.1947 32.7311 55.2461 32.7498C55.3895 32.8078 55.5326 32.8526 55.6746 32.8983C55.837 32.9521 55.9983 33.0033 56.1586 33.052C56.9788 33.299 57.8241 33.4557 58.6792 33.5191C58.8254 33.5294 58.9703 33.5329 59.1084 33.5306C59.7479 33.5159 60.38 33.392 60.9766 33.1643C61.0278 33.1483 61.0781 33.1293 61.1271 33.1074C61.1533 33.0981 61.1839 33.0887 61.2106 33.0769C61.7392 32.871 62.2323 32.5854 62.6722 32.2302C62.6868 32.2176 62.7019 32.2046 62.7167 32.1928C62.7707 32.1467 62.8276 32.0944 62.8864 32.0402C62.9091 32.0169 62.9337 31.9935 62.9602 31.9708C62.9684 31.9635 62.9769 31.9555 62.9846 31.9486C62.9966 31.9387 63.0595 31.8807 63.116 31.828C63.1406 31.8055 63.1727 31.7927 63.2063 31.7921C63.2398 31.7916 63.2724 31.8032 63.2977 31.8249L63.3007 31.8284C63.438 31.946 63.5643 32.0755 63.6782 32.2153V32.2161C64.083 32.7106 64.2249 33.2368 64.1069 33.8064C64.071 33.977 64.0164 34.1432 63.9441 34.3021C63.4747 35.3335 62.6554 35.9707 61.5036 36.2049C61.0153 36.2992 60.5194 36.3494 60.0219 36.3548C59.6522 36.3617 59.2825 36.349 58.9143 36.3166C58.1985 36.2587 57.4931 36.1113 56.8148 35.8782C56.7267 35.8469 56.6342 35.8122 56.5372 35.7729L56.5333 35.7714C56.1162 35.6124 55.7501 35.3455 55.4735 34.9987C55.184 34.6185 54.9953 34.173 54.9244 33.7025C54.914 33.6636 54.9105 33.627 54.9036 33.5885C54.8827 33.4152 54.8715 33.2469 54.8563 33.0588L54.8497 32.9849L54.8325 32.8097Z" fill="#FFD030"/>
<path d="M71.3456 33.5139C71.2493 33.729 71.1429 33.9393 71.0262 34.1445C70.611 34.8721 69.9994 35.4718 69.2595 35.8768C68.9553 36.0441 68.6331 36.1774 68.299 36.2745C68.2929 36.2759 68.2867 36.2779 68.2801 36.2798C67.9772 36.3675 67.5017 36.7797 64.9374 36.7041C64.6629 36.6961 63.2744 36.4846 63.1681 36.4183C63.1671 36.4167 63.1665 36.4148 63.1663 36.4129C63.1662 36.411 63.1665 36.4091 63.1673 36.4073C63.2117 36.331 63.7121 35.9178 63.8153 35.8113C64.4286 35.1771 64.9052 34.3301 64.8756 33.4333C64.8465 32.5614 64.3753 31.7663 63.745 31.1775C63.6981 31.1336 63.5552 31.118 63.5679 31.0176C63.5819 30.9139 63.7133 30.7456 63.7572 30.6285C63.809 30.5005 63.8479 30.3678 63.8732 30.2323C63.9169 29.9639 63.9255 29.691 63.8987 29.4204C63.8413 28.875 63.6517 28.3512 63.3459 27.8934L63.3056 27.8258C63.2905 27.8029 63.2754 27.7804 63.2611 27.7579C63.2196 27.698 63.1903 27.6308 63.1749 27.5599C63.1443 27.4137 63.2186 27.2904 63.3453 27.1005L63.3944 27.0219C63.5311 26.8115 63.6307 26.5798 63.689 26.3366C63.8119 25.8265 63.7963 25.2935 63.6438 24.7912C63.5188 24.34 63.2871 23.9244 62.9679 23.5786C62.9491 23.5584 62.937 23.5329 62.9333 23.5057C62.9295 23.4785 62.9343 23.4508 62.947 23.4263C63.1118 23.1077 63.2211 22.7639 63.2702 22.4095C63.3056 22.0603 63.279 21.7076 63.1918 21.3674C63.133 21.0609 63.0025 20.7721 62.8105 20.5242C62.7086 20.3998 62.5952 20.285 62.4718 20.1812C62.3866 20.1041 62.2974 20.0305 62.2028 19.9584C61.9278 19.7475 61.6362 19.5585 61.3309 19.3933C61.0309 19.223 60.7189 19.0741 60.3975 18.9476C60.246 18.8874 60.0943 18.8302 59.9424 18.7763C59.8256 18.7362 59.7278 18.7016 59.6339 18.6735C59.5768 18.6484 59.5153 18.6347 59.4529 18.6331C59.4286 18.6296 59.4618 18.63 59.434 18.6304C59.4037 18.6297 59.3735 18.6323 59.3438 18.638C59.2756 18.6502 59.2104 18.6748 59.1513 18.7105C59.0159 18.7903 58.9742 18.9223 58.943 19.0757L58.8939 19.2852L58.8923 19.2925L58.8973 19.294C58.919 19.3012 59.0014 19.3287 59.0214 19.3352C59.3839 19.4332 59.7403 19.5517 60.089 19.6902C60.1106 19.6989 60.1326 19.7077 60.1552 19.7172C60.3795 19.8073 60.5949 19.9058 60.806 20.0118C61.1982 20.2036 61.56 20.4508 61.88 20.7455C62.3379 21.1659 62.5684 21.6647 62.4581 22.1681C62.4542 22.1841 62.4508 22.2008 62.4464 22.2173C62.3618 22.5194 62.2051 22.7972 61.9895 23.0273C61.8748 23.1572 61.7431 23.2714 61.5978 23.3669C61.5649 23.3891 61.5309 23.4105 61.4972 23.4303C61.3672 23.5066 61.2311 23.5722 61.0902 23.6265C60.9717 23.6722 60.8457 23.7142 60.71 23.7524C60.5329 23.8009 60.3516 23.8382 60.1704 23.8752L60.0084 23.8947C59.9542 23.9023 59.8997 23.9111 59.8424 23.9187C59.5564 23.9559 59.2684 23.9767 58.9799 23.9809C58.7761 23.9843 58.5801 23.9816 58.3806 23.9694C58.1188 23.9595 57.8555 23.9332 57.5917 23.8992C56.7034 23.8005 55.8331 23.5813 55.0054 23.2479C54.4716 23.0405 53.9832 22.7335 53.5672 22.3436C52.9802 21.7663 52.5637 20.9768 52.674 20.1091C52.7448 19.5868 52.873 19.0737 53.0565 18.5787C53.2045 18.1723 53.3724 17.7786 53.6657 17.452C53.9521 17.1418 54.2965 16.8892 54.68 16.708C55.3949 16.3596 56.1582 15.9948 56.9431 15.8672C57.7604 15.7342 58.5916 15.7049 59.4165 15.7798C60.1025 15.8424 60.8259 16.1644 61.4897 16.3415C61.7233 16.4037 61.9557 16.47 62.1876 16.5392C62.5758 16.6582 62.9161 16.7715 63.2266 16.8791L63.7482 17.068L63.8116 17.0944C63.9457 17.1563 64.0909 17.1912 64.2389 17.1971C64.2694 17.1971 64.3004 17.1922 64.3297 17.1895C64.3665 17.1839 64.4026 17.1751 64.4377 17.1631C64.4427 17.1616 64.4476 17.1597 64.4524 17.1574C64.4886 17.145 64.5233 17.1285 64.5556 17.1082C64.5687 17.102 64.5811 17.0945 64.5927 17.086C64.687 17.0195 64.7664 16.9347 64.8263 16.8368C64.8861 16.7389 64.925 16.63 64.9407 16.5167C64.9675 16.2694 64.9259 16.0195 64.8201 15.7937C64.7973 15.7406 64.7722 15.6864 64.7474 15.6368C64.6395 15.3939 64.5159 15.1604 64.3929 14.9361C64.2819 14.7205 64.1612 14.4985 64.0596 14.2768C63.8267 13.792 63.6202 13.2952 63.4409 12.7888C63.1743 12.0591 62.9966 11.3007 62.9115 10.5296C62.8366 9.83545 62.9764 9.13521 63.3125 8.52101C63.4328 8.30465 63.5642 8.09287 63.7034 7.89108C63.979 7.48913 64.2944 7.11525 64.645 6.77497C64.655 6.7647 64.6654 6.75554 64.6756 6.74517C65.0313 6.40332 65.4184 6.09482 65.832 5.82367C65.8374 5.81984 65.8431 5.8164 65.849 5.81339C65.8869 5.78901 65.9248 5.76528 65.9647 5.74398C66.2798 5.56714 66.6354 5.47233 66.9978 5.46848C67.2414 5.46654 67.4843 5.4937 67.7213 5.54938C67.7742 5.56162 67.8272 5.57339 67.8806 5.58675C67.8821 5.58667 67.8837 5.5869 67.8852 5.58743C67.8866 5.58796 67.888 5.58878 67.8891 5.58983C67.9532 5.609 68.016 5.63231 68.077 5.65962C68.2362 5.7293 68.3714 5.84311 68.4663 5.98722C68.5611 6.13133 68.6115 6.29952 68.6113 6.47136C68.6197 6.51998 68.6194 6.56968 68.6105 6.61821L68.609 6.65558C68.611 6.67999 68.6103 6.70456 68.607 6.72882L68.6035 6.76395L68.6016 6.77273C68.5938 6.82197 68.5861 6.87195 68.5753 6.92221C68.5168 7.19313 68.5068 7.45181 68.3928 7.70517C68.1723 8.24929 67.9812 8.80462 67.8206 9.36881C67.8187 9.37871 67.8163 9.38862 67.8143 9.39899C67.7664 9.63254 67.5939 10.7326 67.6199 11.0712C67.6601 11.5619 67.7504 12.0472 67.8893 12.52C67.9736 12.8134 68.0792 13.1225 68.2121 13.4598L68.3636 13.8166L68.5352 14.1707C68.5948 14.2863 68.6567 14.4042 68.7205 14.5228C68.7669 14.5999 68.8036 14.6705 68.8415 14.7392C68.8415 14.7392 68.9034 14.848 68.9041 14.8494L68.9197 14.8765C68.9974 15.0227 69.0886 15.1764 69.1806 15.3161C69.3647 15.6057 69.3315 15.8907 69.5418 16.1662C69.6635 16.4734 69.7824 16.7817 69.8983 17.0911C70.6538 19.113 71.3498 21.1757 71.7727 23.2954C71.7975 23.4224 71.8219 23.5501 71.8462 23.6784C71.8616 23.7597 71.8763 23.8406 71.8911 23.9226C71.91 24.0275 71.9277 24.1324 71.946 24.237C72.4331 27.1055 72.5657 30.1546 71.5728 32.9477C71.5048 33.1396 71.4293 33.3284 71.3461 33.514" fill="#FFD030"/>
<path d="M52.1353 23.2349C52.2126 23.0792 52.2972 22.9255 52.3874 22.7754C52.3944 22.7648 52.4009 22.754 52.407 22.7438C52.4415 22.6877 52.4744 22.6304 52.5053 22.5732L52.5679 22.4656L52.588 22.4297L52.6877 22.5174L52.6885 22.5182L52.7429 22.5658C52.8241 22.6349 52.8995 22.7016 52.9753 22.7713L53.0727 22.861C53.2128 22.9819 53.3473 23.1021 53.4842 23.2079V23.2086C53.5008 23.222 53.517 23.2346 53.5332 23.2467C54.1012 23.6775 54.7783 24 55.6676 24.2618C56.7612 24.6027 57.9024 24.7712 59.0492 24.7612L59.3025 24.757C60.2173 24.7147 60.9426 24.5578 61.5907 24.2655C61.7221 24.1995 61.8482 24.1324 61.9795 24.0568L62.0283 24.0259C62.07 24.0054 62.1155 23.9934 62.1621 23.9908C62.2252 23.9928 62.2854 24.0172 62.3318 24.0594C62.5596 24.2586 62.7455 24.5002 62.8787 24.7704C63.0119 25.0405 63.0898 25.3339 63.1081 25.6337C63.1198 25.8071 63.1083 25.9812 63.0737 26.1515C63.0324 26.3556 62.9641 26.5535 62.8706 26.74C62.5026 27.4803 61.9868 28 61.3287 28.288C61.1571 28.3601 60.9769 28.4103 60.7924 28.4375C60.7062 28.4509 60.615 28.4624 60.5156 28.4703C60.4418 28.4791 60.3642 28.4825 60.2898 28.486C60.0118 28.512 59.736 28.5215 59.467 28.5261C57.9897 28.5549 56.5183 28.3338 55.1168 27.8721C54.7908 27.7658 54.4726 27.6374 54.1645 27.4879H54.1606C53.7598 27.293 53.384 27.0515 53.0413 26.7685C52.9755 26.7182 52.9094 26.664 52.8464 26.6067C52.6555 26.4395 52.483 26.2529 52.3318 26.05C52.3312 26.05 52.3306 26.0498 52.3302 26.0494C52.3298 26.049 52.3295 26.0484 52.3295 26.0478C52.1511 25.8179 52.0135 25.5599 51.9224 25.2846C51.7078 24.639 51.7763 23.9652 52.1347 23.2345" fill="#FFD030"/>
<path d="M73.2473 11.8455C73.1908 11.8453 73.1363 11.8245 73.0945 11.787C73.0526 11.7496 73.0263 11.6981 73.0207 11.6426C73.015 11.5871 73.0305 11.5315 73.064 11.4866C73.0975 11.4416 73.1467 11.4106 73.2021 11.3994L75.5437 10.9304C75.603 10.9185 75.6647 10.9304 75.7151 10.9634C75.7656 10.9964 75.8007 11.0478 75.8128 11.1063C75.8248 11.1649 75.8128 11.2257 75.7794 11.2756C75.746 11.3254 75.6939 11.36 75.6345 11.3719L73.293 11.8409C73.2779 11.8439 73.2627 11.8454 73.2473 11.8455Z" fill="#212121"/>
<path d="M72.3063 7.16627C72.2537 7.16628 72.2027 7.14835 72.162 7.11551C72.1212 7.08267 72.0932 7.03695 72.0827 6.98608C72.0722 6.93521 72.0798 6.88232 72.1043 6.83637C72.1288 6.79042 72.1686 6.75423 72.217 6.73392L75.84 5.21116C75.8676 5.19956 75.8972 5.19343 75.9272 5.19313C75.9572 5.19282 75.9869 5.19835 76.0147 5.20939C76.0425 5.22043 76.0679 5.23676 76.0893 5.25746C76.1107 5.27816 76.1277 5.30282 76.1395 5.33003C76.1513 5.35725 76.1575 5.38648 76.1578 5.41605C76.1581 5.44563 76.1525 5.47498 76.1413 5.50242C76.1301 5.52987 76.1136 5.55487 76.0926 5.576C76.0716 5.59713 76.0466 5.61397 76.019 5.62557L72.3959 7.14834C72.3676 7.16014 72.3372 7.16624 72.3065 7.16627" fill="#212121"/>
<path d="M69.3843 4.15317C69.3395 4.15316 69.2957 4.14011 69.2583 4.11567C69.221 4.09123 69.1917 4.05647 69.1743 4.01573C69.1568 3.97499 69.1519 3.93008 69.1601 3.88661C69.1684 3.84313 69.1894 3.80302 69.2206 3.77127L70.6661 2.30138C70.6868 2.27942 70.7117 2.26175 70.7394 2.24942C70.7671 2.23709 70.797 2.23034 70.8274 2.22957C70.8578 2.22879 70.888 2.23401 70.9163 2.24492C70.9446 2.25582 70.9704 2.2722 70.9922 2.29307C71.014 2.31395 71.0314 2.33892 71.0433 2.36651C71.0552 2.3941 71.0614 2.42375 71.0615 2.45374C71.0616 2.48372 71.0557 2.51343 71.0441 2.54112C71.0324 2.56881 71.0153 2.59393 70.9936 2.61499L69.5479 4.0846C69.5266 4.10623 69.5011 4.12342 69.473 4.13515C69.4448 4.14688 69.4146 4.15291 69.384 4.15289" fill="#212121"/>
<path d="M58.3863 12.1633C58.3743 12.1634 58.3622 12.1625 58.3503 12.1606L55.9906 11.7921C55.9605 11.788 55.9315 11.7781 55.9053 11.7629C55.8791 11.7477 55.8563 11.7274 55.8381 11.7034C55.82 11.6793 55.8069 11.6519 55.7996 11.6228C55.7923 11.5937 55.791 11.5634 55.7958 11.5338C55.8005 11.5042 55.8112 11.4758 55.8272 11.4503C55.8432 11.4248 55.8642 11.4027 55.8889 11.3853C55.9137 11.3679 55.9418 11.3556 55.9714 11.3491C56.0011 11.3425 56.0318 11.3419 56.0617 11.3472L58.4218 11.7158C58.4786 11.7246 58.5299 11.7542 58.5655 11.7987C58.6012 11.8432 58.6185 11.8993 58.614 11.9559C58.6095 12.0124 58.5835 12.0652 58.5413 12.1037C58.4991 12.1422 58.4437 12.1635 58.3862 12.1634" fill="#212121"/>
<path d="M59.1216 7.44791C59.0942 7.44799 59.0671 7.44308 59.0415 7.43343L55.3548 6.06705C55.2982 6.04599 55.2523 6.00358 55.2274 5.94916C55.2024 5.89473 55.2003 5.83275 55.2217 5.77684C55.243 5.72093 55.286 5.67568 55.3411 5.65103C55.3963 5.62639 55.4591 5.62438 55.5158 5.64544L59.2021 7.01182C59.2521 7.03036 59.294 7.06565 59.3203 7.11152C59.3467 7.15739 59.3559 7.21094 59.3464 7.26284C59.3369 7.31473 59.3092 7.36168 59.2682 7.3955C59.2272 7.42932 59.1754 7.44787 59.122 7.44791" fill="#212121"/>
<path d="M61.9024 4.31298C61.8442 4.31303 61.7881 4.29103 61.7459 4.25151L60.2371 2.84468C60.2142 2.82465 60.1956 2.80028 60.1824 2.77302C60.1692 2.74575 60.1617 2.71615 60.1604 2.68597C60.159 2.65579 60.1638 2.62565 60.1745 2.59734C60.1852 2.56904 60.2016 2.54315 60.2226 2.52121C60.2437 2.49927 60.269 2.48173 60.297 2.46964C60.3251 2.45755 60.3553 2.45115 60.3859 2.45082C60.4165 2.45049 60.4469 2.45625 60.4752 2.46774C60.5035 2.47923 60.5292 2.49622 60.5507 2.51771L62.059 3.92453C62.0923 3.95546 62.1154 3.99553 62.1253 4.03955C62.1352 4.08357 62.1314 4.12951 62.1146 4.17141C62.0977 4.21332 62.0684 4.24925 62.0306 4.27456C61.9928 4.29987 61.9482 4.31338 61.9025 4.31335" fill="#212121"/>
<path d="M65.7539 3.48201C65.6941 3.48192 65.6367 3.4587 65.594 3.41732C65.5514 3.37594 65.5269 3.31971 65.5258 3.2607L65.4805 0.638553C65.4795 0.578841 65.5025 0.521171 65.5446 0.47823C65.5866 0.435289 65.6443 0.410594 65.7048 0.409579C65.7653 0.408563 65.8237 0.431309 65.8672 0.472813C65.9107 0.514318 65.9358 0.571181 65.9368 0.630893L65.982 3.25304C65.9826 3.28261 65.9772 3.31199 65.9662 3.3395C65.9552 3.36702 65.9388 3.39213 65.918 3.41339C65.8972 3.43466 65.8723 3.45167 65.8448 3.46344C65.8173 3.47521 65.7877 3.48152 65.7578 3.48201H65.7539Z" fill="#212121"/>
<path d="M69.2539 19.6127C70.2361 21.8735 70.7635 24.237 70.6587 26.7033C70.4599 25.5114 70.3179 24.3174 70.0736 23.1364C69.8412 21.9536 69.4948 20.7974 69.2539 19.6127Z" fill="#212121"/>
<path d="M69.6321 31.3019C69.8861 32.118 69.8668 33.1372 69.4972 33.9293C69.3497 34.1984 69.1603 34.4429 68.9358 34.6539C68.7212 34.8673 68.4835 35.0568 68.2271 35.219C67.4643 35.6986 66.5626 35.9093 65.6836 36.029C66.7771 35.6471 67.9042 35.2838 68.7224 34.4425C68.9262 34.2527 69.1018 34.0355 69.244 33.7972C69.3725 33.55 69.4652 33.2862 69.5193 33.0135C69.6498 32.4526 69.688 31.8746 69.6322 31.3018" fill="#212121"/>
<path d="M60.3633 25.6193C60.5399 25.532 60.7627 25.6391 60.8783 25.7868C61.0739 26.0356 61.1582 26.5607 61.0159 26.8476C60.9332 27.0223 60.6996 27.1653 60.521 27.0625C60.9239 26.9812 60.789 26.4516 60.7449 26.175C60.7315 26.0578 60.6966 25.944 60.6417 25.8393C60.6129 25.7881 60.5747 25.7427 60.5291 25.7053C60.5052 25.6866 60.395 25.6037 60.3633 25.6193Z" fill="#212121"/>
<path d="M60.3633 30.2357C60.5399 30.1483 60.7627 30.2555 60.8783 30.4032C61.0739 30.652 61.1582 31.177 61.0159 31.4639C60.9332 31.6387 60.6996 31.7815 60.521 31.6787C60.9239 31.5975 60.789 31.0679 60.7449 30.7912C60.7315 30.6741 60.6965 30.5603 60.6417 30.4555C60.6128 30.4044 60.5747 30.359 60.5291 30.3215C60.5052 30.3028 60.395 30.2201 60.3633 30.2357Z" fill="#212121"/>
<path d="M59.4744 22.3392C58.6842 22.878 57.6804 23.3549 56.7068 23.0257C56.4422 22.9207 56.1937 22.78 55.9684 22.6074C55.6342 22.3747 55.2782 22.2014 54.9359 21.9653C54.4874 21.6607 54.0489 21.18 54.0628 20.6149C54.1226 20.8724 54.2537 21.1085 54.4415 21.2968C54.9058 21.7882 55.5791 21.9882 56.1354 22.3637C57.2324 23.2292 58.2929 22.8021 59.4745 22.3393" fill="#212121"/>
<path d="M71.9234 24.4684C71.5049 22.0719 70.8755 19.716 70.0424 17.4274C69.9218 17.1004 69.8057 16.797 69.6944 16.5212C69.6849 16.4983 68.9667 14.711 68.6968 14.1341C68.6802 14.096 68.662 14.0605 68.6457 14.022C67.5186 11.0763 68.0201 9.54317 68.1884 9.16239C68.2301 9.06738 68.2703 8.97162 68.3101 8.87587C68.35 8.78245 68.3917 8.69155 68.435 8.60074C68.485 8.50677 68.5284 8.4095 68.5649 8.30964C68.5826 8.26956 68.5992 8.23107 68.6159 8.19062C68.7464 7.89129 68.836 7.57616 68.8823 7.25352C68.9591 6.76324 68.8799 6.36826 68.6533 6.03176C68.4905 5.79207 68.2618 5.60319 67.994 5.4873C67.9414 5.46288 67.8864 5.44 67.8289 5.41863C67.774 5.39799 67.7164 5.37893 67.6565 5.36258C67.3806 5.28578 67.0949 5.24825 66.8082 5.25113L66.7165 5.25262C66.496 5.25541 66.2782 5.3005 66.0751 5.38538L66.0724 5.38612C65.8338 5.49778 65.6052 5.62926 65.3892 5.77915C65.3532 5.80203 65.3176 5.82417 65.2825 5.84856C65.2801 5.84931 65.2794 5.85089 65.2781 5.85164C64.2869 6.49669 63.4506 7.34771 62.8276 8.34514L62.6155 8.70911C62.3737 9.13174 62.2148 9.59553 62.1469 10.0762V10.0839C62.138 10.1469 62.1319 10.2106 62.1261 10.2747C62.0868 10.8771 62.1422 11.4819 62.2903 12.0676C62.3685 12.4163 62.4729 12.7808 62.5912 13.1642C62.9031 14.1243 63.308 15.0526 63.8002 15.9363C63.8536 16.0336 63.9003 16.1336 63.9529 16.2392C63.9618 16.2553 63.9694 16.2713 63.9776 16.2881C64.0085 16.3476 64.041 16.4075 64.0712 16.4656L64.1536 16.6232C64.1769 16.6709 64.1856 16.7243 64.1786 16.7769C64.1716 16.8294 64.1493 16.8788 64.1143 16.919C64.0792 16.9592 64.0331 16.9884 63.9815 17.0031C63.9299 17.0178 63.8751 17.0173 63.8238 17.0017L63.7352 16.9743L63.6479 16.9472L63.5868 16.9243C63.5496 16.9144 63.5205 16.9018 63.4952 16.8968C63.4692 16.888 63.4429 16.8781 63.4163 16.8697L63.4136 16.869C62.9419 16.7026 62.5003 16.5557 62.0661 16.4309H62.0579C61.5047 16.2707 60.9787 16.1413 60.4727 16.0394C60.3246 16.0096 60.1804 15.9833 60.0447 15.9574C59.8328 15.92 59.6321 15.8883 59.4403 15.8639C59.0235 15.807 58.6029 15.781 58.1821 15.7861C58.0854 15.7876 57.9838 15.7955 57.8871 15.7972C56.8212 15.8682 55.7771 16.1292 54.8054 16.5675C53.4163 17.1868 52.5122 18.3892 52.1731 19.8448C51.995 20.6087 51.9258 21.2784 52.2359 22.188C52.2506 22.2286 52.259 22.2712 52.2606 22.3143C52.2612 22.3643 52.254 22.4142 52.239 22.462C52.2237 22.5124 52.2008 22.5603 52.171 22.6039C52.104 22.7016 52.0268 22.8001 51.9611 22.8958C51.9513 22.9113 51.9406 22.926 51.9289 22.9401C51.7081 23.1649 51.5364 23.5243 51.4073 23.812C51.2585 24.1377 51.1627 24.4845 51.1233 24.8397C51.0619 25.5615 51.2847 26.2789 51.7454 26.8429C51.7476 26.8463 51.7502 26.8495 51.7532 26.8522C51.7621 26.8629 51.769 26.872 51.7791 26.8843C51.802 26.9119 51.8223 26.9416 51.8398 26.9728C51.8734 27.0341 51.8925 27.102 51.8957 27.1716C51.8988 27.2412 51.8859 27.3106 51.858 27.3745C51.7647 27.6173 51.6876 27.8658 51.6273 28.1185C51.5947 28.2628 51.5689 28.4059 51.5507 28.5483L51.5499 28.5514C51.5478 28.5589 51.547 28.5668 51.5476 28.5746C51.5071 28.8841 51.5028 29.1971 51.5349 29.5075C51.5992 30.2705 51.9392 30.9854 52.4929 31.5217C52.8766 31.8959 53.3139 32.2124 53.7909 32.4611C53.8968 32.5191 53.9602 32.6279 53.9811 32.8161C53.9877 32.8542 53.9885 32.8931 53.9834 32.9314C53.8349 34.3558 54.3484 35.8485 55.6549 36.6074C55.9111 36.7542 56.1817 36.8752 56.4626 36.9684C57.9807 37.4632 59.5982 37.5848 61.1747 37.3229C61.339 37.2961 61.704 37.2201 61.7605 37.208C62.0041 37.2611 62.2504 37.3027 62.4956 37.3457C64.1062 37.63 65.7957 37.7617 67.4013 37.34C68.1448 37.152 68.8454 36.8263 69.4659 36.3804C70.3463 35.7352 71.0009 34.8438 71.4386 33.8581C72.6634 31.0967 72.409 27.3294 71.9234 24.4684ZM51.8098 26.2416C51.8074 26.2416 51.8074 26.2378 51.8074 26.2378C51.7313 26.1109 51.6693 25.9762 51.6226 25.8361C51.599 25.7674 51.5782 25.6995 51.5607 25.6306L51.5599 25.6267C51.4114 25.0395 51.5066 24.4363 51.8439 23.7826C51.9247 23.6285 52.0136 23.4778 52.1015 23.3388C52.1428 23.2782 52.1757 23.2195 52.2105 23.1622L52.2573 23.0828L52.422 22.8168L52.5372 22.9114L52.5438 22.9175L52.7332 23.0747C52.8249 23.1518 52.9099 23.2179 52.9958 23.2937C53.0607 23.3487 53.1233 23.3998 53.1867 23.4552L53.189 23.4579C53.2606 23.5139 53.3298 23.5693 53.399 23.6242C53.4407 23.6567 53.481 23.6887 53.5231 23.7177C53.5292 23.7215 53.5347 23.7253 53.5409 23.7295C54.0724 24.1069 54.7104 24.3896 55.5406 24.6205C56.593 24.9285 57.6861 25.0801 58.7838 25.0703L59.0321 25.0661C60.7113 24.9936 61.7089 24.4453 61.8526 24.3748C61.9662 24.3187 62.0336 24.3655 62.1944 24.5438C62.651 25.0505 62.9036 25.4137 62.9596 26.0033C62.9613 26.0201 62.9627 26.0368 62.9643 26.054V26.0655C62.9838 26.4587 62.8955 26.8498 62.7087 27.1976C62.3414 27.894 61.8294 28.3923 61.1853 28.683H61.1833C61.1532 28.6975 61.1233 28.7101 61.0932 28.7231C60.9796 28.7706 60.8619 28.8078 60.7414 28.8342C60.6555 28.854 60.5639 28.8715 60.4642 28.8856H60.4599C60.3875 28.8963 60.3126 28.9051 60.2327 28.9112C60.1967 28.9147 60.1577 28.9177 60.1202 28.9185C59.8893 28.9392 59.6594 28.9513 59.4316 28.959H59.4257C59.3484 28.9608 59.2719 28.9632 59.1961 28.9643C58.7569 28.9716 58.3214 28.9586 57.8897 28.9253C56.8677 28.8502 55.8579 28.6595 54.88 28.3571C54.6154 28.2741 54.3554 28.1774 54.101 28.0675C53.5524 27.8382 53.0426 27.5275 52.5892 27.146C52.5408 27.1056 52.4934 27.0648 52.45 27.0224C52.4436 27.0174 52.4375 27.0119 52.4319 27.006C52.3288 26.9119 52.2312 26.8121 52.1395 26.7071C52.0545 26.6096 51.9762 26.5066 51.9052 26.3988C51.8712 26.3473 51.8397 26.2948 51.8106 26.2415M53.3323 31.7178C52.8788 31.4137 52.5046 31.008 52.2405 30.5338L52.2367 30.5288C52.154 30.3743 52.087 30.2121 52.0367 30.0446C51.8828 29.5074 51.8619 28.9416 51.9757 28.3947C51.9935 28.285 52.0168 28.1762 52.0457 28.0688C52.0564 28.0204 52.0731 27.9754 52.0855 27.9338L52.0967 27.8922L52.1192 27.8129L52.2157 27.4912L52.2224 27.4687L52.2339 27.4752L52.304 27.5164L52.4815 27.6201L52.4941 27.6274L52.6032 27.6915C53.7047 28.3322 54.8798 28.8706 56.1388 29.1227C57.1285 29.3185 58.136 29.4132 59.1454 29.4055C60.1662 29.3998 61.1955 29.3742 62.1382 28.7095L62.4885 28.4622C62.494 28.4584 62.5003 28.4556 62.507 28.4543C62.5136 28.4529 62.5205 28.4529 62.5272 28.4543C62.5338 28.4557 62.5401 28.4585 62.5456 28.4624C62.5511 28.4663 62.5558 28.4713 62.5592 28.4771C62.5601 28.4786 62.5642 28.4864 62.5651 28.4885C62.7715 28.9369 63.0195 29.2982 63.1009 29.7977C63.114 29.8786 63.1284 29.9583 63.135 30.0406C63.137 30.0608 63.1386 30.0814 63.1392 30.1012C63.1467 30.245 63.1404 30.3891 63.1203 30.5316C63.0439 31.062 62.7941 31.5533 62.409 31.9308C62.0874 32.2677 61.7115 32.5498 61.2965 32.7657C61.1096 32.864 60.9174 32.9521 60.7208 33.0297L60.7173 33.0312C60.5464 33.0976 60.367 33.1613 60.1763 33.2189C60.1646 33.2245 60.1524 33.2291 60.1399 33.2326C59.7218 33.3545 59.2889 33.4202 58.853 33.4279C58.463 33.4331 58.0734 33.401 57.6896 33.3322C57.1564 33.2353 56.7098 33.146 56.2629 33.0315C56.1972 33.0117 56.1304 32.9952 56.063 32.9727C55.7196 32.8678 55.3814 32.7415 55.0589 32.6255L55.028 32.6136C54.4267 32.3863 53.8568 32.0853 53.3317 31.7177M62.4424 36.5019C62.317 36.5701 62.1876 36.631 62.0549 36.6842C61.8152 36.7809 61.5666 36.8545 61.3125 36.9041C60.8116 37.0024 60.3026 37.0549 59.7919 37.0609C59.4147 37.0667 59.0375 37.0531 58.6618 37.0201C57.9275 36.9624 57.2039 36.8106 56.5092 36.5687C56.4559 36.55 56.4009 36.5306 56.3434 36.5095C56.2023 36.4562 56.0644 36.3949 55.9305 36.326C55.7844 36.2511 55.6454 36.1636 55.5151 36.0644C55.3464 35.9389 55.1964 35.7907 55.0694 35.6241C54.7575 35.2071 54.5546 34.7206 54.4786 34.2077C54.4728 34.1788 54.467 34.1486 54.462 34.1166C54.4411 33.9342 54.426 33.7609 54.4101 33.5709C54.4036 33.4904 54.3954 33.4068 54.3897 33.3232L54.3509 32.8829L54.3428 32.7902L54.8435 32.9699L54.85 32.9722C54.8539 32.9732 54.8578 32.9743 54.8616 32.9757C54.8767 32.9803 54.891 32.985 54.9053 32.9906C54.9667 33.0131 55.0243 33.0291 55.0858 33.052C55.2316 33.1093 55.3708 33.1516 55.5078 33.197C55.6751 33.2539 55.8383 33.3058 56.0033 33.3504C56.8037 33.5918 57.6287 33.7448 58.4633 33.8068C58.5994 33.8161 58.7393 33.8198 58.8716 33.8174C59.3217 33.8091 59.7689 33.7428 60.2016 33.6201C60.3756 33.5716 60.5519 33.5121 60.7341 33.4438C60.7882 33.4236 60.8451 33.4026 60.8985 33.3809C61.4231 33.1765 61.9111 32.8905 62.3441 32.5338C62.4315 32.4591 62.5145 32.375 62.6097 32.2896C62.6348 32.2686 62.6592 32.245 62.684 32.2209C62.7661 32.1263 62.8403 32.0252 62.9059 31.9187L62.9153 31.9046L62.9211 31.9099L62.9296 31.9176L63.2089 32.1668C63.3195 32.2627 63.4236 32.3656 63.5205 32.4751C63.5558 32.5159 63.5897 32.5575 63.623 32.5986C63.8969 32.9244 64.0676 33.3225 64.1137 33.7433C64.1156 33.7613 64.1179 33.7788 64.1186 33.7971C64.137 34.1707 64.0629 34.543 63.9029 34.882C63.6888 35.3737 63.3626 35.81 62.9498 36.1572C62.8265 36.2593 62.6953 36.3518 62.5574 36.4338C62.5195 36.4574 62.4804 36.4805 62.4421 36.5017M70.512 34.1463C70.4058 34.3351 70.2889 34.5178 70.1617 34.6934C69.2376 35.9721 67.8584 36.7047 66.0478 36.8825C66.0025 36.8882 65.9569 36.8918 65.9085 36.8958C64.8251 36.9832 64.1343 36.9294 62.8745 36.8058C63.3593 36.4749 63.773 36.0526 64.0917 35.5633C64.434 35.0435 64.5929 34.4268 64.5436 33.8088C64.5092 33.349 64.2768 32.9098 64.0236 32.526C63.8926 32.3285 63.743 32.1437 63.5766 31.9742C63.4192 31.8132 63.2386 31.6758 63.2742 31.4244C63.3103 31.1775 63.4446 30.9486 63.4885 30.6937C63.5296 30.4428 63.5374 30.1876 63.5116 29.9347C63.457 29.4235 63.2797 28.9324 62.9943 28.5023C62.8995 28.3796 62.8294 28.24 62.7878 28.0913C62.7368 27.8249 62.907 27.6155 63.0418 27.4037C63.1642 27.2133 63.2538 27.0041 63.3069 26.7848C63.422 26.309 63.4066 25.8115 63.2621 25.3436C63.1907 25.0848 63.0821 24.8374 62.9396 24.6091C62.9245 24.5855 62.7652 24.3718 62.6337 24.218C62.5405 24.1157 62.4621 24.0421 62.4428 24.0723C62.503 23.9753 62.5587 23.877 62.6086 23.777C62.6438 23.7056 62.6749 23.6339 62.7039 23.5603L62.7015 23.5595H62.7045C62.711 23.5427 62.7181 23.5263 62.7234 23.5095L62.725 23.5064C62.8013 23.3041 62.8553 23.0943 62.8859 22.8805C62.9175 22.5545 62.8914 22.2255 62.8089 21.9083C62.7586 21.6327 62.6428 21.3727 62.4711 21.1497C62.3768 21.0371 62.273 20.9326 62.1609 20.8372C62.0757 20.7601 61.9901 20.6903 61.8983 20.6205C61.6302 20.4175 61.3478 20.2336 61.0531 20.0702C60.8273 19.9436 60.5946 19.8272 60.3549 19.7211C60.2861 19.6931 60.2149 19.6651 60.1449 19.6356C60.1132 19.623 60.0811 19.6116 60.0483 19.599C59.9242 19.5509 59.7993 19.5063 59.6724 19.4609C59.5758 19.4266 59.3677 19.2095 59.271 19.182C59.2334 19.163 59.1916 19.1532 59.1493 19.1534C59.1088 19.1485 59.0678 19.1492 59.0275 19.1553C59.009 19.159 58.9909 19.1642 58.9733 19.1709C58.9657 19.1731 58.9585 19.1762 58.9516 19.1802C58.85 19.2256 58.7684 19.4301 58.7452 19.5412V19.5465C59.0734 19.6339 59.4941 19.8037 59.7865 19.9117C60.1074 20.0312 60.4217 20.1673 60.728 20.3196C60.8312 20.3734 60.9321 20.4276 61.0287 20.4852C61.3248 20.6553 61.6004 20.858 61.8503 21.0893C62.1744 21.3672 62.3883 21.7493 62.4542 22.168C62.457 22.181 62.4577 22.194 62.4592 22.2073C62.5134 22.6908 62.3293 23.196 61.9129 23.6607C61.8227 23.7633 61.7227 23.8571 61.6144 23.9409C61.297 24.176 60.9353 24.3461 60.5504 24.4412C60.5441 24.4426 60.538 24.4448 60.5322 24.4477C60.3547 24.4988 60.1687 24.5373 59.9855 24.5767C59.8939 24.5889 59.798 24.608 59.6947 24.6221C59.4004 24.6591 59.1043 24.68 58.8077 24.6847C58.3339 24.6927 57.8602 24.6648 57.3907 24.6012C56.5913 24.5114 55.8057 24.3273 55.0507 24.0529C55.0465 24.0529 55.0441 24.0494 55.0379 24.0479C54.9413 24.0135 54.8438 23.9765 54.7491 23.9358C54.3415 23.773 53.9572 23.5586 53.6057 23.2978C53.5625 23.2647 53.52 23.2307 53.4789 23.1971C53.3946 23.1285 53.3164 23.0609 53.2431 22.9892C53.1846 22.9315 53.1305 22.8744 53.0783 22.8144C52.7653 22.4626 52.556 22.0328 52.4732 21.5719C52.445 21.4044 52.4308 21.2349 52.4307 21.0652C52.4299 20.9218 52.4385 20.7785 52.4566 20.6363C52.5192 20.1138 52.6437 19.6004 52.8275 19.1066C53.0702 18.4866 53.4719 17.9395 53.9933 17.5187C54.0033 17.5099 54.013 17.5023 54.0241 17.4935C54.2272 17.3329 54.4443 17.1905 54.673 17.0681C55.1637 16.8136 55.6828 16.6162 56.2197 16.4801C56.5015 16.4045 56.7771 16.3439 57.0354 16.2904C57.2637 16.2448 57.4944 16.2122 57.7265 16.1927C58.5648 16.1402 59.4064 16.2006 60.2282 16.3721C60.4064 16.4049 60.5847 16.4404 60.7614 16.4819C60.7656 16.4819 60.7656 16.4819 60.7679 16.4858C61.2072 16.5842 61.6483 16.71 62.0729 16.836C62.4224 16.9432 62.7734 17.0539 63.1215 17.1802C63.2982 17.2416 63.4694 17.3038 63.6431 17.3687C63.7946 17.4214 63.9513 17.5026 64.1191 17.4767C64.2055 17.4598 64.2861 17.4216 64.3535 17.3657C64.4209 17.3098 64.4729 17.238 64.5046 17.1569L64.5066 17.1523C64.5304 17.0981 64.5467 17.041 64.5549 16.9825C64.5701 16.849 64.5591 16.7138 64.5223 16.5845C64.5028 16.5112 64.478 16.4394 64.4481 16.3696C64.2297 15.8511 63.9258 15.3696 63.6908 14.8568C63.4542 14.3666 63.2445 13.8642 63.0624 13.3519C62.7918 12.6057 62.6114 11.8306 62.5249 11.0427C62.4474 10.3074 62.5959 9.56606 62.9509 8.9151C63.0734 8.69342 63.2092 8.4778 63.3542 8.26798C63.733 7.71329 64.1847 7.21066 64.6974 6.77324C64.7132 6.76025 64.7291 6.74689 64.7448 6.73354C64.9763 6.5424 65.2181 6.36452 65.4661 6.19403C65.7423 6.00364 66.0078 5.80484 66.3346 5.70824C66.7162 5.59613 67.0905 5.62967 67.4722 5.71814C67.7658 5.77722 68.034 5.92326 68.2413 6.13676C68.3435 6.25821 68.4203 6.3984 68.4675 6.54927C68.5146 6.70013 68.531 6.8587 68.5158 7.01585C68.4809 7.4414 68.3632 7.85633 68.1693 8.23799C68.1504 8.28573 68.1268 8.33982 68.1031 8.38868C68.0559 8.48633 68.0116 8.58349 67.9701 8.68015C67.9492 8.72826 67.9291 8.77628 67.91 8.82402C67.9016 8.8442 67.8939 8.86522 67.8865 8.88502C67.8563 8.94192 67.4732 9.68742 67.4434 11.0325C67.4407 11.1198 67.4407 11.2106 67.4414 11.3034C67.4659 12.2997 67.6455 13.2864 67.9738 14.2289C68.1551 14.768 68.3705 15.2953 68.6188 15.8077C69.3148 17.2527 70.5845 20.7814 71.2307 24.5818C71.7356 27.5538 71.9905 31.529 70.5112 34.145M62.6906 23.5631L62.6929 23.5623L62.6906 23.5638V23.5631Z" fill="#FF8A00"/>
<path d="M72.156 24.2342C72.1386 24.1296 72.12 24.0251 72.1015 23.9198C72.0864 23.8382 72.0718 23.7569 72.0563 23.676C72.0324 23.5482 72.0079 23.4205 71.9828 23.2929C71.5522 21.1804 70.9516 19.1051 70.1868 17.0868C70.0708 16.7777 69.952 16.4694 69.8303 16.1619C69.8208 16.1383 69.8114 16.1146 69.8019 16.0917C69.7671 16.0031 69.7316 15.9154 69.6956 15.8277C69.6542 15.7249 69.6121 15.6228 69.57 15.5194C69.4942 15.3339 69.417 15.1486 69.3383 14.9634C69.3275 14.9382 69.317 14.9123 69.3058 14.8864C69.2637 14.7871 69.2206 14.6883 69.1778 14.5891L69.1643 14.5571C69.1597 14.5464 69.1548 14.5357 69.1504 14.525C68.5101 13.049 68.1075 11.3805 68.4807 9.78632C68.6285 9.1533 68.9168 8.59987 69.1442 7.99833C69.3028 7.64939 69.4133 7.2811 69.4729 6.90325C69.5553 6.36487 69.4679 5.91691 69.2088 5.53155C68.9627 5.16983 68.5994 4.92254 68.0945 4.77839C68.0555 4.76737 68.0114 4.75588 67.9727 4.74747C67.7562 4.69509 67.5345 4.66688 67.3116 4.66339C67.2702 4.66152 67.2264 4.65919 67.1851 4.65993L67.0912 4.66143C66.5367 4.65524 65.9921 4.80722 65.523 5.09911C64.75 5.58555 64.0633 6.19411 63.4904 6.90045C63.4365 6.96584 63.384 7.03171 63.3329 7.1C63.1768 7.30356 63.0311 7.51471 62.8964 7.73264L62.8152 7.87081L62.7912 7.91164L62.6821 8.09848C62.6748 8.11147 62.6671 8.12483 62.6601 8.13781C62.6565 8.14472 62.652 8.15229 62.6481 8.15995C62.6408 8.17256 62.6338 8.18667 62.6268 8.19966C62.5917 8.2672 62.558 8.33437 62.5255 8.40341C62.4931 8.47245 62.4648 8.53962 62.4366 8.60753C62.4234 8.6407 62.4107 8.67293 62.3988 8.70488C62.3973 8.70983 62.3954 8.71329 62.3941 8.71712C62.3847 8.74383 62.3752 8.77018 62.3671 8.79531C62.3551 8.8281 62.3446 8.86014 62.3342 8.89181C62.3277 8.91358 62.3203 8.93488 62.3134 8.95721C62.3126 8.96174 62.3114 8.96621 62.3099 8.97057C62.2963 9.01634 62.2836 9.06137 62.2727 9.1064C62.2658 9.13041 62.2604 9.15405 62.2545 9.17852C62.2486 9.203 62.2437 9.22626 62.2387 9.2499C62.2337 9.27353 62.2282 9.29763 62.2233 9.32127C62.2202 9.33771 62.2175 9.35294 62.2151 9.36938C62.2116 9.38386 62.2101 9.39797 62.207 9.4117C62.2042 9.42852 62.2015 9.44645 62.1985 9.46402L62.1884 9.53875C62.186 9.55361 62.1842 9.57005 62.1826 9.58546C62.1811 9.5977 62.1791 9.61031 62.1788 9.62209C62.1757 9.64077 62.1745 9.65945 62.173 9.67814C62.1718 9.68309 62.1722 9.68916 62.171 9.69495C62.1695 9.71597 62.1683 9.73503 62.1671 9.75596C62.1636 9.79454 62.1609 9.83574 62.1576 9.87619C62.1561 9.90935 62.1542 9.94373 62.153 9.97895C62.1518 9.99764 62.1514 10.019 62.1506 10.0385C62.1506 10.0511 62.1495 10.0641 62.1506 10.077V10.0846C62.1498 10.0936 62.1498 10.1027 62.1506 10.1117C62.1498 10.1188 62.1495 10.126 62.1498 10.1331C62.1498 10.1693 62.1498 10.2056 62.1498 10.2422C62.1506 10.2762 62.1522 10.3098 62.1529 10.3429C62.1541 10.3627 62.1541 10.3819 62.1564 10.4009C62.1576 10.4418 62.1595 10.4826 62.163 10.5249C62.1648 10.5474 62.166 10.5696 62.1687 10.5924C62.1726 10.647 62.1772 10.7016 62.1846 10.7572C62.1915 10.8233 62.2001 10.8896 62.2097 10.9583C62.2155 10.9987 62.2214 11.0399 62.2286 11.0811C62.2326 11.1051 62.236 11.1289 62.2407 11.1525C62.2456 11.1819 62.2511 11.2116 62.2561 11.2414C62.2661 11.3013 62.2782 11.3617 62.2913 11.4234C62.3045 11.4852 62.3176 11.5463 62.3308 11.6092C62.3497 11.6924 62.3703 11.7786 62.393 11.8664C62.4097 11.9325 62.4271 11.9992 62.4455 12.0675C62.451 12.0904 62.4579 12.1129 62.4637 12.1361C62.4761 12.1829 62.4904 12.2296 62.5036 12.2769L62.5457 12.4208C62.5552 12.451 62.563 12.4819 62.5727 12.5112C62.5908 12.5731 62.6105 12.636 62.6307 12.7001C62.6331 12.7078 62.6353 12.7154 62.6381 12.7223C62.657 12.7807 62.6759 12.8398 62.6949 12.8985C62.7343 13.0157 62.7756 13.133 62.8186 13.2504C62.925 13.5442 63.0422 13.8378 63.1705 14.1314C63.2219 14.2478 63.2746 14.365 63.3293 14.4817C63.3841 14.5983 63.4392 14.7163 63.4968 14.8327C63.6116 15.0663 63.7335 15.299 63.8615 15.5298C63.8657 15.5371 63.8688 15.544 63.873 15.5509C63.8908 15.5833 63.909 15.6177 63.926 15.6519C63.9473 15.6935 63.9678 15.7347 63.9882 15.7783L64.0377 15.8767L64.1344 16.0565L64.1549 16.098L64.2137 16.2128C64.2152 16.2167 64.2164 16.2207 64.2172 16.2247C64.2181 16.2282 64.2186 16.2318 64.2187 16.2354C64.2191 16.2411 64.2182 16.2469 64.216 16.2522C64.2142 16.2563 64.2127 16.2605 64.2113 16.2648C64.2106 16.2648 64.2094 16.2659 64.2071 16.2697L64.2041 16.2754C64.2029 16.2777 64.2013 16.2798 64.1994 16.2815C64.1912 16.2905 64.1804 16.2968 64.1685 16.2994C64.1648 16.3004 64.161 16.3008 64.1572 16.3006L63.9619 16.2414L63.9561 16.2392L63.9101 16.2251C63.9101 16.2251 63.8706 16.2106 63.8679 16.2106C63.8536 16.2045 63.8409 16.2 63.8274 16.1954C63.8212 16.1939 63.8146 16.1919 63.8092 16.1904C63.8038 16.1889 63.7976 16.1886 63.7918 16.1873C63.6101 16.124 63.4295 16.0618 63.2532 16.003C63.2312 15.9962 63.2087 15.9882 63.187 15.9809C63.1215 15.9587 63.0551 15.9373 62.9898 15.916C62.9028 15.8886 62.8162 15.8615 62.7295 15.8355C62.7095 15.8291 62.6909 15.8233 62.6712 15.8168L62.6333 15.8062C62.6202 15.8024 62.6075 15.7982 62.5955 15.7943C62.5932 15.7943 62.591 15.7935 62.5893 15.792C62.5782 15.7893 62.5661 15.7863 62.555 15.7832C62.5476 15.7813 62.5394 15.779 62.5325 15.7779C62.5208 15.7741 62.5088 15.7711 62.4966 15.7691C62.2715 15.6993 62.0494 15.6358 61.8304 15.5787C61.7751 15.5642 61.7198 15.5489 61.6657 15.536C61.6189 15.523 61.572 15.5116 61.5253 15.5005C61.4618 15.4841 61.4004 15.47 61.3385 15.4555C61.2905 15.444 61.2438 15.4322 61.1977 15.4227C61.1788 15.4177 61.1586 15.4139 61.1382 15.4097C61.0829 15.3967 61.0276 15.3845 60.9726 15.3723C60.9027 15.3571 60.8331 15.3429 60.7635 15.3284C59.8288 15.1422 59.1074 15.061 58.4247 15.0728C58.3759 15.0728 58.3245 15.0767 58.2726 15.0774H58.2704C58.2583 15.0785 58.2472 15.0801 58.2344 15.0809C58.1995 15.0824 58.1644 15.0831 58.1319 15.0836C57.9959 15.092 57.8613 15.1046 57.7272 15.1187C57.6609 15.1264 57.5926 15.1343 57.5253 15.1423C57.3912 15.161 57.2578 15.1817 57.1244 15.2053C56.3805 15.3393 55.6563 15.5639 54.9685 15.8742C54.6437 16.0156 54.3355 16.1915 54.0494 16.3988C54.0064 16.429 53.9655 16.4603 53.9245 16.4923C53.8989 16.5125 53.8727 16.5327 53.8475 16.5541C53.7207 16.6561 53.6003 16.7656 53.4867 16.8818C53.1657 17.2095 52.8974 17.5837 52.691 17.9914C52.4196 18.5313 52.239 19.1445 52.1261 19.932C52.0963 20.1383 52.0809 20.3464 52.0801 20.5548C52.0759 20.9638 52.1458 21.3704 52.2866 21.7551C52.3056 21.8117 52.3017 21.8734 52.2757 21.9272C52.27 21.9394 52.2637 21.9512 52.2567 21.9627C52.2535 21.9685 52.2499 21.974 52.2459 21.9792L52.2107 22.0315C52.2041 22.0388 52.1991 22.046 52.1929 22.054C52.1369 22.1287 52.0812 22.2035 52.032 22.2788L52.0036 22.3185C52.0006 22.3231 51.9969 22.3274 51.9927 22.3311C51.9895 22.3361 51.9859 22.3408 51.9819 22.3452C51.8654 22.4962 51.7572 22.6533 51.6576 22.8157C51.3399 23.3317 51.1619 23.9197 51.1406 24.5231C51.1406 24.5678 51.1406 24.6124 51.1406 24.6555C51.1436 24.8646 51.171 25.0726 51.2222 25.2755C51.312 25.6337 51.4687 25.9722 51.6842 26.2737C51.7388 26.3555 51.798 26.4342 51.8613 26.5095C51.8635 26.5112 51.8653 26.5132 51.8667 26.5156C51.9008 26.553 51.923 26.5995 51.9303 26.6493C51.9377 26.699 51.9299 26.7499 51.9081 26.7953C51.8853 26.8552 51.8632 26.9136 51.8435 26.9735C51.6642 27.4653 51.5658 27.9822 51.552 28.5047C51.5511 28.5081 51.5509 28.5116 51.5512 28.515C51.5512 28.5344 51.5501 28.5536 51.5512 28.5745C51.55 28.7247 51.557 28.8749 51.572 29.0243C51.6434 29.8358 52.006 30.5954 52.5944 31.1665C52.9912 31.5536 53.4432 31.8816 53.936 32.1398C53.9889 32.1656 54.0314 32.2082 54.0566 32.2608C54.0768 32.3065 54.0839 32.3568 54.0772 32.4062C54.0329 32.8253 54.0433 33.2484 54.1081 33.6649C54.149 33.9498 54.2187 34.2299 54.3164 34.501C54.6462 35.4587 55.2631 36.11 56.1955 36.4908C56.2682 36.5194 56.3413 36.5519 56.4171 36.5774C56.4337 36.5839 56.4507 36.5893 56.4673 36.5961L56.576 36.6354C56.625 36.653 56.6738 36.6698 56.7233 36.6862C56.7279 36.6873 56.7328 36.6896 56.7385 36.6911C56.9054 36.7469 57.0758 36.7971 57.2497 36.8418C57.2941 36.8537 57.3379 36.8643 57.3822 36.8751C57.3883 36.8769 57.3946 36.8781 57.4011 36.8796C57.5132 36.9067 57.6273 36.9315 57.7433 36.9552C57.7843 36.9632 57.8248 36.9709 57.8656 36.9785C57.8972 36.9838 57.9293 36.9895 57.963 36.9953C58.036 37.0083 58.1095 37.0205 58.1841 37.0312C58.2966 37.048 58.4107 37.0628 58.5256 37.0762C58.5642 37.0815 58.6025 37.0855 58.6412 37.0892C58.7344 37.0985 58.8268 37.1067 58.9219 37.1148C59.0171 37.1228 59.1121 37.1281 59.2085 37.1335C59.2719 37.1377 59.3356 37.1407 59.4018 37.1441C59.4354 37.1452 59.4686 37.1472 59.5023 37.1483C59.536 37.1494 59.5712 37.1494 59.6065 37.1498C59.6239 37.1506 59.6413 37.1509 59.6595 37.1506C59.6777 37.1502 59.6958 37.1513 59.7135 37.1513C59.741 37.1513 59.7696 37.1521 59.7974 37.1513C59.8826 37.1513 59.971 37.1513 60.0647 37.1494C60.5343 37.1446 61.0028 37.1027 61.4657 37.0243C61.4712 37.0234 61.4767 37.0223 61.482 37.0208C61.6034 36.9983 61.7213 36.9769 61.8458 36.9483C61.8671 36.9461 61.8902 36.9399 61.9121 36.9357C61.9499 36.945 61.989 36.9544 62.0304 36.9637C62.158 36.9927 62.2938 37.0205 62.4361 37.0478C62.5038 37.0619 62.573 37.0749 62.643 37.0879C62.6785 37.0943 62.7137 37.1012 62.7508 37.1073C62.7879 37.1134 62.8232 37.121 62.861 37.1271C62.8669 37.1286 62.8728 37.1295 62.8788 37.1298C62.9461 37.1417 63.0146 37.1542 63.083 37.1661C63.1178 37.1718 63.1526 37.1779 63.1878 37.1836C63.1982 37.1848 63.2079 37.1867 63.2183 37.1878C63.3007 37.2016 63.3834 37.2146 63.4681 37.2268C63.5106 37.234 63.5544 37.2409 63.5976 37.247C63.7321 37.2668 63.8675 37.2856 64.0013 37.3039L64.077 37.3141L64.1184 37.3198C64.122 37.32 64.1256 37.3203 64.1292 37.321C64.1386 37.3221 64.1471 37.3225 64.1563 37.3237C64.6235 37.3716 65.093 37.3925 65.5626 37.3863H65.5676C65.6828 37.3839 65.7958 37.3793 65.9084 37.3736C65.9652 37.3709 66.0209 37.3683 66.0763 37.3643C66.8439 37.3214 67.6004 37.1635 68.3199 36.8961C68.4038 36.8633 68.4869 36.83 68.5685 36.7946C68.7316 36.7237 68.8899 36.6467 69.0433 36.5638C69.4246 36.3579 69.7804 36.1091 70.1036 35.8224C70.1069 35.8199 70.1099 35.8171 70.1126 35.814C70.1663 35.7659 70.2191 35.7169 70.2711 35.6671C70.273 35.6653 70.2746 35.6649 70.2757 35.6629C70.3005 35.6389 70.3248 35.6153 70.3495 35.5908C70.3848 35.556 70.4196 35.5202 70.4543 35.4836C70.4972 35.4389 70.5387 35.3927 70.58 35.3462C70.6102 35.3134 70.6387 35.2802 70.6678 35.2459C70.7014 35.2069 70.735 35.167 70.7664 35.1265C70.7694 35.1239 70.7721 35.1209 70.7745 35.1177C70.7988 35.0872 70.8236 35.0555 70.8468 35.0243C70.8886 34.9712 70.9292 34.9178 70.9682 34.8629C71.2457 34.4756 71.4817 34.0608 71.6723 33.6254C72.8972 30.8636 72.6431 27.0969 72.1571 24.2355M52.2828 23.372C52.3497 23.2442 52.4217 23.1197 52.4985 22.9965C52.5364 22.937 52.5743 22.8779 52.6121 22.8176C52.6216 22.8012 52.7305 22.6318 52.7257 22.6284C52.965 22.826 53.1982 23.032 53.4441 23.2228C54.1146 23.744 54.889 24.081 55.7103 24.3107C55.7177 24.3129 55.7257 24.3145 55.7331 24.3168C56.8051 24.6309 57.9187 24.7854 59.037 24.775L59.2852 24.7711C60.1791 24.7303 60.8879 24.5843 61.5208 24.3152C61.65 24.2537 61.7725 24.1916 61.9017 24.1217L61.949 24.0931C61.9902 24.0741 62.0347 24.0631 62.0801 24.0607C62.1412 24.0622 62.1999 24.0845 62.2464 24.1236C62.7088 24.5254 62.9674 25.0131 63.0025 25.5766C63.0142 25.7368 63.0029 25.8977 62.9689 26.0548C62.9276 26.2438 62.8607 26.4266 62.7701 26.5981C62.5274 27.0821 62.1606 27.495 61.7061 27.7958C61.7011 27.7989 61.6966 27.8023 61.6906 27.8057C61.3538 28.0038 60.9798 28.1324 60.5913 28.1839C60.2096 28.2287 59.8254 28.2506 59.441 28.2493C58.0009 28.2779 56.5656 28.0754 55.1913 27.6498C54.874 27.5524 54.5636 27.4343 54.2622 27.2961H54.2583C53.8688 27.1182 53.5017 26.8959 53.1645 26.6338C53.1007 26.5871 53.0361 26.5373 52.9746 26.485C52.7892 26.3316 52.6207 26.1594 52.472 25.9711C52.4717 25.9712 52.4714 25.9711 52.4711 25.971C52.4708 25.9709 52.4706 25.9707 52.4703 25.9705C52.4701 25.9703 52.47 25.9701 52.4698 25.9698C52.4697 25.9695 52.4697 25.9692 52.4697 25.9689C52.2968 25.7591 52.1626 25.5211 52.0729 25.2656C51.8638 24.6696 51.9318 24.0473 52.2825 23.3723M53.7058 31.044C53.0663 30.5926 52.6677 30.0802 52.4909 29.4803C52.3212 28.916 52.3254 28.3126 52.4975 27.629C52.4982 27.6252 52.4998 27.6206 52.5006 27.6179C52.5058 27.5926 52.5127 27.5676 52.5211 27.5431L52.5486 27.4481C52.5562 27.4203 52.5733 27.396 52.5969 27.3791L52.5992 27.378C52.6204 27.3624 52.6458 27.3534 52.6722 27.352C52.6987 27.3506 52.7249 27.357 52.7477 27.3703C52.8695 27.4409 53.0261 27.5325 53.0566 27.5497C53.282 27.6805 53.4904 27.8053 53.7127 27.9202C53.9747 28.0532 54.2443 28.1712 54.52 28.2735C55.0471 28.4713 55.5898 28.6261 56.1425 28.7363C56.4672 28.805 56.7952 28.8634 57.1227 28.9103H57.1251C57.2641 28.9195 57.4024 28.9372 57.5391 28.9633C57.6843 28.9797 57.8292 28.9939 57.9738 29.006C58.2529 29.0297 58.5348 29.0496 58.8144 29.0472C59.3909 29.0434 59.9655 29.0652 60.5401 28.9942C60.8844 28.9546 61.2232 28.8776 61.5504 28.7644C61.8725 28.65 62.1721 28.4812 62.4358 28.2658L62.5016 28.2134L62.5062 28.21C62.5219 28.1986 62.5399 28.1907 62.559 28.1868C62.5781 28.1829 62.5978 28.1831 62.6168 28.1874C62.6358 28.1916 62.6536 28.1999 62.6691 28.2116C62.6846 28.2232 62.6974 28.238 62.7065 28.255L62.78 28.3947C62.8403 28.5027 62.8936 28.6011 62.949 28.7117L62.954 28.7211C63.142 29.1196 63.2135 29.562 63.1605 29.9985C63.1554 30.0333 63.151 30.0679 63.1435 30.1023C63.0545 30.549 62.8339 30.9598 62.5092 31.2832C62.3173 31.4826 62.1047 31.6617 61.875 31.8174C61.871 31.8208 61.8666 31.8238 61.8619 31.8262C61.7831 31.8804 61.7003 31.9326 61.6148 31.9822C61.2424 32.195 60.8473 32.3665 60.4367 32.4935L60.4351 32.4946C60.3985 32.5057 60.3632 32.5172 60.3261 32.5278C60.2353 32.5538 60.1437 32.5785 60.0516 32.5992C59.7393 32.6698 59.4204 32.7077 59.1 32.7125C58.7229 32.7177 58.3461 32.6873 57.9749 32.6217C57.4266 32.5206 56.9982 32.4393 56.5659 32.3227C56.4762 32.298 56.386 32.272 56.2933 32.2403C56.0269 32.1629 55.7621 32.0614 55.5026 31.9676L55.3568 31.9145C54.7712 31.6945 54.2164 31.4018 53.7058 31.0433M62.8222 35.6677C62.8005 35.6829 62.7789 35.697 62.7573 35.7112C62.7298 35.7284 62.702 35.746 62.6744 35.7623C62.3172 35.9706 61.9267 36.1172 61.5195 36.1958C61.0313 36.2901 60.5353 36.3403 60.0379 36.3457C59.6682 36.3529 59.2985 36.34 58.9303 36.3072C58.2145 36.2494 57.5091 36.1024 56.8308 35.8699C56.7421 35.8382 56.6509 35.8027 56.5527 35.7638L56.5488 35.7623C56.3537 35.6837 56.1677 35.5845 55.9943 35.4663C55.8008 35.3353 55.6302 35.1742 55.4889 34.9894C55.1992 34.6094 55.0104 34.164 54.9399 33.6936C54.9307 33.6562 54.9239 33.6182 54.9194 33.5799C54.8986 33.4063 54.887 33.2385 54.8712 33.0499V33.0484L54.8654 32.9763L54.858 32.8974L54.8485 32.8005C54.8479 32.7957 54.8477 32.7909 54.8478 32.786L54.8311 32.5953L55.0151 32.659L55.1098 32.6914C55.1624 32.7075 55.2111 32.7219 55.2621 32.741C55.406 32.799 55.5486 32.8438 55.691 32.8887C55.853 32.9432 56.0142 32.9948 56.1747 33.0432C56.9948 33.2899 57.84 33.4465 58.6949 33.5103C58.8419 33.521 58.9865 33.524 59.1245 33.5222C59.7639 33.5073 60.3959 33.3833 60.9924 33.1555C61.0439 33.1396 61.0945 33.1209 61.1439 33.0994C61.1702 33.0895 61.2007 33.0808 61.2275 33.0685C61.5038 32.9572 61.7721 32.827 62.0301 32.679C62.0596 32.6618 62.0902 32.6435 62.1191 32.6263C62.1481 32.6091 62.1783 32.59 62.2069 32.5713C62.2753 32.5274 62.3414 32.4824 62.4057 32.4363C62.4435 32.4088 62.4814 32.3813 62.5193 32.3531C62.5232 32.3497 62.527 32.3474 62.5313 32.3438C62.5502 32.3293 62.57 32.314 62.5893 32.2987C62.5967 32.2923 62.6052 32.2857 62.6138 32.2801C62.6385 32.2606 62.6648 32.2419 62.688 32.222C62.703 32.2098 62.7185 32.1969 62.7325 32.1847C62.7874 32.1385 62.8438 32.0862 62.9022 32.032C62.9262 32.0091 62.9495 31.9853 62.976 31.963C62.9849 31.9557 62.9935 31.9478 63.0007 31.9408C63.0127 31.9315 63.0765 31.8729 63.1318 31.8206C63.1359 31.8166 63.1406 31.8131 63.1457 31.8103L63.1473 31.8092H63.1489L63.15 31.8081L63.152 31.8073C63.1765 31.7914 63.2055 31.7837 63.2348 31.7856C63.264 31.7874 63.2918 31.7987 63.314 31.8176L63.3167 31.8211C63.4543 31.9389 63.581 32.0685 63.6954 32.2084C64.0999 32.7035 64.2414 33.2291 64.1231 33.7995C64.0875 33.9699 64.033 34.136 63.9607 34.2947C63.72 34.8493 63.3256 35.3257 62.8228 35.6691M70.7464 33.9143C70.6401 34.1028 70.5234 34.2855 70.3969 34.4614C69.5334 35.6546 68.138 36.4211 66.6684 36.5928C65.6307 36.7143 64.5941 36.6268 63.569 36.4467C63.5087 36.4361 63.446 36.428 63.3781 36.4187C63.3568 36.4172 63.3402 36.4149 63.3174 36.4114H63.3113C63.2846 36.408 63.2595 36.403 63.2335 36.3995C63.2241 36.3984 63.2154 36.3968 63.2065 36.3957C63.2153 36.3896 63.2204 36.3824 63.2269 36.3778C63.6627 36.05 64.0442 35.6575 64.358 35.2143C64.7813 34.6012 65.0439 33.8575 64.9395 33.1096C64.834 32.3529 64.37 31.6825 63.8171 31.1671C63.8088 31.159 63.801 31.1503 63.7939 31.1412L63.6814 31.0179L63.7939 30.7024C63.8586 30.547 63.9096 30.3864 63.9463 30.2224C63.9895 29.9536 63.9983 29.6805 63.9722 29.4096C63.9139 28.8641 63.724 28.3404 63.4185 27.8822L63.3788 27.815C63.3216 27.7336 63.2775 27.644 63.248 27.5494C63.2248 27.4705 63.2248 27.4139 63.4174 27.0892L63.4676 27.0106C63.6036 26.8 63.7032 26.5686 63.7623 26.3258C63.8849 25.8156 63.8691 25.2826 63.7167 24.7804C63.6376 24.5034 63.5201 24.2385 63.3676 23.9932C63.2711 23.8425 63.162 23.7001 63.0413 23.5674C63.0224 23.5472 63.0103 23.5218 63.0065 23.4946C63.0027 23.4673 63.0074 23.4396 63.0201 23.4151C63.4532 22.578 63.5014 21.4959 62.9865 20.6779C62.3333 19.6401 61.001 19.1084 59.8862 18.7178C59.6434 18.6327 59.3833 18.559 59.1505 18.7098C59.0871 18.7496 59.0325 18.8015 58.9899 18.8625C58.9472 18.9234 58.9174 18.9923 58.9023 19.0648L58.8516 19.2808L58.8624 19.2827C58.906 19.29 59.0707 19.317 59.0952 19.3242C59.4575 19.4225 59.8138 19.541 60.1624 19.6792C60.4113 19.7773 60.648 19.8841 60.8788 20.0013C61.2708 20.1927 61.6325 20.4393 61.9525 20.7335C62.2278 20.9831 62.4052 21.3204 62.4536 21.6862C62.5021 22.052 62.4185 22.4229 62.2176 22.734C61.7138 23.5318 60.7263 23.8084 59.838 23.918C58.6731 24.0615 57.4702 23.931 56.3354 23.6517C55.0652 23.3396 53.4838 22.7023 53.0384 21.3722C52.6614 20.2455 53.0005 18.9134 53.6574 17.953C53.7305 17.8466 53.8086 17.7438 53.8918 17.6447C55.1311 16.186 57.3698 15.7571 59.2056 15.8998C60.2439 15.9976 61.2681 16.2086 62.2594 16.529C62.6483 16.648 62.9878 16.7606 63.2987 16.8693L63.8193 17.057L63.8839 17.0833C64.0178 17.1459 64.1631 17.1811 64.3111 17.1868C64.3413 17.1868 64.3714 17.1818 64.402 17.1791C64.4386 17.1738 64.4746 17.1648 64.5095 17.1524C64.5448 17.1409 64.5788 17.1261 64.6112 17.1081C64.6241 17.1018 64.6364 17.0944 64.6479 17.086C65.3625 16.6395 64.8695 15.6803 64.5729 15.1377C64.1293 14.3261 63.7551 13.4794 63.4544 12.6064C63.0704 11.4934 62.8078 10.2815 63.1285 9.14909C63.5136 7.78692 64.798 6.44689 66.0199 5.74324C66.3387 5.55939 66.7007 5.461 67.07 5.45784C67.3136 5.45568 67.5565 5.48272 67.7934 5.53837C67.8468 5.54939 67.8998 5.56238 67.9528 5.57649C67.9556 5.57636 67.9583 5.57687 67.9609 5.57798C68.025 5.59808 68.0879 5.62179 68.1492 5.64898C68.3083 5.7188 68.4434 5.83269 68.5382 5.97683C68.633 6.12098 68.6833 6.28917 68.6831 6.461C68.7411 6.9082 68.4991 7.41034 68.3281 7.81327C67.7566 9.1386 67.5512 10.5898 67.733 12.0189C67.9129 13.3555 68.4109 14.6341 68.9835 15.8506C69.5443 17.0709 70.0003 18.3355 70.3467 19.6311C70.777 21.1978 71.1587 22.7527 71.4638 24.3489C71.9687 27.3213 72.2243 31.2957 70.745 33.912" fill="#212121"/>
<path d="M54.8725 33.0473L54.8594 32.8966L54.8667 32.9752L54.8725 33.0473Z" fill="#212121"/>
</g>
</g>
</g>
<defs>
<clipPath id="clip0_40853_217469">
<rect width="142" height="37.3684" fill="white" transform="translate(0 0.315796)"/>
</clipPath>
</defs>
</svg>
