<svg width="140" height="117" viewBox="0 0 140 117" fill="none" xmlns="http://www.w3.org/2000/svg">
<mask id="mask0_40920_21689" style="mask-type:luminance" maskUnits="userSpaceOnUse" x="0" y="0" width="140" height="117">
<path d="M139.727 0H0V116.956H139.727V0Z" fill="white"/>
</mask>
<g mask="url(#mask0_40920_21689)">
<path d="M58.7072 61.6744C56.2586 62.0296 53.9463 63.0224 52.0025 64.5534C48.5097 67.183 37.9076 74.7033 37.9076 74.7033L24.8623 88.4074C24.522 90.1455 24.8201 91.9481 25.702 93.484C27.1808 96.0322 35.3184 99.9766 39.1814 101.374C43.0444 102.772 49.2084 97.6761 51.5914 94.7163C53.9745 91.7565 58.7072 61.6744 58.7072 61.6744Z" fill="white"/>
<path d="M12.4897 39.7658C12.4897 39.7658 14.8481 42.4227 15.7769 45.2923C21.0072 61.4407 15.7961 67.7304 19.6908 81.1682C21.3226 86.7992 29.3476 92.357 33.2308 93.9172C37.114 95.4775 43.5486 90.9514 43.9876 80.6379C44.4266 70.3245 28.9868 50.8429 28.1684 37.9726L12.4897 39.7658Z" fill="#F79B62"/>
<path d="M18.112 68.5435C17.995 72.3426 18.4025 76.1397 19.323 79.8274C22.7289 78.6154 37.2273 73.63 37.2273 73.63L32.6028 69.6489C32.6028 69.6489 19.6171 68.2521 19.1234 68.2521C18.7787 68.3206 18.4404 68.4181 18.112 68.5435Z" fill="#C66F38"/>
<path d="M110.292 66.8685C110.292 66.8685 118.288 69.1231 120.22 77.6297C121.427 83.402 122.047 89.2816 122.071 95.1787L133.77 106.232C133.77 106.232 131.19 112.847 123.629 110.551C116.068 108.255 114.012 103.483 114.012 103.483L107.335 100.586C107.075 100.448 106.779 100.392 106.487 100.427C106.194 100.461 105.919 100.583 105.698 100.777L102.691 100.072C102.691 100.072 95.0068 86.1823 95.0894 85.7711C95.1719 85.36 102.57 68.343 110.292 66.8685Z" fill="white"/>
<path d="M115.304 56.6445C116.356 58.2949 117.119 60.1117 117.563 62.0174C120.428 77.2572 115.359 82.4289 117.353 95.0626C118.189 100.355 124.487 106.258 127.648 108.087C130.809 109.915 136.746 106.477 138.141 97.1422C139.535 87.8074 128.287 68.4614 128.862 56.6669L115.304 56.6445Z" fill="#F79B62"/>
<path d="M129.68 64.2299C129.159 62.0194 128.879 59.7589 128.844 57.4881C127.338 56.9709 126.138 56.6625 126.138 56.6625L123.858 61.737C124.603 62.5322 125.506 63.1643 126.508 63.5933C127.51 64.0224 128.59 64.2392 129.68 64.2299Z" fill="#E69865"/>
<path d="M73.8467 48.4469C73.8467 48.4469 73.5509 49.9033 73.2961 51.1585C73.0414 52.4137 73.0775 56.2696 73.0775 56.2696C72.8834 57.3165 72.6877 59.8904 71.1689 59.8373C68.5863 59.7466 72.768 68.7709 76.2275 69.7413C80.2272 70.8637 88.6201 66.2386 93.2189 63.5089C93.7962 63.1656 93.2287 61.5703 93.7109 61.3484C93.7109 61.3484 91.5017 60.5076 91.2912 58.4613C91.0807 56.415 91.8647 48.9963 91.8647 48.9963L73.8467 48.4469Z" fill="#FFB180"/>
<path d="M73.844 48.4469C73.844 48.4469 73.5482 49.9038 73.294 51.1585C73.0398 52.4132 73.0753 56.269 73.0753 56.269C72.9917 56.7173 72.9086 57.4466 72.7205 58.1278C74.0976 59.3922 75.568 60.551 77.1192 61.5944C78.42 62.2468 79.855 62.5865 81.3102 62.5865C82.7654 62.5865 84.2004 62.2468 85.5012 61.5944C86.7307 60.9001 89.38 58.6078 91.2607 56.9245C91.3328 54.003 91.862 48.993 91.862 48.993L73.844 48.4469Z" fill="#D49369"/>
<path d="M93.711 61.3471L110.291 66.8688C110.291 66.8688 99.2152 83.7563 105.699 100.773L99.6995 123.522C99.6995 123.522 101.504 125.702 100.058 128.104L101.779 135.922C102.974 141.347 45.097 139.741 47.4593 130.941C47.9164 129.238 48.5527 126.697 48.7479 126.246C48.6181 125.72 48.6068 125.172 48.715 124.641C48.8232 124.11 49.048 123.61 49.3733 123.176L49.0885 101.533C48.5631 88.1993 49.4329 81.6225 58.706 61.6746L71.1707 59.8383C71.7409 67.2531 83.4282 68.141 93.711 61.3471Z" fill="white"/>
<path d="M97.7792 32.4385C97.7792 32.4385 99.3673 30.4223 100.523 30.4748C101.679 30.5273 103.247 33.0672 103.194 35.0556C103.141 37.0439 101.335 44.0362 97.4168 41.6274C93.4986 39.2187 97.7792 32.4385 97.7792 32.4385Z" fill="#FFB180"/>
<path d="M96.598 34.5923C96.5374 34.6639 96.4998 34.7521 96.4901 34.8455C96.4803 34.9388 96.4988 35.0328 96.5433 35.1155C96.5605 35.1453 96.5844 35.1707 96.6131 35.1898C96.6418 35.2088 96.6745 35.221 96.7087 35.2252C96.7429 35.2294 96.7776 35.2257 96.8101 35.2142C96.8426 35.2028 96.8719 35.1839 96.8959 35.1592C96.8959 35.1592 98.2479 41.1964 99.045 40.2003C99.8421 39.2042 100.685 38.242 100.958 36.6779C101.232 35.1138 99.865 33.7646 100.309 33.3365C100.732 32.9281 101.242 33.5005 101.289 33.5552C101.548 33.8921 101.754 34.2665 101.9 34.6655C101.909 34.7037 101.927 34.739 101.953 34.7681C101.979 34.7972 102.012 34.8191 102.05 34.8316C102.087 34.8442 102.126 34.8469 102.165 34.8397C102.203 34.8324 102.239 34.8154 102.269 34.7902C102.341 34.7294 102.393 34.6487 102.419 34.5583C102.444 34.4678 102.443 34.3718 102.414 34.2823C102.41 34.2763 101.633 31.9976 100.042 32.16C98.5213 32.3229 96.6034 34.5841 96.598 34.5923Z" fill="#E69865"/>
<path d="M63.207 35.7819C63.207 35.7819 61.6817 34.3009 60.7386 34.4699C59.7956 34.6388 58.7875 36.8972 59.0493 38.5242C59.3112 40.1511 61.5592 45.693 64.5163 43.2859C67.4734 40.8788 63.207 35.7819 63.207 35.7819Z" fill="#FFB180"/>
<path d="M64.4143 37.4222C64.4718 37.4744 64.5124 37.5426 64.5308 37.618C64.5492 37.6934 64.5446 37.7726 64.5176 37.8454C64.5068 37.8718 64.49 37.8954 64.4686 37.9143C64.4471 37.9331 64.4216 37.9467 64.3939 37.9539C64.3663 37.9612 64.3374 37.962 64.3094 37.9561C64.2814 37.9503 64.2552 37.938 64.2328 37.9203C64.2328 37.9203 63.7873 43.0254 63.0224 42.2939C62.2576 41.5624 61.4616 40.8664 61.0658 39.6123C60.67 38.3582 61.6437 37.1003 61.2298 36.7974C60.8367 36.5093 60.4819 37.0363 60.4497 37.0866C60.2726 37.3914 60.1435 37.7216 60.067 38.0657C60.0641 38.0979 60.053 38.1288 60.0347 38.1555C60.0165 38.1822 59.9917 38.2037 59.9627 38.2181C59.9337 38.2324 59.9015 38.239 59.8692 38.2373C59.837 38.2356 59.8057 38.2257 59.7783 38.2084C59.7128 38.1664 59.6612 38.1057 59.6302 38.0343C59.5993 37.9628 59.5903 37.8837 59.6045 37.8071C59.6045 37.8022 59.9943 35.8461 61.3184 35.8046C62.5856 35.7701 64.4088 37.4179 64.4143 37.4222Z" fill="#E69865"/>
<path d="M78.219 4.58227C54.8203 6.75156 59.7625 25.8953 63.0361 41.3859C68.1313 65.4997 97.5278 63.2331 98.8656 38.6229C99.725 22.8141 101.675 3.13899 78.219 4.58227Z" fill="#FFB180"/>
<path d="M62.6116 35.4919C62.3231 35.4418 62.0377 35.3755 61.7566 35.2934C61.3832 33.4155 61.0393 31.5245 60.7726 29.6515C64.1151 28.9277 70.2638 27.5194 70.2638 27.5194L69.8231 30.0282C69.8231 30.0282 67.9682 35.5777 63.5722 35.5771C63.2501 35.5765 62.9288 35.548 62.6116 35.4919ZM90.8688 22.2541L94.5617 22.9692C96.2716 24.0857 97.8611 25.3765 99.3049 26.8207C99.3185 28.2514 99.2928 29.699 99.2431 31.1467C98.9357 31.2423 98.6221 31.3164 98.3044 31.3687C97.9125 31.437 97.5154 31.4722 97.1175 31.4736C90.9431 31.4725 90.8688 22.2541 90.8688 22.2541Z" fill="#E69865"/>
<path d="M98.9594 36.9455C99.0797 34.803 99.2082 32.4161 99.2716 30.2266C99.6953 15.5385 97.8403 4.9659 78.3413 6.1659C58.8881 7.97 58.6766 18.7022 61.3477 33.1509C61.7452 35.3054 62.2388 37.6436 62.686 39.743C62.686 39.743 64.8001 37.2522 63.9522 32.7201C63.9522 32.7201 68.8047 32.3817 66.1936 24.5891C63.5826 16.7964 73.7698 15.4281 79.0268 15.0219C84.2839 14.6157 94.5618 14.4074 93.1742 22.5083C91.7867 30.6093 96.6343 30.1998 96.6343 30.1998C96.4911 34.8085 98.9621 36.9461 98.9621 36.9461L98.9594 36.9455Z" fill="#333333"/>
<path d="M90.8416 22.1384C90.8416 22.1384 89.5224 23.3356 88.8997 26.138C88.2771 28.9404 87.0678 31.5831 83.6892 31.8439C80.3106 32.1046 78.6913 28.8436 78.6913 28.8436C78.6913 28.8436 75.539 35.2454 69.8233 30.0288C69.1194 31.0983 68.1656 31.9803 67.0444 32.5984C65.9231 33.2165 64.6682 33.5521 63.3881 33.5764C48.1642 34.1887 57.3651 1.13752 80.0515 0.691959C88.7773 0.520843 94.013 4.64185 95.2961 7.55192C94.148 1.92094 99.4226 2.34298 98.9005 10.5522C111.525 14.1506 95.845 44.2052 90.8416 22.1384Z" fill="#333333"/>
<path d="M78.824 37.7204C78.8262 37.7593 78.8221 37.7982 78.8119 37.8358L78.7573 38.049V38.0534C78.473 39.1468 77.5698 42.6402 77.6639 42.9736C77.7464 43.2065 78.8174 43.6772 79.047 43.7631C79.5762 43.961 80.5198 43.2563 80.8593 43.0048C82.3267 41.9163 80.23 44.7428 79.515 44.7389C78.9979 44.7293 78.492 44.5871 78.0455 44.3262C77.5428 44.0983 77.1265 43.715 76.858 43.2328C76.694 42.7768 77.5917 39.1063 77.9203 37.9063C78.2138 36.7293 78.0334 36.0645 77.7978 35.7097C77.6376 35.4691 77.5277 35.0739 78.0241 35.4757C78.3505 35.7405 78.5978 36.09 78.7388 36.4859C78.8799 36.8818 78.9093 37.3089 78.824 37.7204Z" fill="#D49369"/>
<path d="M83.2226 29.1672C83.2605 29.3349 83.3518 29.4857 83.4828 29.5969C83.4638 29.4061 83.4985 29.2137 83.5829 29.0415C83.6673 28.8693 83.7981 28.724 83.9607 28.6222C86.2748 27.0099 90.4773 26.8454 92.6285 27.8251C92.6387 27.8299 92.6472 27.8377 92.6528 27.8475C92.6584 27.8573 92.6608 27.8685 92.6597 27.8797C92.6594 27.886 92.6578 27.8921 92.655 27.8977C92.6522 27.9033 92.6483 27.9082 92.6436 27.9123C92.6388 27.9163 92.6333 27.9194 92.6273 27.9212C92.6214 27.923 92.615 27.9236 92.6088 27.9229C91.2435 27.7435 89.8556 27.8582 88.5381 28.2591C87.1324 28.6562 85.8211 29.3322 84.6823 30.2469C84.5135 30.4193 84.3063 30.5493 84.0776 30.6264C83.9378 30.6597 83.7913 30.6515 83.6559 30.603C83.5206 30.5545 83.4024 30.4676 83.3156 30.353C83.2348 30.2669 83.164 30.1719 83.1045 30.0698C82.996 29.8845 82.9356 29.6749 82.929 29.4602C82.9176 29.3379 82.9452 29.215 83.0078 29.1093C83.0125 29.1041 83.0178 29.0996 83.0236 29.0956C83.1477 29.0185 83.2166 29.1612 83.2166 29.1612L83.2226 29.1672Z" fill="#333333"/>
<path d="M73.894 29.7C73.9417 29.8653 73.9346 30.0415 73.8738 30.2024C73.7982 30.0262 73.675 29.8746 73.5179 29.7647C73.3609 29.6548 73.1762 29.5909 72.9848 29.5803C70.1792 29.2873 66.4212 31.1728 65.0107 33.0699C65.0046 33.0789 65.0013 33.0896 65.0013 33.1005C65.0013 33.1114 65.0046 33.122 65.0107 33.1311C65.0138 33.1365 65.0179 33.1413 65.023 33.145C65.028 33.1487 65.0338 33.1513 65.0399 33.1526C65.046 33.1539 65.0523 33.1539 65.0584 33.1525C65.0645 33.1512 65.0702 33.1485 65.0752 33.1447C66.1841 32.328 67.4548 31.7578 68.8021 31.4724C70.2247 31.141 71.6994 31.0994 73.1385 31.3499C73.369 31.4187 73.6125 31.4322 73.8492 31.3893C73.9875 31.3512 74.1118 31.2738 74.2068 31.1663C74.3018 31.0588 74.3635 30.926 74.3844 30.7841C74.414 30.6698 74.43 30.5523 74.432 30.4342C74.4385 30.2192 74.3904 30.0061 74.292 29.8148C74.2431 29.7019 74.1594 29.6074 74.0531 29.5453C74.0465 29.5432 74.0397 29.5417 74.0329 29.5409H74.0301C73.8836 29.5338 73.8924 29.6918 73.8924 29.6918L73.894 29.7Z" fill="#333333"/>
<path d="M85.1399 35.1284C85.7768 33.4195 86.6564 32.4387 87.6 31.992C88.2156 31.7009 88.9096 31.6197 89.5758 31.7608C90.2404 31.9061 90.8597 32.2112 91.3799 32.6497C91.877 33.05 92.2886 33.546 92.5904 34.1083C92.8922 34.6707 93.0781 35.2879 93.137 35.9233C93.1382 35.9408 93.1324 35.958 93.1209 35.9713C93.1094 35.9845 93.0932 35.9926 93.0757 35.9939C93.0594 35.9948 93.0433 35.9898 93.0304 35.9797C93.0175 35.9697 93.0088 35.9553 93.0058 35.9392C92.7949 35.0457 92.2778 34.2543 91.5444 33.7021C90.9829 33.2567 90.3156 32.9643 89.6075 32.8536C88.8737 32.7428 88.1239 32.8783 87.4754 33.2391C86.4984 33.8422 85.7497 34.753 85.3471 35.8282C85.2091 36.1436 85.1077 36.4738 85.0447 36.8123C84.9848 37.1317 84.9655 37.4573 84.9874 37.7816C84.9884 37.7992 84.9826 37.8165 84.9712 37.83C84.9598 37.8434 84.9437 37.8519 84.9261 37.8537C84.9097 37.8548 84.8935 37.8499 84.8805 37.8398C84.8675 37.8297 84.8586 37.8152 84.8556 37.7991C84.7814 37.3657 84.7687 36.924 84.8179 36.487C84.8686 36.0226 84.9768 35.5662 85.1399 35.1284Z" fill="#4D4D4D"/>
<path d="M70.4398 34.1958C71.4682 34.3893 72.567 35.1159 73.6145 36.6084C73.8836 36.9916 74.1039 37.4068 74.2705 37.8445C74.4292 38.2546 74.529 38.6851 74.5668 39.1232C74.5691 39.1407 74.5644 39.1585 74.5536 39.1725C74.5429 39.1866 74.527 39.1958 74.5094 39.1981C74.4919 39.2004 74.4741 39.1957 74.4601 39.1849C74.446 39.1741 74.4368 39.1582 74.4345 39.1407C74.3741 38.8215 74.2731 38.5114 74.1338 38.2179C73.9866 37.9058 73.8047 37.6113 73.5915 37.3399C72.9307 36.401 71.9764 35.7086 70.8788 35.3718C70.1594 35.1858 69.3987 35.2435 68.7155 35.5358C68.058 35.8221 67.4861 36.2742 67.0558 36.8479C66.4859 37.5678 66.1859 38.4644 66.2078 39.3823C66.2094 39.3996 66.2041 39.4167 66.1933 39.4302C66.1824 39.4436 66.1667 39.4523 66.1496 39.4544C66.1324 39.4566 66.1151 39.4519 66.1013 39.4415C66.0875 39.4312 66.0783 39.4158 66.0755 39.3987C65.9723 38.7688 65.9966 38.1245 66.1468 37.5041C66.2971 36.8836 66.5703 36.2997 66.9502 35.7867C67.3424 35.2309 67.8643 34.7792 68.4706 34.4708C69.0794 34.1666 69.771 34.07 70.4398 34.1958Z" fill="#4D4D4D"/>
<path d="M85.8742 34.3714C85.9836 34.127 86.0994 33.9028 86.2192 33.6924C86.7687 33.153 87.4809 32.81 88.2453 32.7165C89.0763 32.5736 89.9301 32.7657 90.6197 33.2509C91.3094 33.736 91.7788 34.4747 91.9251 35.3051C92.2804 38.073 88.7575 39.2545 86.7205 38.2524C86.3427 38.0172 86.0204 37.7029 85.7758 37.3312C85.5769 36.8601 85.4826 36.3515 85.4996 35.8404C85.5166 35.3294 85.6444 34.8281 85.8742 34.3714Z" fill="#333333"/>
<path d="M72.6773 35.8997C72.51 35.6914 72.34 35.5034 72.1705 35.3306C71.5031 34.9475 70.7278 34.7955 69.9651 34.8982C69.125 34.97 68.3475 35.3718 67.8029 36.0156C67.2583 36.6593 66.991 37.4926 67.0594 38.3331C67.4137 41.101 71.1219 41.3541 72.8391 39.8693C73.1457 39.5468 73.3784 39.1614 73.5209 38.7398C73.5938 38.2336 73.5562 37.7175 73.4106 37.2272C73.265 36.7369 73.0148 36.284 72.6773 35.8997Z" fill="#333333"/>
<path d="M93.4422 37.2954C93.4327 37.2961 93.4232 37.2961 93.4137 37.2954C93.2324 37.2724 93.0599 37.2037 92.9124 37.0958C92.874 37.0635 92.8498 37.0174 92.845 36.9674C92.8402 36.9174 92.8552 36.8675 92.8867 36.8285C92.9183 36.7894 92.9639 36.7643 93.0138 36.7584C93.0636 36.7526 93.1138 36.7666 93.1535 36.7973C93.2489 36.8607 93.3576 36.9011 93.4711 36.9154C93.5191 36.9227 93.5625 36.9478 93.5927 36.9857C93.6229 37.0236 93.6377 37.0716 93.6341 37.1199C93.6305 37.1683 93.6088 37.2135 93.5733 37.2465C93.5379 37.2795 93.4912 37.298 93.4427 37.2981L93.4422 37.2954Z" fill="#BFE1FF"/>
<path d="M92.7252 38.0126C92.692 38.0125 92.6595 38.0038 92.6306 37.9875C92.497 37.9147 92.3841 37.8092 92.3026 37.6808C92.2783 37.6369 92.2721 37.5853 92.2854 37.5369C92.2987 37.4886 92.3304 37.4474 92.3736 37.4221C92.4169 37.3968 92.4684 37.3894 92.517 37.4016C92.5657 37.4138 92.6076 37.4445 92.6339 37.4872C92.6836 37.5554 92.7481 37.6114 92.8225 37.6513C92.8591 37.6723 92.8878 37.7049 92.904 37.7439C92.9203 37.7829 92.9233 37.8261 92.9125 37.867C92.9018 37.9079 92.8779 37.944 92.8445 37.97C92.8111 37.9959 92.7702 38.0101 92.7279 38.0104L92.7252 38.0126Z" fill="#BFE1FF"/>
<path d="M66.0655 40.813C66.0212 40.8129 65.9784 40.7975 65.9442 40.7695C65.9099 40.7416 65.8864 40.7027 65.8775 40.6593C65.8685 40.616 65.8748 40.571 65.8952 40.5318C65.9156 40.4925 65.9489 40.4615 65.9895 40.444C66.096 40.4014 66.1911 40.3346 66.2672 40.2488C66.2975 40.2079 66.3428 40.1807 66.3931 40.1732C66.4435 40.1657 66.4947 40.1786 66.5356 40.2089C66.5765 40.2392 66.6037 40.2845 66.6111 40.3348C66.6186 40.3852 66.6058 40.4364 66.5755 40.4773C66.4605 40.6194 66.3111 40.7297 66.1414 40.7977C66.1174 40.8078 66.0915 40.813 66.0655 40.813Z" fill="#BFE1FF"/>
<path d="M66.9372 41.327C66.8995 41.3263 66.8629 41.3145 66.8318 41.2931C66.8008 41.2718 66.7767 41.2418 66.7626 41.2068C66.7484 41.1719 66.7448 41.1336 66.7523 41.0966C66.7597 41.0597 66.7778 41.0257 66.8044 40.999C66.8668 40.9414 66.9152 40.8704 66.946 40.7912C66.9603 40.7429 66.993 40.7021 67.0371 40.6777C67.0812 40.6533 67.1331 40.6472 67.1817 40.6608C67.2302 40.6744 67.2715 40.7065 67.2965 40.7502C67.3216 40.794 67.3284 40.8458 67.3155 40.8945C67.2676 41.0407 67.1836 41.1723 67.0712 41.2772C67.0345 41.3103 66.9866 41.3281 66.9372 41.327Z" fill="#BFE1FF"/>
<path d="M88.9864 33.8469C89.0618 33.8306 89.1396 33.8294 89.2155 33.8433C89.2913 33.8572 89.3636 33.886 89.4283 33.928C89.493 33.9699 89.5487 34.0243 89.5923 34.0878C89.6359 34.1514 89.6665 34.223 89.6824 34.2985C89.7181 34.4507 89.6921 34.6108 89.6102 34.744C89.5283 34.8771 89.397 34.9724 89.245 35.0092C89.1696 35.0254 89.0917 35.0266 89.0158 35.0127C88.9399 34.9988 88.8675 34.9699 88.8028 34.9279C88.738 34.8859 88.6823 34.8315 88.6386 34.7679C88.595 34.7042 88.5644 34.6326 88.5485 34.557C88.5129 34.4048 88.5389 34.2447 88.6209 34.1116C88.703 33.9785 88.8344 33.8834 88.9864 33.8469Z" fill="white"/>
<path d="M71.2102 36.1298C71.325 36.1014 71.4456 36.1078 71.5566 36.1482C71.6677 36.1886 71.7643 36.2611 71.834 36.3566C71.9037 36.452 71.9434 36.5661 71.9481 36.6842C71.9528 36.8023 71.9222 36.9191 71.8603 37.0198C71.7983 37.1204 71.7078 37.2004 71.6003 37.2494C71.4927 37.2985 71.373 37.3144 71.2564 37.2952C71.1398 37.276 71.0315 37.2225 70.9454 37.1415C70.8593 37.0605 70.7992 36.9558 70.7729 36.8405C70.7372 36.6883 70.7631 36.5282 70.8451 36.395C70.927 36.2619 71.0583 36.1665 71.2102 36.1298Z" fill="white"/>
<path d="M63.8422 19.3116C62.8211 19.065 61.8467 18.6547 60.9567 18.0968L60.6101 17.8781C59.4205 17.1237 58.8498 16.7629 57.6629 17.1379C58.6627 14.7152 59.9875 12.4398 61.6007 10.3742C61.6346 13.9179 63.3775 21.4628 78.614 16.3168L78.9731 16.1943C79.235 16.1047 79.3761 16.0538 79.3739 16.1468V16.1506C79.3724 16.1656 79.3653 16.1795 79.3541 16.1897C79.3429 16.1998 79.3283 16.2053 79.3132 16.2053C79.2356 16.2506 79.0814 16.3146 78.8403 16.4196L78.6544 16.4988C76.8525 17.2707 75.0091 17.9419 73.1328 18.5096C71.6078 18.9787 70.0463 19.3197 68.4645 19.5292C67.872 19.6005 67.2758 19.6371 66.679 19.6385C65.7237 19.6442 64.7712 19.5344 63.8422 19.3116ZM80.7827 15.6258C80.7761 15.6121 80.775 15.5964 80.7797 15.5819C80.7844 15.5674 80.7945 15.5553 80.8079 15.5481C80.8226 15.5405 85.8807 12.8316 89.0209 13.7987C89.0283 13.801 89.0351 13.8047 89.041 13.8097C89.047 13.8147 89.0519 13.8207 89.0554 13.8276C89.059 13.8345 89.0611 13.842 89.0618 13.8497C89.0624 13.8574 89.0615 13.8651 89.0592 13.8725C89.0549 13.8866 89.0455 13.8985 89.0329 13.9059C89.0202 13.9133 89.0051 13.9157 88.9908 13.9124C88.6389 13.8448 88.2762 13.8574 87.9299 13.9494C87.5835 14.0414 87.2624 14.2104 86.9905 14.4438C86.3481 15.114 85.7259 15.067 84.9032 15.0047C84.7102 14.9905 84.5052 14.9752 84.2931 14.9675C83.6918 14.9483 83.0903 14.998 82.5004 15.1157C81.9353 15.2263 81.3861 15.4064 80.8653 15.652H80.862C80.8477 15.6586 80.8315 15.6594 80.8167 15.6542C80.8019 15.649 80.7897 15.6382 80.7827 15.6241V15.6258Z" fill="#4E5257"/>
<path d="M83.7445 53.2453C83.8079 53.2284 83.8672 53.199 83.9191 53.1588C83.9709 53.1186 84.0142 53.0685 84.0464 53.0113C84.0786 52.9542 84.099 52.8912 84.1065 52.826C84.114 52.7608 84.1084 52.6948 84.09 52.6319C84.0483 52.5053 83.9584 52.4002 83.8399 52.3394C83.7213 52.2785 83.5836 52.2667 83.4564 52.3066C82.385 52.7378 81.2398 52.9557 80.0849 52.9479C79.4136 52.943 79.4289 53.6723 80.0975 53.6772C81.3267 53.6904 82.5524 53.5453 83.7445 53.2453Z" fill="#D49369"/>
<path d="M75.1451 45.744C76.5003 45.9982 78.5346 45.7653 80.5147 45.2377C82.4949 44.7102 84.3963 43.8967 85.476 42.9963C85.5505 42.934 85.6413 42.8944 85.7376 42.8823C85.8339 42.8702 85.9317 42.886 86.0193 42.9279C86.1069 42.9698 86.1805 43.036 86.2316 43.1186C86.2826 43.2011 86.3088 43.2967 86.307 43.3937C86.248 46.4328 85.5351 48.6967 84.445 50.1137C83.8568 50.926 83.0077 51.5119 82.0395 51.7735C81.0662 51.9969 80.0454 51.8728 79.154 51.4225C77.5921 50.6899 75.9897 49.0646 74.6066 46.4848C74.5615 46.4006 74.541 46.3055 74.5477 46.2102C74.5543 46.115 74.5877 46.0236 74.6441 45.9466C74.7004 45.8695 74.7774 45.81 74.8662 45.7748C74.9549 45.7396 75.0518 45.7303 75.1456 45.7478L75.1451 45.744Z" fill="#333333"/>
<path d="M75.4927 45.7976C77.1874 45.9066 78.8882 45.7171 80.5174 45.2377C82.4986 44.7102 84.3989 43.8967 85.4786 42.9963C85.5531 42.934 85.6439 42.8944 85.7402 42.8823C85.8365 42.8702 85.9343 42.886 86.0219 42.9279C86.1095 42.9698 86.1832 43.036 86.2342 43.1186C86.2852 43.2011 86.3114 43.2967 86.3096 43.3937C86.3042 43.6398 86.296 43.8808 86.2817 44.1159C83.1021 46.9199 77.7134 47.459 76.6358 47.1151C76.3505 47.0082 76.0965 46.8317 75.8968 46.6016C75.6971 46.3715 75.5582 46.0951 75.4927 45.7976Z" fill="white"/>
<path d="M77.644 50.4364C78.3995 49.7541 79.6668 49.1243 81.6814 49.4228C81.6814 49.4228 83.3439 46.7561 85.9708 46.5106C85.7357 47.8094 85.2139 49.0395 84.4433 50.1111C83.8549 50.9231 83.0059 51.5088 82.0378 51.7703C81.0646 51.9938 80.0438 51.8699 79.1524 51.4199C78.6089 51.1591 78.1019 50.8285 77.644 50.4364Z" fill="#FE2C6D"/>
<path d="M81.2519 51.0228H81.2486C81.2234 51.0224 81.1985 51.0171 81.1754 51.007C81.1522 50.997 81.1313 50.9825 81.1137 50.9644C81.0962 50.9463 81.0824 50.9248 81.0732 50.9013C81.064 50.8779 81.0595 50.8528 81.06 50.8276C81.0307 50.0912 81.2439 49.3656 81.6669 48.7622C81.7 48.7235 81.7471 48.6996 81.7979 48.6957C81.8486 48.6918 81.8988 48.7083 81.9375 48.7414C81.9761 48.7745 82 48.8216 82.0039 48.8724C82.0078 48.9231 81.9914 48.9734 81.9582 49.012C81.5995 49.5504 81.4197 50.1882 81.4444 50.8347C81.4434 50.885 81.4226 50.9329 81.3866 50.9681C81.3506 51.0033 81.3022 51.0229 81.2519 51.0228Z" fill="#12006C"/>
<path d="M33.5284 41.7591C35.4205 40.2296 37.1848 38.5486 38.8041 36.7327C40.3944 34.7756 42.4205 34.4639 43.8074 35.4546C45.1944 36.4452 46.5114 38.4538 44.7029 41.272C42.8945 44.0902 33.5284 41.7591 33.5284 41.7591Z" fill="#E69865"/>
<path d="M3.4305 45.0628L48.369 40.1748C49.0191 40.1061 49.6699 40.2976 50.1792 40.7074C50.6884 41.1172 51.0147 41.7119 51.0867 42.3616L54.0197 69.3253C54.0884 69.9754 53.897 70.6262 53.4872 71.1356C53.0774 71.6449 52.4827 71.9713 51.8329 72.0434L6.89438 76.9315C6.24428 77.0005 5.59332 76.8091 5.08399 76.3993C4.57465 75.9894 4.24843 75.3945 4.17675 74.7447L1.24317 47.7805C1.17461 47.1304 1.3662 46.4796 1.77608 45.9703C2.18596 45.4611 2.78077 45.1348 3.4305 45.0628Z" fill="#00181F"/>
<path d="M6.63114 77.3288C5.92867 77.3291 5.25088 77.0697 4.72818 76.6004C4.20549 76.1311 3.87481 75.4851 3.79979 74.7866L0.865118 47.8224C0.78518 47.0716 1.00585 46.3196 1.47887 45.731C1.95189 45.1424 2.63875 44.7651 3.38922 44.6816L48.3294 39.7936C48.4331 39.7824 48.5373 39.7768 48.6415 39.7767C49.3437 39.7772 50.0209 40.0369 50.5432 40.5061C51.0655 40.9753 51.3962 41.6208 51.4718 42.3188L54.4048 69.2825C54.4857 70.0337 54.2653 70.7862 53.792 71.3751C53.3187 71.964 52.6312 72.3411 51.8802 72.4238L6.94166 77.3118C6.83853 77.323 6.73487 77.3287 6.63114 77.3288ZM48.6366 40.5448C48.5617 40.5448 48.4869 40.549 48.4125 40.5574L3.47177 45.4454C2.92349 45.5071 2.42187 45.7832 2.07633 46.2133C1.73078 46.6435 1.56934 47.1928 1.62721 47.7415L4.56079 74.7035C4.61558 75.2131 4.85646 75.6845 5.23728 76.0275C5.61809 76.3705 6.11207 76.5609 6.62458 76.5623C6.70165 76.5623 6.77867 76.5581 6.85528 76.5497L51.7938 71.6612C52.3423 71.5998 52.8441 71.3239 53.1898 70.8936C53.5354 70.4634 53.6967 69.9138 53.6384 69.365L50.7064 42.4008C50.6517 41.8904 50.4099 41.4183 50.0277 41.0756C49.6455 40.7328 49.15 40.5437 48.6366 40.5448Z" fill="white"/>
<path d="M40.5594 62.8461C39.9313 62.8116 39.3193 62.6344 38.7699 62.3281C38.2205 62.0217 37.7481 61.5942 37.3886 61.0781C36.6773 60.0705 36.2246 58.9035 36.0705 57.6798C35.8846 56.4588 35.9905 55.2111 36.3793 54.0388C36.6316 53.2795 37.0962 52.6084 37.7182 52.1051C38.2511 51.6853 38.909 51.4555 39.5874 51.4524C40.2003 51.4576 40.7986 51.6406 41.3095 51.9794C41.9101 52.3843 42.3989 52.9341 42.7309 53.5779C43.2491 54.585 43.5689 55.6822 43.6728 56.81C43.8014 57.9134 43.7355 59.0308 43.4782 60.1115C43.3827 60.492 43.2448 60.8606 43.0671 61.2104C42.8158 61.7188 42.4313 62.1496 41.9546 62.4568C41.5355 62.7154 41.0518 62.8503 40.5594 62.8461ZM39.5212 52.6496C39.3221 52.6548 39.1263 52.7018 38.9465 52.7875C38.7667 52.8732 38.607 52.9957 38.4776 53.1471C38.1174 53.5701 37.8716 54.0783 37.7636 54.6232C37.5629 55.5659 37.5302 56.5366 37.6668 57.4906C37.7781 58.438 38.0641 59.3565 38.5104 60.1995C39.0221 61.1054 39.764 61.668 40.4457 61.6685C40.7314 61.6689 41.0073 61.5646 41.2214 61.3755C41.4986 61.1182 41.7046 60.7938 41.8195 60.4335C41.917 60.1548 41.9885 59.8676 42.0333 59.5757C42.1588 58.7138 42.1716 57.8392 42.0716 56.974C41.989 56.0911 41.7806 55.2246 41.4527 54.4007C41.259 53.9005 40.9545 53.4506 40.5621 53.0848C40.2797 52.8179 39.9096 52.6632 39.5212 52.6496Z" fill="white"/>
<path d="M15.7596 64.687C15.6699 62.1077 15.1801 57.1081 14.5317 54.7316C14.3939 54.233 13.3289 54.3489 13.3956 54.9366C13.4331 55.1097 13.4592 55.285 13.4738 55.4615C13.5449 56.1175 13.8565 59.2484 13.9166 59.9077L10.543 60.2746C10.4741 59.641 10.1466 56.5363 10.0575 55.9059C9.85195 54.4561 7.96365 54.8956 7.94561 56.1678C7.91718 58.4475 8.56338 62.8791 8.97777 65.2796C9.22707 66.7322 11.2236 66.4944 11.0744 65.191L10.5703 61.0952C11.7588 61.0438 12.8905 60.9241 14.0741 60.7945C14.3398 62.9993 14.3174 62.7577 14.6208 64.9565C14.7618 65.9892 15.7978 65.776 15.7596 64.687Z" fill="white"/>
<path d="M28.8416 63.3751L30.6916 63.2068C30.8283 63.1942 30.9524 63.1997 31.0623 63.1986C31.143 63.1927 31.2231 63.2165 31.2876 63.2654C31.3522 63.3142 31.3967 63.3849 31.4129 63.4642C31.4292 63.5435 31.4161 63.626 31.376 63.6963C31.3359 63.7666 31.2716 63.82 31.1951 63.8464C30.9967 63.8906 30.7959 63.9233 30.5938 63.9443C30.2619 63.9907 28.5792 64.1821 28.1779 64.2313C27.7766 64.2805 27.3874 64.3089 27.0124 64.3499C26.0873 64.4505 25.9988 63.6195 26.8713 63.5249C26.5229 60.3246 26.1746 57.1242 25.8266 53.9238L25.5155 53.9096C25.4324 53.9096 25.3334 53.9096 25.2164 53.9178C24.0875 53.9883 24.3368 53.3651 24.9836 53.2071C25.1476 53.1787 25.4133 53.1388 25.7872 53.0874C26.1611 53.036 26.5498 52.9906 26.9517 52.9524C27.3535 52.9141 27.7231 52.8824 28.0587 52.8561C29.1521 52.7725 29.3768 53.3553 28.3102 53.5559L27.7821 53.6456C28.1342 56.8882 28.4873 60.1314 28.8416 63.3751Z" fill="white"/>
<path d="M45.3064 61.286C45.2826 61.0709 45.3232 60.8535 45.4231 60.6615C45.5229 60.4695 45.6775 60.3114 45.8672 60.2073C46.057 60.1032 46.2734 60.0577 46.489 60.0767C46.7046 60.0956 46.9097 60.1782 47.0783 60.3138C47.247 60.4494 47.3716 60.632 47.4364 60.8385C47.5012 61.045 47.5033 61.2661 47.4423 61.4738C47.3814 61.6815 47.2602 61.8664 47.094 62.0051C46.9279 62.1438 46.7244 62.2301 46.5091 62.2531C46.4696 62.2574 46.4298 62.2596 46.39 62.2597C46.1213 62.2589 45.8623 62.1591 45.6624 61.9796C45.4626 61.8 45.3358 61.5531 45.3064 61.286ZM45.7339 58.8663C45.6618 58.8308 45.5737 58.6624 45.4726 58.3617C45.3483 57.9753 45.2468 57.5819 45.1686 57.1836C45.068 56.6988 44.9702 56.1467 44.8751 55.5271C44.7799 54.9075 44.6963 54.2684 44.6241 53.6098C44.5622 53.0438 44.5206 52.5979 44.4995 52.272C44.4797 52.0229 44.4733 51.7729 44.4803 51.5231C44.4789 51.3978 44.504 51.2737 44.5542 51.159C44.6024 51.0846 44.672 51.0265 44.7537 50.9922C44.8592 50.9452 44.9691 50.9086 45.0817 50.8829C45.2093 50.8534 45.3391 50.8344 45.4699 50.826C45.5913 50.8166 45.7134 50.8223 45.8334 50.843C45.9237 50.8555 46.011 50.8844 46.0909 50.9283C46.1281 50.9489 46.1595 50.9786 46.1822 51.0146C46.2105 51.0771 46.2318 51.1426 46.2456 51.2098C46.2777 51.354 46.3005 51.5001 46.314 51.6472C46.3347 51.8389 46.3637 52.1051 46.4009 52.4459C46.4567 53.0753 46.4953 53.8115 46.5168 54.6546C46.5383 55.4976 46.5447 56.4421 46.5359 57.4881C46.5242 57.6549 46.5217 57.8223 46.5283 57.9894C46.5348 58.172 46.5414 58.3054 46.5512 58.3912C46.5646 58.487 46.5682 58.5839 46.5622 58.6804C46.556 58.7108 46.5429 58.7392 46.5239 58.7637C46.505 58.7882 46.4807 58.8079 46.4528 58.8215C46.3367 58.8791 46.21 58.912 46.0805 58.9182C46.0536 58.9201 46.0277 58.921 46.0029 58.921C45.9102 58.9241 45.8181 58.9054 45.7339 58.8663Z" fill="white"/>
<path d="M20.8269 64.9866C20.7294 64.9873 20.632 64.9827 20.535 64.9729C20.0408 64.9175 19.558 64.7864 19.1037 64.5842C18.6806 64.3919 18.2946 64.1267 17.9633 63.8008C17.2367 63.0926 16.7221 62.1958 16.4774 61.2111C16.2411 60.2547 16.1854 59.2626 16.3134 58.2857C16.4382 57.2024 16.8639 56.1758 17.5423 55.3221C17.9032 54.878 18.3408 54.5021 18.8342 54.2123C19.3816 53.8952 19.9841 53.6845 20.6099 53.5912C20.845 53.5549 21.0826 53.5366 21.3206 53.5366C21.7426 53.5152 22.1641 53.5868 22.5554 53.7465C22.9466 53.9062 23.2979 54.1499 23.5844 54.4605C23.8036 54.7202 23.9601 55.0267 24.042 55.3565C24.1288 55.7148 24.1396 56.0872 24.0737 56.4499C23.9841 56.9895 23.785 57.505 23.4888 57.9648C23.1996 58.401 22.8307 58.7786 22.4014 59.0779C21.9377 59.3987 21.4331 59.6561 20.9012 59.8433C20.3086 60.0533 19.699 60.2118 19.0791 60.3173C19.0509 60.3197 19.0236 60.3281 18.9989 60.3417C18.9741 60.3554 18.9525 60.374 18.9353 60.3965C18.9183 60.4354 18.9092 60.4773 18.9087 60.5197C18.9081 60.5622 18.916 60.6043 18.932 60.6436C19.0573 61.1695 19.239 61.6804 19.4738 62.1673C19.7327 62.7419 20.113 63.2537 20.5885 63.6674C20.916 63.9505 21.3317 64.1109 21.7645 64.1212C22.0328 64.1116 22.296 64.0453 22.5367 63.9265C22.7775 63.8078 22.9904 63.6394 23.1613 63.4323C23.4686 63.0795 23.6951 62.6638 23.825 62.2143C23.9753 61.7037 24.0225 61.1683 23.9638 60.6393C23.9419 60.5301 23.9438 60.4176 23.9694 60.3093C23.9949 60.2009 24.0436 60.0994 24.112 60.0116C24.1543 59.9641 24.2062 59.926 24.2642 59.8998C24.3222 59.8736 24.3851 59.8599 24.4488 59.8597C24.5327 59.866 24.6145 59.8889 24.6895 59.927C24.7645 59.965 24.8313 60.0176 24.886 60.0815C24.9406 60.1455 24.9821 60.2196 25.008 60.2997C25.034 60.3797 25.0438 60.4641 25.037 60.548C25.0518 61.3297 24.9075 62.1062 24.6128 62.8304C24.4562 63.2132 24.24 63.5688 23.972 63.8839C23.7008 64.2016 23.3625 64.4551 22.9814 64.6263C22.2873 64.8616 21.5598 64.9833 20.8269 64.9866ZM21.4151 54.6671C21.367 54.6671 21.3167 54.6671 21.267 54.6715C20.9845 54.6843 20.708 54.7567 20.4555 54.8839C20.203 55.0111 19.9802 55.1902 19.8018 55.4096C19.3043 56.0761 18.9955 56.8643 18.908 57.6915C18.8007 58.4023 18.7798 59.1236 18.8457 59.8394C20.0585 59.7538 21.2034 59.2474 22.0827 58.4076C22.4096 58.0844 22.6716 57.7015 22.8546 57.2798C23.0118 56.925 23.0865 56.5392 23.0733 56.1514C23.0643 55.7546 22.903 55.3764 22.6228 55.0952C22.2918 54.8 21.8582 54.6463 21.4151 54.6671Z" fill="white"/>
<path d="M34.5575 62.7524L36.407 62.5841C36.5442 62.5709 36.6688 62.577 36.7782 62.5753C36.8594 62.5684 36.9404 62.5915 37.0058 62.6403C37.0711 62.6892 37.1163 62.7603 37.1326 62.8402C37.149 62.9201 37.1355 63.0032 37.0947 63.0738C37.0538 63.1444 36.9885 63.1975 36.911 63.2232C36.7127 63.2676 36.5119 63.3003 36.3096 63.321C35.9773 63.3675 34.2945 63.5594 33.8933 63.608C33.492 63.6567 33.1027 63.6857 32.7277 63.7267C31.8021 63.8273 31.7147 62.9968 32.5861 62.9017C32.2384 59.7017 31.8903 56.5015 31.5419 53.3011L31.2308 53.2864C31.1472 53.2864 31.0472 53.2864 30.9313 53.2946C29.8029 53.3657 30.0527 52.7419 30.6994 52.5839C30.8616 52.5558 31.1295 52.5161 31.5031 52.4647C31.8767 52.4133 32.2646 52.3683 32.667 52.3297C33.0679 52.2932 33.4366 52.2611 33.773 52.2334C34.8664 52.1498 35.0922 52.7326 34.0256 52.9327L33.4974 53.0229C33.8517 56.267 34.2051 59.5102 34.5575 62.7524Z" fill="white"/>
<path d="M30.1731 42.3462C30.9298 44.2991 31.8082 46.2027 32.8033 48.0456C34.2673 50.6697 36.5624 50.8775 37.1145 50.8048C37.6667 50.732 38.2506 50.1591 38.1593 48.8465C38.068 47.5339 37.4223 38.9359 37.0342 36.0849C36.646 33.2339 35.1071 31.0602 33.3369 30.6431C31.5666 30.226 28.4428 32.2351 25.8526 34.5624C25.8526 34.5624 23.8998 31.4462 21.2997 32.3466C18.6996 33.247 17.1787 35.7514 17.1787 35.7514C17.1787 35.7514 14.9968 33.6822 12.3803 35.2769C9.7638 36.8716 9.12745 37.7502 9.12745 37.7502C9.12745 37.7502 7.00681 37.8775 6.20426 38.7697C5.40171 39.662 5.32954 48.735 5.24207 50.4248C5.1546 52.1146 7.24517 51.9812 8.18604 51.2208V53.1375C8.18604 53.1375 8.74148 55.0575 10.1476 54.8361C11.5537 54.6147 12.7127 52.804 13.144 51.7352C13.5754 50.6664 15.5807 44.8255 15.5807 44.8255L14.7644 51.7724C14.355 56.732 18.915 57.089 20.9798 51.4794C21.7403 49.4118 23.3891 43.4768 23.3891 43.4768C25.6781 43.2907 27.9475 42.9125 30.1731 42.3462Z" fill="#F79B62"/>
<path d="M8.17273 51.4119C8.1221 51.4086 8.07486 51.3853 8.04136 51.3472C8.00786 51.3091 7.99081 51.2592 7.99396 51.2086L8.93592 37.7369C8.93689 37.7113 8.94311 37.6863 8.95419 37.6633C8.96526 37.6403 8.98096 37.6198 9.0003 37.6031C9.01963 37.5865 9.0422 37.574 9.06658 37.5664C9.09097 37.5588 9.11665 37.5564 9.14203 37.5592C9.19281 37.5628 9.24008 37.5864 9.27349 37.6249C9.30689 37.6633 9.32371 37.7134 9.32025 37.7642L8.37665 51.2343C8.37319 51.2827 8.35154 51.3279 8.31603 51.361C8.28053 51.3941 8.23382 51.4125 8.18531 51.4125L8.17273 51.4119ZM15.1623 46.0969C15.1129 46.0847 15.0703 46.0533 15.0439 46.0098C15.0175 45.9663 15.0093 45.9141 15.0212 45.8646C15.3549 44.2314 15.1586 42.5342 14.4608 41.0203C14.4409 40.9752 14.439 40.9242 14.4555 40.8778C14.4721 40.8314 14.5058 40.7931 14.5498 40.7708C14.5937 40.7485 14.6446 40.7439 14.6918 40.758C14.739 40.7721 14.7791 40.8037 14.8036 40.8465C15.2633 41.7788 15.5215 42.7976 15.5613 43.8364L16.9899 35.7174C16.9943 35.6925 17.0035 35.6688 17.0171 35.6475C17.0307 35.6263 17.0484 35.6079 17.069 35.5934C17.0897 35.579 17.1131 35.5688 17.1377 35.5633C17.1623 35.5579 17.1878 35.5574 17.2126 35.5618C17.2375 35.5662 17.2612 35.5755 17.2825 35.5891C17.3037 35.6027 17.3221 35.6203 17.3366 35.641C17.351 35.6617 17.3612 35.685 17.3666 35.7097C17.3721 35.7343 17.3726 35.7598 17.3682 35.7846L15.7702 44.8598C15.7659 44.8846 15.7567 44.9083 15.7432 44.9296C15.7298 44.9509 15.7122 44.9693 15.6916 44.9838C15.6709 44.9983 15.6477 45.0085 15.6231 45.014C15.5985 45.0194 15.573 45.02 15.5482 45.0156H15.5367C15.5121 45.3333 15.4646 45.6488 15.3946 45.9597C15.3843 46.0015 15.3604 46.0386 15.3266 46.0651C15.2929 46.0917 15.2512 46.1061 15.2082 46.1062C15.1924 46.1052 15.1768 46.1022 15.1617 46.0975L15.1623 46.0969ZM23.3469 43.6641C23.3222 43.6585 23.2989 43.648 23.2783 43.6333C23.2577 43.6186 23.2402 43.5999 23.2268 43.5784C23.2135 43.5569 23.2045 43.533 23.2004 43.508C23.1963 43.4831 23.1972 43.4575 23.2031 43.4329C23.3326 42.8769 23.4901 42.1924 23.6404 41.5331C23.6404 41.5293 23.6404 41.5249 23.6404 41.5205C23.9029 40.3539 24.1357 39.2682 24.1357 39.1178C24.1325 39.0933 24.1343 39.0683 24.1408 39.0444C24.1473 39.0206 24.1586 38.9982 24.1738 38.9787C24.1891 38.9592 24.2081 38.943 24.2297 38.9309C24.2513 38.9188 24.2752 38.9112 24.2998 38.9084C24.3509 38.9033 24.402 38.9183 24.4422 38.9503C24.4824 38.9822 24.5086 39.0286 24.5152 39.0795C24.4222 39.7675 24.2908 40.4498 24.1215 41.1231L25.1444 40.4004C25.1861 40.372 25.2373 40.3611 25.287 40.3702C25.3366 40.3792 25.3807 40.4073 25.4098 40.4485C25.4389 40.4897 25.4507 40.5407 25.4425 40.5905C25.4344 40.6403 25.4071 40.6849 25.3664 40.7147L23.9996 41.6818C23.8438 42.3772 23.6842 43.0611 23.577 43.5198C23.5673 43.5621 23.5435 43.5998 23.5095 43.6267C23.4756 43.6536 23.4334 43.6682 23.3901 43.668C23.3756 43.6683 23.3611 43.667 23.3469 43.6641ZM29.9821 42.3696C29.9767 42.3269 29.922 41.8622 29.904 41.2051C29.2533 41.2622 28.5995 41.1393 28.014 40.8497C27.9901 40.8399 27.9683 40.8254 27.9501 40.8069C27.9319 40.7885 27.9176 40.7666 27.9081 40.7425C27.8986 40.7184 27.894 40.6927 27.8946 40.6668C27.8953 40.6409 27.9012 40.6154 27.9119 40.5918C27.9227 40.5682 27.9381 40.5471 27.9572 40.5296C27.9763 40.5122 27.9988 40.4987 28.0232 40.4901C28.0477 40.4815 28.0736 40.478 28.0994 40.4797C28.1253 40.4813 28.1505 40.4882 28.1737 40.4999C28.707 40.766 29.3047 40.8761 29.8979 40.8175C29.8815 39.9328 29.9854 39.05 30.2068 38.1933C30.2135 38.169 30.2251 38.1463 30.2407 38.1264C30.2563 38.1066 30.2758 38.0901 30.2979 38.0779C30.32 38.0656 30.3443 38.058 30.3694 38.0553C30.3945 38.0526 30.4199 38.0549 30.4441 38.0621C30.4683 38.0691 30.491 38.0808 30.5107 38.0965C30.5304 38.1123 30.5468 38.1317 30.559 38.1538C30.5712 38.1759 30.5789 38.2002 30.5817 38.2253C30.5845 38.2503 30.5823 38.2757 30.5753 38.3C30.283 39.6201 30.2113 40.9795 30.3632 42.3231C30.3662 42.3482 30.3643 42.3736 30.3575 42.3979C30.3507 42.4222 30.3392 42.445 30.3236 42.4648C30.308 42.4847 30.2887 42.5013 30.2667 42.5136C30.2446 42.526 30.2204 42.5339 30.1953 42.5369C30.1873 42.5375 30.1793 42.5375 30.1713 42.5369C30.1249 42.5364 30.0803 42.5193 30.0457 42.4885C30.011 42.4578 29.9881 42.4155 29.9821 42.3696ZM25.5211 36.943C25.4959 36.9395 25.4717 36.931 25.4499 36.9181C25.428 36.9052 25.4089 36.8881 25.3937 36.8678C25.3784 36.8474 25.3674 36.8243 25.3611 36.7997C25.3548 36.7751 25.3534 36.7495 25.3571 36.7244L25.6616 34.5343C25.6688 34.4836 25.6959 34.4378 25.737 34.407C25.778 34.3762 25.8295 34.363 25.8803 34.3703C25.931 34.3775 25.9768 34.4047 26.0076 34.4457C26.0383 34.4867 26.0515 34.5382 26.0443 34.589L25.7387 36.7796C25.732 36.8252 25.709 36.8669 25.6741 36.897C25.6392 36.9272 25.5945 36.9437 25.5484 36.9436L25.5211 36.943Z" fill="#D49369"/>
<path d="M109.58 31.419C109.409 30.9433 109.433 30.4188 109.649 29.9612C109.864 29.5035 110.252 29.15 110.728 28.9786C111.204 28.8071 111.728 28.8317 112.186 29.0469C112.643 29.2621 112.997 29.6503 113.168 30.1261L117.356 41.7052C117.442 41.8582 117.578 41.9773 117.741 42.0427C117.904 42.108 118.085 42.1156 118.253 42.0643C118.347 42.0269 118.427 41.9613 118.483 41.8763C118.539 41.7913 118.567 41.6913 118.563 41.5898L115.745 27.2177C115.638 26.6642 115.754 26.0905 116.069 25.6229C116.384 25.1553 116.872 24.832 117.426 24.7242C117.979 24.6164 118.553 24.7329 119.021 25.048C119.488 25.3632 119.812 25.8512 119.919 26.4047L122.91 41.6647C122.917 41.7233 122.935 41.7799 122.965 41.8312C122.994 41.8824 123.033 41.9273 123.08 41.963C123.127 41.9988 123.18 42.0247 123.237 42.0392C123.295 42.0537 123.354 42.0565 123.412 42.0474C123.485 42.0312 123.551 41.9923 123.6 41.9361C123.649 41.88 123.679 41.8096 123.686 41.7352L122.45 29.4176C122.421 29.167 122.442 28.9131 122.512 28.6707C122.582 28.4283 122.7 28.2023 122.858 28.0056C123.016 27.8089 123.211 27.6456 123.433 27.525C123.654 27.4045 123.898 27.3292 124.149 27.3034C124.4 27.2777 124.653 27.302 124.895 27.375C125.136 27.4479 125.361 27.5681 125.555 27.7286C125.75 27.8891 125.911 28.0866 126.029 28.3097C126.147 28.5328 126.219 28.7771 126.241 29.0283L127.676 43.3321C127.68 43.3458 127.801 43.776 128.095 43.7853C128.182 43.7874 128.268 43.7661 128.344 43.7236C128.42 43.6811 128.483 43.619 128.527 43.5437L130.167 33.4374C130.244 32.9667 130.504 32.5457 130.891 32.2669C131.278 31.9881 131.76 31.8745 132.23 31.951C132.701 32.0275 133.122 32.2878 133.401 32.6747C133.68 33.0617 133.793 33.5435 133.717 34.0142L131.741 46.1853C131.215 51.5337 134.271 63.789 123.066 61.6022C118.008 64.597 112.884 60.2426 110.006 57.3609C107.127 54.4793 103.655 52.3313 102.308 52.2017C96.9936 51.6889 99.6479 48.0518 103.085 48.3142C105.238 48.4782 107.693 49.8346 109.318 51.122C111.873 53.1492 114.758 51.0127 114.631 47.4794C114.502 45.8519 114.176 44.2461 113.661 42.6969V42.6908L109.58 31.419Z" fill="#F79B62"/>
<g opacity="0.165">
<path d="M122.942 61.7484C122.922 61.732 122.906 61.7119 122.895 61.6893C122.883 61.6667 122.876 61.6419 122.873 61.6165C122.871 61.5911 122.874 61.5655 122.882 61.5412C122.89 61.5169 122.902 61.4944 122.919 61.475C122.942 61.4488 125.137 58.782 123.764 54.5522C122.288 50.0146 118.45 48.0613 115.513 48.1559C115.488 48.1589 115.462 48.1563 115.437 48.1483C115.413 48.1402 115.39 48.1269 115.371 48.1093C115.352 48.0916 115.337 48.0701 115.328 48.0461C115.318 48.0221 115.314 47.9963 115.315 47.9705C115.314 47.9453 115.318 47.9202 115.327 47.8966C115.336 47.873 115.349 47.8513 115.367 47.8329C115.384 47.8144 115.404 47.7996 115.427 47.7892C115.45 47.7787 115.475 47.7729 115.5 47.7721C118.576 47.666 122.593 49.7052 124.129 54.4319C125.572 58.8739 123.309 61.6073 123.213 61.7221C123.195 61.7435 123.172 61.7606 123.147 61.7723C123.121 61.784 123.094 61.79 123.066 61.7899C123.021 61.7912 122.977 61.7765 122.942 61.7484ZM118.153 44.7734C118.131 44.7276 118.127 44.6749 118.144 44.6267C118.16 44.5785 118.195 44.5387 118.24 44.5159C118.263 44.5045 118.288 44.4976 118.313 44.4958C118.338 44.4939 118.364 44.497 118.388 44.505C118.412 44.513 118.434 44.5256 118.453 44.5422C118.472 44.5589 118.488 44.5791 118.499 44.6018C118.538 44.6799 122.553 52.4463 131.188 50.3672C131.238 50.3561 131.29 50.3647 131.333 50.3911C131.376 50.4175 131.407 50.4598 131.42 50.5088C131.432 50.5584 131.423 50.6106 131.397 50.654C131.37 50.6974 131.328 50.7286 131.278 50.7406C130.309 50.9788 129.314 51.1013 128.316 51.1058C121.419 51.1058 118.189 44.8456 118.153 44.7734ZM130.268 45.6296C122.16 39.5465 114.991 43.4936 114.92 43.5341C114.876 43.5564 114.825 43.5609 114.777 43.5467C114.73 43.5324 114.69 43.5006 114.666 43.4576C114.641 43.4147 114.634 43.364 114.646 43.3161C114.658 43.2681 114.688 43.2266 114.729 43.2C114.803 43.1579 122.192 39.09 130.497 45.3229C130.53 45.347 130.553 45.3807 130.566 45.4192C130.578 45.4577 130.577 45.499 130.564 45.5373C130.552 45.5755 130.527 45.6088 130.494 45.6323C130.462 45.6558 130.422 45.6685 130.382 45.6684C130.341 45.6682 130.301 45.6546 130.268 45.6296Z" fill="black"/>
</g>
<path d="M79.1475 129.818C79.1213 129.819 79.0951 129.814 79.0707 129.805C79.0463 129.795 79.0241 129.78 79.0056 129.762C78.9871 129.743 78.9726 129.721 78.963 129.696C78.9534 129.672 78.9489 129.646 78.9499 129.619C78.9508 129.593 78.9571 129.567 78.9684 129.544C78.9797 129.52 78.9958 129.499 79.0156 129.482C79.0354 129.464 79.0586 129.451 79.0836 129.443C79.1087 129.435 79.1351 129.433 79.1612 129.435C93.1282 129.954 99.9357 127.94 100.002 127.92C100.026 127.913 100.051 127.91 100.076 127.912C100.102 127.915 100.126 127.922 100.148 127.934C100.171 127.946 100.19 127.962 100.206 127.981C100.222 128.001 100.234 128.023 100.242 128.047C100.249 128.072 100.252 128.097 100.249 128.122C100.247 128.147 100.24 128.171 100.228 128.194C100.216 128.216 100.2 128.236 100.18 128.252C100.161 128.268 100.139 128.28 100.114 128.287C100.054 128.306 94.6475 129.905 83.6507 129.905C82.242 129.904 80.741 129.875 79.1475 129.818ZM105.52 100.839C103.195 94.7404 102.841 88.0286 104.452 80.8603L104.179 80.2245C104.159 80.1777 104.158 80.1248 104.177 80.0775C104.196 80.0303 104.233 79.9925 104.28 79.9725C104.327 79.9524 104.379 79.9519 104.427 79.9708C104.474 79.9898 104.512 80.0268 104.532 80.0736L104.598 80.2272C104.717 79.7352 104.844 79.2408 104.981 78.744C104.995 78.6951 105.027 78.6536 105.072 78.6285C105.116 78.6034 105.168 78.5966 105.217 78.6095C105.266 78.6232 105.308 78.6558 105.333 78.7002C105.358 78.7446 105.365 78.7971 105.351 78.8463C105.165 79.5234 104.996 80.1966 104.844 80.8658C104.842 80.8799 104.839 80.8938 104.835 80.9073C103.228 88.0144 103.577 94.666 105.878 100.704C105.896 100.751 105.894 100.804 105.874 100.85C105.853 100.896 105.816 100.932 105.768 100.951C105.747 100.959 105.724 100.964 105.701 100.963C105.662 100.964 105.623 100.952 105.591 100.93C105.559 100.908 105.534 100.876 105.52 100.839ZM48.8539 97.5378C48.8342 97.5216 48.8179 97.5017 48.8059 97.4791C48.794 97.4566 48.7866 97.4318 48.7843 97.4064C48.782 97.381 48.7847 97.3554 48.7923 97.331C48.8 97.3066 48.8124 97.284 48.8288 97.2645C48.8753 97.2098 53.5025 91.5368 54.0476 85.9867C54.5926 80.4366 51.3726 74.5651 51.3403 74.506C51.3156 74.4614 51.3096 74.4089 51.3236 74.3599C51.3377 74.3109 51.3706 74.2694 51.4152 74.2447C51.4598 74.22 51.5124 74.214 51.5614 74.228C51.6104 74.2421 51.6518 74.275 51.6765 74.3196C52.451 75.8054 53.0827 77.3614 53.5632 78.9665L56.0004 70.3834L55.9096 70.1368C55.8974 70.1035 55.8946 70.0674 55.9015 70.0326C55.9085 69.9977 55.925 69.9655 55.9492 69.9395C55.9734 69.9134 56.0043 69.8946 56.0385 69.885C56.0727 69.8755 56.1089 69.8756 56.1431 69.8853L56.2967 69.3447C56.3031 69.3199 56.3143 69.2966 56.3299 69.2762C56.3454 69.2558 56.3648 69.2388 56.387 69.226C56.4092 69.2133 56.4338 69.2051 56.4592 69.202C56.4846 69.1989 56.5104 69.2009 56.535 69.2079C56.5596 69.2149 56.5826 69.2268 56.6026 69.2428C56.6226 69.2588 56.6391 69.2787 56.6513 69.3012C56.6635 69.3237 56.671 69.3485 56.6735 69.374C56.676 69.3995 56.6733 69.4252 56.6657 69.4496L53.7644 79.6696C54.3632 81.7322 54.5881 83.8853 54.4286 86.0271C53.8732 91.6953 49.1721 97.4542 49.1251 97.5121C49.1089 97.5319 49.0889 97.5482 49.0664 97.5601C49.0439 97.5721 49.0192 97.5795 48.9938 97.5819C48.9684 97.5842 48.9427 97.5816 48.9184 97.574C48.894 97.5665 48.8714 97.5542 48.8518 97.5378H48.8539ZM73.9206 68.1026C70.4671 66.6319 68.7155 63.729 68.8554 59.7129C68.8541 59.687 68.8584 59.6611 68.868 59.6369C68.8777 59.6128 68.8925 59.5911 68.9113 59.5732C68.9302 59.5553 68.9527 59.5418 68.9773 59.5334C69.0019 59.5251 69.028 59.5222 69.0539 59.5249C69.0791 59.5257 69.1039 59.5315 69.1268 59.542C69.1498 59.5524 69.1705 59.5673 69.1877 59.5857C69.2049 59.6041 69.2183 59.6258 69.2271 59.6494C69.236 59.673 69.2401 59.6981 69.2392 59.7233C69.1063 63.5677 70.7765 66.3422 74.0709 67.7467C80.2541 70.3834 91.1426 67.6893 96.4767 62.2042C96.5134 62.174 96.56 62.1584 96.6074 62.1604C96.6549 62.1625 96.7 62.182 96.7339 62.2152C96.7678 62.2485 96.7883 62.2932 96.7913 62.3406C96.7943 62.388 96.7796 62.4349 96.7501 62.4721C92.7592 66.5778 85.6992 69.1418 79.7347 69.1418C77.7468 69.1851 75.7703 68.8318 73.9206 68.1026Z" fill="#BFE1FF"/>
<path d="M109.869 57.4973C107.021 54.6452 103.588 52.5191 102.29 52.3933C99.2837 52.1041 99.065 50.8866 99.1071 50.3766C99.2088 49.2017 100.972 47.964 103.101 48.1225C105.339 48.2936 107.84 49.7079 109.436 50.9714C109.846 51.3456 110.358 51.5899 110.907 51.6732C111.456 51.7565 112.018 51.6751 112.52 51.4393C113.749 50.8177 114.502 49.2668 114.438 47.4867C114.307 45.8778 113.985 44.2902 113.478 42.7578L109.399 31.4832C109.258 31.0926 109.236 30.669 109.336 30.2659C109.436 29.8629 109.653 29.4985 109.96 29.219C110.267 28.9394 110.65 28.7572 111.061 28.6954C111.472 28.6336 111.891 28.6949 112.267 28.8717C112.517 28.9883 112.741 29.1534 112.927 29.3575C113.112 29.5615 113.256 29.8004 113.348 30.0602C113.358 30.0841 113.362 30.1097 113.362 30.1354C113.361 30.1612 113.355 30.1865 113.345 30.21C113.334 30.2335 113.319 30.2546 113.3 30.2721C113.281 30.2896 113.259 30.3031 113.235 30.3118C113.211 30.3206 113.185 30.3243 113.159 30.3229C113.134 30.3215 113.108 30.3149 113.085 30.3036C113.062 30.2923 113.042 30.2764 113.025 30.2569C113.008 30.2375 112.995 30.2148 112.987 30.1903C112.912 29.9764 112.796 29.7794 112.645 29.6108C112.493 29.4422 112.31 29.3052 112.106 29.2078C111.901 29.1104 111.679 29.0545 111.453 29.0434C111.227 29.0322 111 29.0661 110.787 29.1429C110.574 29.2198 110.378 29.3381 110.211 29.4911C110.044 29.644 109.909 29.8286 109.813 30.0341C109.718 30.2397 109.664 30.462 109.656 30.6884C109.647 30.9148 109.683 31.1408 109.762 31.3531L113.838 42.6244C114.363 44.1945 114.693 45.823 114.822 47.4736C114.892 49.4023 114.057 51.0944 112.694 51.7832C112.126 52.0537 111.491 52.1496 110.869 52.0588C110.246 51.968 109.665 51.6946 109.199 51.2731C107.648 50.0436 105.225 48.6709 103.076 48.5069C101.193 48.362 99.5767 49.4313 99.4941 50.4105C99.4225 51.2354 100.483 51.8319 102.33 52.0123C103.723 52.1462 107.196 54.274 110.145 57.2267C111.512 58.5934 115.672 62.7516 120.041 62.3979C120.091 62.3936 120.142 62.4097 120.181 62.4425C120.22 62.4754 120.244 62.5224 120.248 62.5731C120.252 62.6239 120.236 62.6742 120.203 62.7131C120.171 62.752 120.124 62.7763 120.073 62.7806C119.881 62.7964 119.69 62.8041 119.501 62.8041C115.171 62.8024 111.209 58.8378 109.869 57.4973ZM79.2844 58.419C72.9268 57.7225 65.2703 52.893 62.8474 41.4271C62.8409 41.4021 62.8396 41.3759 62.8435 41.3503C62.8474 41.3248 62.8564 41.3002 62.87 41.2782C62.8837 41.2562 62.9016 41.2372 62.9228 41.2223C62.944 41.2074 62.9679 41.1969 62.9932 41.1915C63.0186 41.1862 63.0447 41.1859 63.0701 41.1909C63.0955 41.1959 63.1196 41.206 63.1411 41.2205C63.1625 41.2351 63.1807 41.2538 63.1947 41.2756C63.2087 41.2974 63.2181 41.3218 63.2224 41.3473C65.6033 52.6125 73.1023 57.3557 79.3259 58.0374C79.3747 58.0426 79.4195 58.0663 79.4514 58.1036C79.4832 58.1408 79.4996 58.1889 79.4972 58.2378C79.4947 58.2868 79.4736 58.3329 79.4382 58.3668C79.4028 58.4007 79.3558 58.4198 79.3068 58.4201L79.2844 58.419ZM5.23258 50.6171C5.20734 50.6159 5.18259 50.6097 5.15976 50.5989C5.13692 50.5881 5.11645 50.5729 5.09952 50.5542C5.0826 50.5354 5.06956 50.5135 5.06115 50.4897C5.05274 50.4658 5.04913 50.4406 5.05053 50.4154C5.06693 50.0988 5.08278 49.5237 5.1052 48.7911C5.22875 44.2563 5.41736 39.359 6.06192 38.6422C6.82183 37.7971 8.61171 37.6008 9.02994 37.5658C9.23932 37.3203 10.0501 36.4724 12.2811 35.1133C13.0268 34.6609 13.8948 34.4518 14.7647 34.515C15.6347 34.5782 16.4633 34.9105 17.1358 35.4659C18.1365 33.9757 19.5664 32.8247 21.236 32.1655C23.5633 31.3608 25.397 33.5995 25.8863 34.2752C27.253 33.0692 31.0968 29.917 33.3804 30.4571C35.2545 30.8988 36.835 33.2032 37.2231 36.0596C37.6195 38.9642 38.2755 47.7541 38.3499 48.8338C38.3516 48.8589 38.3485 48.8842 38.3405 48.9082C38.3325 48.9321 38.3198 48.9542 38.3033 48.9733C38.2867 48.9923 38.2666 49.0079 38.244 49.0191C38.2214 49.0304 38.1968 49.0371 38.1716 49.0388C38.1209 49.0414 38.0711 49.0242 38.0328 48.9909C37.9945 48.9575 37.9705 48.9106 37.9661 48.86C37.8917 47.7819 37.2362 39.0063 36.8426 36.1121C36.4741 33.4087 35.0145 31.2372 33.2918 30.831C31.5424 30.4194 28.3666 32.5624 25.9792 34.706C25.9583 34.7247 25.9336 34.7386 25.9068 34.7468C25.88 34.755 25.8517 34.7572 25.824 34.7533C25.7962 34.7494 25.7697 34.7394 25.7461 34.7242C25.7226 34.709 25.7027 34.6888 25.6878 34.665C25.6692 34.6355 23.7826 31.6872 21.3612 32.5291C18.8552 33.3978 17.3567 35.8273 17.3414 35.8519C17.3266 35.8765 17.3065 35.8975 17.2825 35.9133C17.2585 35.9291 17.2313 35.9393 17.2028 35.9431C17.1744 35.947 17.1454 35.9443 17.1181 35.9355C17.0908 35.9266 17.0658 35.9117 17.0451 35.8918C16.4355 35.3318 15.6604 34.9851 14.8367 34.904C14.0129 34.8228 13.1851 35.0116 12.478 35.4419C9.94292 36.9858 9.28688 37.8561 9.27978 37.8648C9.26312 37.8876 9.24165 37.9065 9.21691 37.9201C9.19216 37.9337 9.16472 37.9417 9.13654 37.9436C9.11577 37.9436 7.08533 38.0764 6.34511 38.8992C5.74319 39.5705 5.56387 46.0396 5.48788 48.8015C5.46711 49.5385 5.45125 50.1169 5.43321 50.4351C5.43083 50.4842 5.40962 50.5305 5.37399 50.5644C5.33836 50.5983 5.29105 50.6172 5.24187 50.6171H5.23258ZM128.496 43.7287C128.446 43.7206 128.402 43.6931 128.372 43.6522C128.342 43.6112 128.33 43.5601 128.337 43.51L129.977 33.4038C130.062 32.8828 130.35 32.4168 130.778 32.1083C131.207 31.7997 131.74 31.6739 132.261 31.7585C132.782 31.8431 133.248 32.1312 133.556 32.5594C133.865 32.9876 133.991 33.5208 133.906 34.0418C133.902 34.0668 133.893 34.0907 133.88 34.1123C133.867 34.1338 133.85 34.1526 133.829 34.1674C133.809 34.1822 133.785 34.1929 133.761 34.1987C133.736 34.2046 133.711 34.2055 133.686 34.2015C133.661 34.1975 133.637 34.1885 133.615 34.1752C133.594 34.1619 133.575 34.1445 133.561 34.124C133.546 34.1035 133.535 34.0802 133.53 34.0556C133.524 34.031 133.523 34.0055 133.527 33.9806C133.567 33.7699 133.564 33.5534 133.519 33.3438C133.473 33.1343 133.387 32.9359 133.264 32.7604C133.14 32.5849 132.983 32.4358 132.802 32.3219C132.62 32.208 132.418 32.1316 132.206 32.0972C131.994 32.0628 131.778 32.0711 131.57 32.1216C131.361 32.1721 131.165 32.2637 130.993 32.3912C130.82 32.5187 130.675 32.6794 130.566 32.8638C130.457 33.0482 130.385 33.2526 130.356 33.465L128.716 43.5713C128.71 43.6168 128.687 43.6584 128.652 43.6885C128.617 43.7187 128.573 43.7352 128.527 43.7353C128.516 43.7347 128.505 43.7331 128.495 43.7304L128.496 43.7287ZM123.494 41.7486L122.26 29.4309C122.23 29.156 122.255 28.8778 122.333 28.6125C122.411 28.3471 122.54 28.0998 122.714 27.8848C122.888 27.6698 123.103 27.4913 123.346 27.3596C123.59 27.2279 123.856 27.1456 124.132 27.1175C124.407 27.0893 124.685 27.1159 124.95 27.1956C125.214 27.2753 125.461 27.4066 125.675 27.5819C125.889 27.7572 126.066 27.9731 126.196 28.2172C126.326 28.4613 126.407 28.7286 126.433 29.004C126.436 29.0291 126.433 29.0545 126.426 29.0787C126.419 29.1029 126.407 29.1254 126.391 29.145C126.375 29.1645 126.355 29.1808 126.333 29.1927C126.311 29.2047 126.286 29.2122 126.261 29.2147C126.236 29.2173 126.211 29.2148 126.187 29.2076C126.162 29.2003 126.14 29.1884 126.12 29.1724C126.101 29.1564 126.084 29.1368 126.073 29.1145C126.061 29.0923 126.053 29.0679 126.051 29.0428C126.028 28.8189 125.961 28.6018 125.854 28.4038C125.747 28.2058 125.602 28.0307 125.428 27.8887C125.253 27.7466 125.052 27.6404 124.837 27.5759C124.621 27.5115 124.395 27.4902 124.171 27.5131C123.947 27.5361 123.73 27.6029 123.532 27.7098C123.334 27.8167 123.159 27.9616 123.017 28.1361C122.875 28.3106 122.769 28.5114 122.704 28.727C122.64 28.9426 122.618 29.1688 122.641 29.3927L123.876 41.7147C123.881 41.7653 123.866 41.8157 123.834 41.855C123.802 41.8944 123.755 41.9194 123.705 41.9246H123.686C123.638 41.9246 123.592 41.9067 123.556 41.8744C123.521 41.8422 123.499 41.7979 123.494 41.7502V41.7486ZM118.375 41.6234L115.557 27.2518C115.441 26.6482 115.568 26.023 115.912 25.5133C116.256 25.0036 116.787 24.6511 117.391 24.5331C117.69 24.4749 117.997 24.4762 118.295 24.5368C118.593 24.5973 118.877 24.7161 119.129 24.8862C119.381 25.0563 119.598 25.2745 119.766 25.5282C119.934 25.782 120.05 26.0663 120.108 26.3651C120.113 26.3898 120.113 26.4152 120.108 26.4399C120.104 26.4646 120.094 26.4881 120.08 26.509C120.066 26.5299 120.048 26.5479 120.027 26.5618C120.006 26.5758 119.982 26.5855 119.958 26.5903C119.908 26.5997 119.856 26.589 119.814 26.5607C119.772 26.5324 119.742 26.4886 119.732 26.4389C119.634 25.9353 119.34 25.4913 118.914 25.2046C118.489 24.9179 117.967 24.8119 117.463 24.91C116.96 25.0081 116.516 25.3022 116.229 25.7277C115.942 26.1531 115.836 26.675 115.934 27.1785L118.751 41.5507C118.761 41.6005 118.75 41.6522 118.722 41.6944C118.694 41.7366 118.65 41.7659 118.6 41.7759C118.588 41.7783 118.575 41.7796 118.563 41.7797C118.519 41.7797 118.476 41.7644 118.441 41.7362C118.407 41.7081 118.384 41.669 118.375 41.6256V41.6234ZM62.3991 33.7581C58.1048 33.5006 55.6053 30.2045 55.7113 24.9382C55.9125 14.9265 65.2687 0.788915 80.0481 0.498618C82.3325 0.438857 84.6134 0.712159 86.819 1.30992C86.8433 1.31667 86.866 1.32814 86.8859 1.34367C86.9057 1.3592 86.9224 1.3785 86.9348 1.40046C86.9472 1.42241 86.9551 1.4466 86.9582 1.47163C86.9613 1.49667 86.9594 1.52206 86.9526 1.54636C86.9459 1.57067 86.9344 1.5934 86.9189 1.61327C86.9033 1.63314 86.884 1.64976 86.8621 1.66217C86.8401 1.67458 86.8159 1.68255 86.7909 1.68561C86.7659 1.68868 86.7405 1.68678 86.7162 1.68003C84.5471 1.0921 82.304 0.823398 80.0574 0.8824C65.5043 1.16832 56.2936 15.0905 56.0951 24.9458C55.9918 30.0553 58.2983 33.1277 62.4226 33.3754C62.4709 33.3802 62.5157 33.4032 62.5477 33.4397C62.5798 33.4762 62.5968 33.5235 62.5954 33.5721C62.5939 33.6206 62.5741 33.6668 62.5399 33.7014C62.5057 33.7359 62.4597 33.7561 62.4111 33.7581H62.3991Z" fill="white"/>
<path d="M69.496 44.0416C67.5116 44.0398 65.6022 43.2826 64.1558 41.9239C62.7095 40.5651 61.8346 38.7067 61.7091 36.7262C61.5835 34.7457 62.2166 32.7916 63.4798 31.2611C64.743 29.7305 66.5414 28.7382 68.5098 28.4859C68.8427 28.4432 69.1779 28.4216 69.5135 28.4214C71.4103 28.4254 73.2409 29.119 74.6642 30.3727C76.0875 31.6264 77.0065 33.3549 77.2499 35.2359C77.514 37.2899 76.9514 39.3647 75.6858 41.0038C74.4203 42.643 72.5554 43.7123 70.5014 43.9765C70.168 44.0196 69.8322 44.0413 69.496 44.0416ZM69.5135 28.9588C69.2002 28.959 68.8873 28.9791 68.5765 29.0189C66.6639 29.2651 64.9275 30.261 63.7491 31.7875C62.5708 33.314 62.0471 35.2461 62.2933 37.1587C62.5207 38.9097 63.3766 40.5185 64.7015 41.6856C66.0265 42.8528 67.7303 43.4989 69.496 43.5036C69.8093 43.5034 70.1223 43.4833 70.4331 43.4435C71.3804 43.3221 72.2946 43.0151 73.1233 42.5403C73.952 42.0655 74.6791 41.432 75.2629 40.6761C75.8467 39.9202 76.2759 39.0567 76.526 38.1349C76.776 37.2131 76.842 36.251 76.7201 35.3037C76.4926 33.5521 75.6362 31.9428 74.3105 30.7755C72.9847 29.6083 71.2799 28.9626 69.5135 28.9588Z" fill="white"/>
<path d="M88.4425 41.9833C86.363 41.9813 84.3623 41.1878 82.8468 39.7641C81.3312 38.3403 80.4144 36.393 80.2827 34.3178C80.1509 32.2425 80.8141 30.1949 82.1374 28.5909C83.4608 26.9869 85.3451 25.9468 87.4076 25.6819C87.7571 25.6369 88.1092 25.6142 88.4616 25.6141C90.4489 25.619 92.3667 26.3459 93.8579 27.6595C95.3492 28.973 96.3123 30.7837 96.5681 32.7545C96.7149 33.9083 96.6144 35.0802 96.2732 36.1923C95.9321 37.3043 95.3581 38.3309 94.5894 39.2039C93.8208 40.0769 92.8751 40.7763 91.8152 41.2555C90.7554 41.7347 89.6056 41.9828 88.4425 41.9833ZM88.4616 26.1515C88.1326 26.152 87.8039 26.1731 87.4776 26.2149C85.5507 26.4624 83.7903 27.434 82.5539 28.9324C81.3175 30.4308 80.6977 32.3436 80.8204 34.2824C80.9432 36.2212 81.7993 38.0406 83.2148 39.3711C84.6304 40.7016 86.4993 41.4434 88.4419 41.4459C89.529 41.4462 90.6037 41.2149 91.5944 40.7674C92.5851 40.3199 93.4691 39.6666 94.1876 38.8508C94.9061 38.035 95.4425 37.0755 95.7613 36.0363C96.08 34.997 96.1737 33.9017 96.0361 32.8234C95.7969 30.9821 94.8969 29.2904 93.5035 28.063C92.1102 26.8357 90.3184 26.1564 88.4616 26.1515Z" fill="white"/>
<path d="M76.4595 33.5795C76.3989 33.5792 76.3401 33.5585 76.2928 33.5207C76.2454 33.4829 76.2122 33.4302 76.1986 33.3712C76.1849 33.3121 76.1916 33.2502 76.2175 33.1954C76.2434 33.1407 76.2871 33.0963 76.3414 33.0694C77.6788 32.4196 79.1921 32.2249 80.6504 32.515C80.6861 32.5209 80.7203 32.5338 80.7508 32.5531C80.7814 32.5724 80.8078 32.5977 80.8284 32.6275C80.8489 32.6572 80.8633 32.6908 80.8706 32.7262C80.8779 32.7616 80.878 32.7981 80.8709 32.8336C80.8637 32.869 80.8495 32.9027 80.8291 32.9325C80.8087 32.9623 80.7824 32.9877 80.7519 33.0072C80.7215 33.0267 80.6874 33.0398 80.6517 33.0458C80.616 33.0518 80.5796 33.0505 80.5444 33.0421C79.2019 32.775 77.8088 32.9541 76.5776 33.5521C76.5408 33.5701 76.5004 33.5795 76.4595 33.5795Z" fill="white"/>
<path d="M83.445 37.9782C82.7827 37.1841 82.3186 36.244 82.0908 35.2354C81.8629 34.2267 81.8779 33.1784 82.1345 32.1767C82.1408 32.1523 82.1518 32.1294 82.167 32.1092C82.1821 32.0891 82.2011 32.0721 82.2228 32.0593C82.2445 32.0465 82.2685 32.038 82.2935 32.0345C82.3184 32.031 82.3438 32.0324 82.3682 32.0387C82.3926 32.0449 82.4156 32.056 82.4357 32.0711C82.4559 32.0863 82.4728 32.1052 82.4857 32.1269C82.4985 32.1486 82.5069 32.1726 82.5104 32.1976C82.514 32.2225 82.5126 32.248 82.5063 32.2724C82.2656 33.2151 82.252 34.2015 82.4665 35.1506C82.6811 36.0996 83.1178 36.9842 83.7407 37.7317C83.7573 37.7511 83.7698 37.7737 83.7776 37.798C83.7854 37.8223 83.7882 37.848 83.786 37.8734C83.7837 37.8988 83.7765 37.9236 83.7646 37.9462C83.7527 37.9688 83.7364 37.9888 83.7167 38.005C83.6972 38.0215 83.6746 38.0339 83.6503 38.0416C83.626 38.0493 83.6004 38.0521 83.575 38.0498C83.5496 38.0476 83.5249 38.0404 83.5023 38.0285C83.4797 38.0167 83.4596 38.0006 83.4433 37.981L83.445 37.9782ZM82.4768 31.7C82.4296 31.6814 82.3916 31.645 82.3712 31.5986C82.3507 31.5523 82.3493 31.4997 82.3674 31.4523C82.4509 31.237 82.5453 31.0261 82.6501 30.8203C82.6744 30.7769 82.7147 30.7446 82.7623 30.7303C82.81 30.7159 82.8614 30.7206 82.9057 30.7433C82.95 30.766 82.9838 30.805 82.9999 30.8521C83.0161 30.8992 83.0133 30.9507 82.9923 30.9958C82.8931 31.1893 82.8043 31.3878 82.726 31.5906C82.7169 31.6142 82.7032 31.6358 82.6857 31.6541C82.6682 31.6724 82.6473 31.687 82.6241 31.6972C82.601 31.7073 82.576 31.7128 82.5507 31.7133C82.5254 31.7138 82.5003 31.7092 82.4768 31.7Z" fill="white"/>
<path d="M63.8485 38.8254C63.7801 38.6751 63.7162 38.5203 63.6598 38.3634C63.6503 38.3396 63.6457 38.3141 63.6462 38.2884C63.6467 38.2627 63.6523 38.2374 63.6628 38.214C63.6733 38.1905 63.6883 38.1694 63.7071 38.1519C63.7259 38.1343 63.748 38.1208 63.7721 38.112C63.7962 38.1031 63.8219 38.0992 63.8475 38.1005C63.8732 38.1018 63.8983 38.1082 63.9214 38.1194C63.9446 38.1305 63.9652 38.1462 63.9822 38.1655C63.9991 38.1848 64.012 38.2073 64.0201 38.2317C64.0741 38.3797 64.1337 38.5242 64.1989 38.6652C64.2198 38.7117 64.2215 38.7646 64.2036 38.8123C64.1857 38.8601 64.1496 38.8988 64.1032 38.92C64.0784 38.9315 64.0513 38.9375 64.0239 38.9375C63.987 38.9377 63.9508 38.9272 63.9197 38.9073C63.8886 38.8874 63.8638 38.859 63.8485 38.8254ZM63.4477 37.6609C63.4007 37.4494 63.3619 37.2356 63.3351 37.0251C63.1314 35.4586 63.5337 33.8734 64.4597 32.5936C64.4895 32.5523 64.5346 32.5247 64.5849 32.5166C64.6098 32.5126 64.6352 32.5136 64.6597 32.5194C64.6843 32.5253 64.7074 32.5359 64.7278 32.5507C64.7482 32.5655 64.7656 32.5841 64.7788 32.6056C64.792 32.6271 64.8008 32.651 64.8048 32.6759C64.8088 32.7008 64.8078 32.7262 64.802 32.7507C64.7961 32.7753 64.7855 32.7984 64.7707 32.8188C63.9025 34.0188 63.525 35.5049 63.7156 36.9737C63.7413 37.1749 63.7778 37.3746 63.8249 37.5718C63.8364 37.6214 63.8278 37.6735 63.801 37.7168C63.7741 37.76 63.7312 37.7908 63.6817 37.8025C63.667 37.8058 63.652 37.8074 63.6369 37.8075C63.5935 37.8079 63.5512 37.7936 63.5169 37.767C63.4825 37.7405 63.4582 37.7031 63.4477 37.6609Z" fill="white"/>
</g>
</svg>
