<svg width="30" height="30" viewBox="0 0 30 30" fill="none" xmlns="http://www.w3.org/2000/svg">
<path d="M15.8186 7.30333C15.5258 7.07562 15.3794 6.96177 15.2178 6.918C15.0752 6.87938 14.9248 6.87938 14.7822 6.918C14.6206 6.96177 14.4742 7.07562 14.1814 7.30333L8.52949 11.6993C8.15168 11.9931 7.96278 12.14 7.82669 12.324C7.70614 12.487 7.61633 12.6707 7.56169 12.8659C7.5 13.0863 7.5 13.3256 7.5 13.8042V19.8333C7.5 20.7667 7.5 21.2335 7.68166 21.59C7.84144 21.9036 8.09641 22.1585 8.41002 22.3183C8.76654 22.5 9.23325 22.5 10.1667 22.5H11.8333C12.0667 22.5 12.1834 22.5 12.2725 22.4546C12.3509 22.4146 12.4146 22.3509 12.4546 22.2725C12.5 22.1834 12.5 22.0667 12.5 21.8333V16.3333C12.5 15.8666 12.5 15.6333 12.5908 15.455C12.6707 15.2982 12.7982 15.1707 12.955 15.0908C13.1333 15 13.3666 15 13.8333 15H16.1667C16.6334 15 16.8667 15 17.045 15.0908C17.2018 15.1707 17.3293 15.2982 17.4092 15.455C17.5 15.6333 17.5 15.8666 17.5 16.3333V21.8333C17.5 22.0667 17.5 22.1834 17.5454 22.2725C17.5854 22.3509 17.6491 22.4146 17.7275 22.4546C17.8166 22.5 17.9333 22.5 18.1667 22.5H19.8333C20.7668 22.5 21.2335 22.5 21.59 22.3183C21.9036 22.1585 22.1586 21.9036 22.3183 21.59C22.5 21.2335 22.5 20.7667 22.5 19.8333V13.8042C22.5 13.3256 22.5 13.0863 22.4383 12.8659C22.3837 12.6707 22.2939 12.487 22.1733 12.324C22.0372 12.14 21.8483 11.9931 21.4705 11.6993L15.8186 7.30333Z" stroke="#616C77" stroke-width="1.5" stroke-linecap="round" stroke-linejoin="round"/>
</svg>
