<svg width="334" height="315" viewBox="0 0 334 315" fill="none" xmlns="http://www.w3.org/2000/svg">
<path d="M3.11861 14V3.81818H9.43253V5.14062H4.65483V8.2429H8.98011V9.56037H4.65483V14H3.11861ZM15.2813 10.8331V6.36364H16.7727V14H15.3111V12.6776H15.2315C15.0559 13.0852 14.7742 13.425 14.3864 13.6967C14.0019 13.9652 13.523 14.0994 12.9496 14.0994C12.4591 14.0994 12.0249 13.9917 11.647 13.7763C11.2725 13.5575 10.9775 13.2344 10.7621 12.8068C10.55 12.3793 10.4439 11.8506 10.4439 11.2209V6.36364H11.9304V11.0419C11.9304 11.5623 12.0746 11.9766 12.3629 12.2848C12.6513 12.593 13.0258 12.7472 13.4865 12.7472C13.7649 12.7472 14.0417 12.6776 14.3168 12.5384C14.5952 12.3991 14.8255 12.1887 15.0078 11.907C15.1934 11.6252 15.2846 11.2673 15.2813 10.8331ZM19.9766 3.81818V14H18.4901V3.81818H19.9766ZM23.1829 3.81818V14H21.6964V3.81818H23.1829ZM36.6652 3.81818V14H35.2532L30.0778 6.53267H29.9833V14H28.4471V3.81818H29.869L35.0494 11.2955H35.1439V3.81818H36.6652ZM40.7291 14.169C40.2452 14.169 39.8077 14.0795 39.4166 13.9006C39.0255 13.7183 38.7156 13.4548 38.4869 13.1101C38.2615 12.7654 38.1488 12.3428 38.1488 11.8423C38.1488 11.4115 38.2317 11.0568 38.3974 10.7784C38.5631 10.5 38.7869 10.2796 39.0686 10.1172C39.3503 9.95478 39.6652 9.83215 40.0132 9.74929C40.3612 9.66643 40.7158 9.60346 41.0771 9.56037C41.5345 9.50734 41.9057 9.46425 42.1907 9.43111C42.4758 9.39465 42.6829 9.33665 42.8122 9.2571C42.9414 9.17756 43.0061 9.0483 43.0061 8.86932V8.83452C43.0061 8.40033 42.8834 8.06392 42.6382 7.82528C42.3962 7.58665 42.035 7.46733 41.5544 7.46733C41.0539 7.46733 40.6595 7.57836 40.3711 7.80043C40.0861 8.01918 39.8889 8.26278 39.7795 8.53125L38.3825 8.21307C38.5482 7.74905 38.7902 7.37453 39.1084 7.08949C39.4298 6.80114 39.7994 6.59233 40.217 6.46307C40.6346 6.33049 41.0738 6.2642 41.5345 6.2642C41.8394 6.2642 42.1626 6.30066 42.5039 6.37358C42.8486 6.44318 43.1701 6.57244 43.4684 6.76136C43.77 6.95028 44.017 7.22041 44.2092 7.57173C44.4014 7.91974 44.4976 8.37216 44.4976 8.92898V14H43.0459V12.956H42.9862C42.8901 13.1482 42.7459 13.3371 42.5537 13.5227C42.3614 13.7083 42.1145 13.8625 41.8129 13.9851C41.5113 14.1077 41.15 14.169 40.7291 14.169ZM41.0522 12.9759C41.4632 12.9759 41.8146 12.8946 42.1062 12.7322C42.4012 12.5698 42.6249 12.3577 42.7774 12.0959C42.9332 11.8307 43.0111 11.5473 43.0111 11.2457V10.2614C42.958 10.3144 42.8553 10.3641 42.7028 10.4105C42.5537 10.4536 42.383 10.4917 42.1907 10.5249C41.9985 10.5547 41.8112 10.5829 41.6289 10.6094C41.4467 10.6326 41.2942 10.6525 41.1716 10.669C40.8832 10.7055 40.6197 10.7668 40.3811 10.853C40.1458 10.9392 39.9568 11.0634 39.8143 11.2259C39.6751 11.3849 39.6055 11.5971 39.6055 11.8622C39.6055 12.2301 39.7414 12.5085 40.0132 12.6974C40.285 12.883 40.6313 12.9759 41.0522 12.9759ZM46.1975 14V6.36364H47.6243V7.60653H47.7188C47.8779 7.18561 48.1381 6.85748 48.4993 6.62216C48.8606 6.38352 49.2931 6.2642 49.7969 6.2642C50.3073 6.2642 50.7349 6.38352 51.0796 6.62216C51.4276 6.8608 51.6845 7.18892 51.8502 7.60653H51.9297C52.112 7.19886 52.402 6.87405 52.7998 6.6321C53.1975 6.38684 53.6715 6.2642 54.2216 6.2642C54.9143 6.2642 55.4795 6.4813 55.917 6.91548C56.3578 7.34967 56.5782 8.00426 56.5782 8.87926V14H55.0917V9.01847C55.0917 8.50142 54.9508 8.12689 54.6691 7.89489C54.3874 7.66288 54.051 7.54688 53.6599 7.54688C53.176 7.54688 52.7998 7.69602 52.5313 7.99432C52.2628 8.2893 52.1286 8.6688 52.1286 9.13281V14H50.6471V8.92401C50.6471 8.50971 50.5178 8.17661 50.2593 7.92472C50.0008 7.67282 49.6644 7.54688 49.2501 7.54688C48.9683 7.54688 48.7081 7.62145 48.4695 7.7706C48.2342 7.91643 48.0436 8.12026 47.8978 8.3821C47.7553 8.64394 47.684 8.94721 47.684 9.2919V14H46.1975ZM61.5817 14.1541C60.8294 14.1541 60.1814 13.9934 59.6378 13.6719C59.0976 13.3471 58.68 12.8913 58.385 12.3047C58.0933 11.7147 57.9475 11.0237 57.9475 10.2315C57.9475 9.44934 58.0933 8.75994 58.385 8.16335C58.68 7.56676 59.091 7.10109 59.618 6.76633C60.1483 6.43158 60.768 6.2642 61.4773 6.2642C61.9082 6.2642 62.3258 6.33546 62.7302 6.47798C63.1345 6.6205 63.4975 6.84422 63.8189 7.14915C64.1404 7.45407 64.394 7.85014 64.5796 8.33736C64.7652 8.82126 64.858 9.40956 64.858 10.1023V10.6293H58.7877V9.51562H63.4013C63.4013 9.12453 63.3218 8.77817 63.1627 8.47656C63.0036 8.17164 62.7799 7.93134 62.4915 7.75568C62.2065 7.58002 61.8717 7.49219 61.4873 7.49219C61.0697 7.49219 60.7051 7.59493 60.3935 7.80043C60.0853 8.0026 59.8466 8.26776 59.6776 8.59588C59.5119 8.92069 59.429 9.27367 59.429 9.65483V10.5249C59.429 11.0353 59.5185 11.4695 59.6975 11.8274C59.8798 12.1854 60.1333 12.4588 60.4582 12.6477C60.783 12.8333 61.1625 12.9261 61.5966 12.9261C61.8784 12.9261 62.1352 12.8864 62.3672 12.8068C62.5993 12.724 62.7998 12.6013 62.9688 12.4389C63.1378 12.2765 63.2671 12.076 63.3566 11.8374L64.7635 12.0909C64.6509 12.5052 64.4487 12.8681 64.157 13.1797C63.8687 13.4879 63.5057 13.7282 63.0682 13.9006C62.6341 14.0696 62.1385 14.1541 61.5817 14.1541Z" fill="#010101"/>
<path d="M68.3403 9.54545L68.4347 7.44744L66.6648 8.58594L66.1229 7.64134L68.0022 6.68182L66.1229 5.7223L66.6648 4.7777L68.4347 5.91619L68.3403 3.81818H69.4191L69.3246 5.91619L71.0945 4.7777L71.6364 5.7223L69.7572 6.68182L71.6364 7.64134L71.0945 8.58594L69.3246 7.44744L69.4191 9.54545H68.3403Z" fill="#FC0E35"/>
<g filter="url(#filter0_d_37103_296550)">
<rect x="2" y="25" width="330" height="42" rx="4" fill="white"/>
<rect x="2.5" y="25.5" width="329" height="41" rx="3.5" stroke="#C9CED2"/>
</g>
<g filter="url(#filter1_d_37103_296550)">
<rect x="2" y="192" width="330" height="42" rx="4" fill="white"/>
<rect x="2.5" y="192.5" width="329" height="41" rx="3.5" stroke="#C9CED2"/>
</g>
<path d="M76.8008 211.375L82.0584 216.633L87.3159 211.375" stroke="black" stroke-width="0.876263" stroke-linecap="round" stroke-linejoin="round"/>
<path d="M3.11861 176V165.818H6.74787C7.54001 165.818 8.19626 165.962 8.71662 166.251C9.23698 166.539 9.62642 166.933 9.88494 167.434C10.1435 167.931 10.2727 168.491 10.2727 169.114C10.2727 169.741 10.1418 170.304 9.87997 170.805C9.62145 171.302 9.23035 171.696 8.70668 171.988C8.18632 172.276 7.53172 172.42 6.7429 172.42H4.24716V171.118H6.60369C7.10417 171.118 7.51018 171.032 7.82173 170.859C8.13329 170.684 8.36198 170.445 8.50781 170.143C8.65365 169.842 8.72656 169.499 8.72656 169.114C8.72656 168.73 8.65365 168.388 8.50781 168.09C8.36198 167.792 8.13163 167.558 7.81676 167.389C7.50521 167.22 7.09422 167.136 6.58381 167.136H4.65483V176H3.11861ZM13.1609 171.466V176H11.6744V165.818H13.141V169.607H13.2354C13.4144 169.196 13.6879 168.869 14.0558 168.627C14.4237 168.385 14.9042 168.264 15.4975 168.264C16.0212 168.264 16.4786 168.372 16.8697 168.587C17.2641 168.803 17.569 169.124 17.7845 169.552C18.0032 169.976 18.1126 170.506 18.1126 171.143V176H16.6261V171.322C16.6261 170.762 16.4819 170.327 16.1935 170.019C15.9052 169.708 15.5042 169.552 14.9904 169.552C14.6391 169.552 14.3242 169.626 14.0458 169.776C13.7707 169.925 13.5536 170.143 13.3945 170.432C13.2388 170.717 13.1609 171.062 13.1609 171.466ZM23.0329 176.154C22.317 176.154 21.6922 175.99 21.1586 175.662C20.625 175.334 20.2107 174.875 19.9157 174.285C19.6207 173.695 19.4732 173.005 19.4732 172.217C19.4732 171.424 19.6207 170.732 19.9157 170.138C20.2107 169.545 20.625 169.085 21.1586 168.756C21.6922 168.428 22.317 168.264 23.0329 168.264C23.7488 168.264 24.3735 168.428 24.9072 168.756C25.4408 169.085 25.8551 169.545 26.1501 170.138C26.445 170.732 26.5925 171.424 26.5925 172.217C26.5925 173.005 26.445 173.695 26.1501 174.285C25.8551 174.875 25.4408 175.334 24.9072 175.662C24.3735 175.99 23.7488 176.154 23.0329 176.154ZM23.0378 174.906C23.5018 174.906 23.8863 174.784 24.1912 174.538C24.4962 174.293 24.7215 173.967 24.8674 173.559C25.0165 173.151 25.0911 172.702 25.0911 172.212C25.0911 171.724 25.0165 171.277 24.8674 170.869C24.7215 170.458 24.4962 170.129 24.1912 169.88C23.8863 169.631 23.5018 169.507 23.0378 169.507C22.5705 169.507 22.1827 169.631 21.8745 169.88C21.5696 170.129 21.3425 170.458 21.1934 170.869C21.0475 171.277 20.9746 171.724 20.9746 172.212C20.9746 172.702 21.0475 173.151 21.1934 173.559C21.3425 173.967 21.5696 174.293 21.8745 174.538C22.1827 174.784 22.5705 174.906 23.0378 174.906ZM29.4583 171.466V176H27.9718V168.364H29.3986V169.607H29.4931C29.6688 169.202 29.9439 168.877 30.3184 168.632C30.6962 168.387 31.1718 168.264 31.7452 168.264C32.2656 168.264 32.7213 168.374 33.1124 168.592C33.5035 168.808 33.8068 169.129 34.0222 169.557C34.2377 169.984 34.3454 170.513 34.3454 171.143V176H32.8589V171.322C32.8589 170.768 32.7147 170.336 32.4263 170.024C32.138 169.709 31.7419 169.552 31.2381 169.552C30.8934 169.552 30.5868 169.626 30.3184 169.776C30.0532 169.925 29.8428 170.143 29.687 170.432C29.5345 170.717 29.4583 171.062 29.4583 171.466ZM39.3502 176.154C38.5978 176.154 37.9498 175.993 37.4063 175.672C36.866 175.347 36.4484 174.891 36.1534 174.305C35.8618 173.715 35.7159 173.024 35.7159 172.232C35.7159 171.449 35.8618 170.76 36.1534 170.163C36.4484 169.567 36.8594 169.101 37.3864 168.766C37.9167 168.432 38.5365 168.264 39.2458 168.264C39.6766 168.264 40.0943 168.335 40.4986 168.478C40.903 168.621 41.2659 168.844 41.5874 169.149C41.9089 169.454 42.1624 169.85 42.348 170.337C42.5336 170.821 42.6265 171.41 42.6265 172.102V172.629H36.5561V171.516H41.1698C41.1698 171.125 41.0902 170.778 40.9311 170.477C40.772 170.172 40.5483 169.931 40.26 169.756C39.9749 169.58 39.6402 169.492 39.2557 169.492C38.8381 169.492 38.4735 169.595 38.162 169.8C37.8537 170.003 37.6151 170.268 37.4461 170.596C37.2803 170.921 37.1975 171.274 37.1975 171.655V172.525C37.1975 173.035 37.287 173.469 37.4659 173.827C37.6482 174.185 37.9018 174.459 38.2266 174.648C38.5514 174.833 38.9309 174.926 39.3651 174.926C39.6468 174.926 39.9037 174.886 40.1357 174.807C40.3677 174.724 40.5682 174.601 40.7372 174.439C40.9063 174.277 41.0355 174.076 41.125 173.837L42.532 174.091C42.4193 174.505 42.2171 174.868 41.9255 175.18C41.6371 175.488 41.2742 175.728 40.8367 175.901C40.4025 176.07 39.907 176.154 39.3502 176.154ZM55.7582 165.818V176H54.3463L49.1709 168.533H49.0764V176H47.5402V165.818H48.962L54.1424 173.295H54.2369V165.818H55.7582ZM62.4372 172.833V168.364H63.9287V176H62.467V174.678H62.3875C62.2118 175.085 61.9301 175.425 61.5423 175.697C61.1578 175.965 60.6789 176.099 60.1055 176.099C59.615 176.099 59.1808 175.992 58.803 175.776C58.4284 175.558 58.1335 175.234 57.918 174.807C57.7059 174.379 57.5998 173.851 57.5998 173.221V168.364H59.0863V173.042C59.0863 173.562 59.2305 173.977 59.5189 174.285C59.8072 174.593 60.1818 174.747 60.6425 174.747C60.9209 174.747 61.1976 174.678 61.4727 174.538C61.7511 174.399 61.9815 174.189 62.1638 173.907C62.3494 173.625 62.4405 173.267 62.4372 172.833ZM65.646 176V168.364H67.0729V169.607H67.1673C67.3264 169.186 67.5866 168.857 67.9479 168.622C68.3091 168.384 68.7417 168.264 69.2454 168.264C69.7559 168.264 70.1834 168.384 70.5281 168.622C70.8761 168.861 71.133 169.189 71.2987 169.607H71.3783C71.5605 169.199 71.8506 168.874 72.2483 168.632C72.646 168.387 73.12 168.264 73.6702 168.264C74.3629 168.264 74.928 168.481 75.3655 168.915C75.8063 169.35 76.0267 170.004 76.0267 170.879V176H74.5402V171.018C74.5402 170.501 74.3993 170.127 74.1176 169.895C73.8359 169.663 73.4995 169.547 73.1084 169.547C72.6245 169.547 72.2483 169.696 71.9798 169.994C71.7113 170.289 71.5771 170.669 71.5771 171.133V176H70.0956V170.924C70.0956 170.51 69.9663 170.177 69.7078 169.925C69.4493 169.673 69.1129 169.547 68.6986 169.547C68.4168 169.547 68.1567 169.621 67.918 169.771C67.6827 169.916 67.4921 170.12 67.3463 170.382C67.2038 170.644 67.1325 170.947 67.1325 171.292V176H65.646ZM77.8584 176V165.818H79.3449V169.602H79.4344C79.5205 169.442 79.6448 169.259 79.8072 169.05C79.9696 168.841 80.195 168.659 80.4834 168.503C80.7717 168.344 81.1529 168.264 81.6268 168.264C82.2433 168.264 82.7935 168.42 83.2774 168.732C83.7613 169.043 84.1408 169.492 84.4159 170.079C84.6943 170.665 84.8335 171.371 84.8335 172.197C84.8335 173.022 84.696 173.73 84.4209 174.32C84.1458 174.906 83.7679 175.359 83.2874 175.677C82.8068 175.992 82.2582 176.149 81.6418 176.149C81.1777 176.149 80.7982 176.071 80.5033 175.915C80.2116 175.76 79.9829 175.577 79.8172 175.369C79.6515 175.16 79.5239 174.974 79.4344 174.812H79.3101V176H77.8584ZM79.3151 172.182C79.3151 172.719 79.3929 173.189 79.5487 173.594C79.7045 173.998 79.9299 174.315 80.2249 174.543C80.5198 174.769 80.8811 174.881 81.3087 174.881C81.7528 174.881 82.124 174.764 82.4223 174.528C82.7206 174.29 82.946 173.967 83.0984 173.559C83.2542 173.151 83.3321 172.692 83.3321 172.182C83.3321 171.678 83.2559 171.226 83.1034 170.825C82.9543 170.424 82.7289 170.107 82.4273 169.875C82.129 169.643 81.7561 169.527 81.3087 169.527C80.8778 169.527 80.5132 169.638 80.2149 169.86C79.9199 170.082 79.6962 170.392 79.5437 170.79C79.3913 171.187 79.3151 171.652 79.3151 172.182ZM89.5139 176.154C88.7616 176.154 88.1136 175.993 87.57 175.672C87.0298 175.347 86.6122 174.891 86.3172 174.305C86.0255 173.715 85.8797 173.024 85.8797 172.232C85.8797 171.449 86.0255 170.76 86.3172 170.163C86.6122 169.567 87.0232 169.101 87.5501 168.766C88.0804 168.432 88.7002 168.264 89.4095 168.264C89.8404 168.264 90.258 168.335 90.6624 168.478C91.0667 168.621 91.4296 168.844 91.7511 169.149C92.0726 169.454 92.3262 169.85 92.5118 170.337C92.6974 170.821 92.7902 171.41 92.7902 172.102V172.629H86.7199V171.516H91.3335C91.3335 171.125 91.254 170.778 91.0949 170.477C90.9358 170.172 90.7121 169.931 90.4237 169.756C90.1387 169.58 89.8039 169.492 89.4195 169.492C89.0018 169.492 88.6373 169.595 88.3257 169.8C88.0175 170.003 87.7788 170.268 87.6098 170.596C87.4441 170.921 87.3612 171.274 87.3612 171.655V172.525C87.3612 173.035 87.4507 173.469 87.6297 173.827C87.812 174.185 88.0655 174.459 88.3903 174.648C88.7151 174.833 89.0946 174.926 89.5288 174.926C89.8106 174.926 90.0674 174.886 90.2994 174.807C90.5314 174.724 90.732 174.601 90.901 174.439C91.07 174.277 91.1993 174.076 91.2888 173.837L92.6957 174.091C92.583 174.505 92.3809 174.868 92.0892 175.18C91.8008 175.488 91.4379 175.728 91.0004 175.901C90.5662 176.07 90.0707 176.154 89.5139 176.154ZM94.1595 176V168.364H95.5963V169.577H95.6759C95.8151 169.166 96.0603 168.843 96.4117 168.607C96.7663 168.369 97.1673 168.249 97.6148 168.249C97.7076 168.249 97.817 168.253 97.9429 168.259C98.0722 168.266 98.1733 168.274 98.2462 168.284V169.706C98.1865 169.689 98.0805 169.671 97.928 169.651C97.7755 169.628 97.6231 169.616 97.4706 169.616C97.1193 169.616 96.8061 169.691 96.531 169.84C96.2592 169.986 96.0438 170.19 95.8847 170.452C95.7256 170.71 95.646 171.005 95.646 171.337V176H94.1595Z" fill="#010101"/>
<path d="M101.365 171.545L101.46 169.447L99.6901 170.586L99.1482 169.641L101.027 168.682L99.1482 167.722L99.6901 166.778L101.46 167.916L101.365 165.818H102.444L102.35 167.916L104.12 166.778L104.662 167.722L102.782 168.682L104.662 169.641L104.12 170.586L102.35 169.447L102.444 171.545H101.365Z" fill="#FC0E35"/>
<path d="M47.8359 216.29V209.568H49.1733V216.29H47.8359ZM45.1463 213.595V212.263H51.8679V213.595H45.1463ZM57.253 207.679C57.7071 207.682 58.1545 207.765 58.5954 207.928C59.0362 208.09 59.4339 208.355 59.7885 208.723C60.1465 209.091 60.4315 209.588 60.6437 210.214C60.8591 210.838 60.9685 211.613 60.9718 212.541C60.9718 213.433 60.8823 214.227 60.7033 214.923C60.5243 215.615 60.2675 216.2 59.9327 216.678C59.6013 217.155 59.1986 217.518 58.7246 217.766C58.2507 218.015 57.717 218.139 57.1238 218.139C56.5172 218.139 55.9786 218.02 55.508 217.781C55.0374 217.543 54.6545 217.213 54.3596 216.792C54.0646 216.368 53.8806 215.88 53.8077 215.33H55.324C55.4235 215.768 55.6257 216.122 55.9306 216.394C56.2388 216.663 56.6365 216.797 57.1238 216.797C57.8695 216.797 58.4512 216.472 58.8688 215.822C59.2864 215.17 59.4969 214.258 59.5002 213.088H59.4206C59.2483 213.373 59.0329 213.618 58.7743 213.824C58.5191 214.029 58.2324 214.188 57.9142 214.301C57.5961 214.414 57.2563 214.47 56.8951 214.47C56.3084 214.47 55.7748 214.326 55.2942 214.038C54.8136 213.749 54.4308 213.353 54.1458 212.849C53.8607 212.346 53.7182 211.771 53.7182 211.124C53.7182 210.481 53.8641 209.898 54.1557 209.374C54.4507 208.851 54.8617 208.436 55.3887 208.131C55.919 207.823 56.5404 207.672 57.253 207.679ZM57.258 208.972C56.8702 208.972 56.5205 209.068 56.209 209.26C55.9008 209.449 55.6571 209.706 55.4782 210.031C55.2992 210.352 55.2097 210.71 55.2097 211.104C55.2097 211.499 55.2959 211.857 55.4682 212.178C55.6439 212.496 55.8825 212.75 56.1841 212.939C56.4891 213.125 56.8371 213.217 57.2282 213.217C57.5198 213.217 57.7916 213.161 58.0435 213.048C58.2954 212.936 58.5158 212.78 58.7047 212.581C58.8937 212.379 59.0411 212.15 59.1472 211.895C59.2533 211.64 59.3063 211.371 59.3063 211.089C59.3063 210.715 59.2168 210.367 59.0378 210.045C58.8622 209.724 58.6202 209.465 58.312 209.27C58.0037 209.071 57.6524 208.972 57.258 208.972ZM66.3507 207.818V218H64.8095V209.359H64.7498L62.3138 210.95V209.479L64.8542 207.818H66.3507Z" fill="#6A6A6A"/>
<g clip-path="url(#clip0_37103_296550)">
<path d="M16.2383 206.094H39.7585V221.902H16.2383V206.094Z" fill="#D6D4D1"/>
<path d="M16.4336 216.5H39.5693V221.705H16.4336V216.5Z" fill="#11892E"/>
<path d="M16.4336 206.281H39.5693V211.487H16.4336V206.281Z" fill="#F2963B"/>
<path d="M16.4336 211.492H39.5707V216.505H16.4336V211.492Z" fill="white"/>
<path d="M30.1068 213.719C29.954 212.558 28.8886 211.741 27.7276 211.893C26.5653 212.047 25.7484 213.111 25.9012 214.272C26.054 215.433 27.1193 216.25 28.2815 216.098C29.4425 215.945 30.2595 214.88 30.1068 213.719ZM29.8557 214.133C29.7985 214.127 29.7454 214.167 29.7388 214.224C29.7308 214.281 29.7692 214.334 29.8265 214.342C29.8183 214.385 29.8078 214.429 29.7972 214.471L28.8275 214.153L28.3679 214.064C28.3703 214.05 28.3732 214.037 28.3745 214.024L28.8392 214.056L29.8595 214.001C29.8597 214.045 29.857 214.089 29.8557 214.133ZM26.1537 213.859C26.2107 213.865 26.2625 213.824 26.2705 213.768C26.2785 213.711 26.2387 213.659 26.1815 213.649C26.1895 213.606 26.2001 213.563 26.2107 213.521L27.1804 213.838L27.6414 213.928C27.6387 213.94 27.636 213.954 27.6348 213.968L27.1684 213.935L26.1496 213.99C26.1496 213.946 26.1509 213.902 26.1537 213.859ZM26.1815 214.342C26.2387 214.334 26.2785 214.281 26.2705 214.224C26.2625 214.167 26.2107 214.127 26.1537 214.133C26.1509 214.089 26.1496 214.045 26.1496 214.002L27.1684 214.057L27.636 214.024C27.6374 214.031 27.636 214.037 27.6374 214.045C27.6374 214.051 27.64 214.057 27.6414 214.064L27.1804 214.154L26.2107 214.471C26.2001 214.429 26.1907 214.386 26.1815 214.342ZM28.8395 213.935L28.3732 213.968C28.3719 213.961 28.3732 213.954 28.3719 213.947C28.3719 213.94 28.3692 213.934 28.3679 213.928L28.8275 213.838L29.7972 213.521C29.8078 213.563 29.8183 213.606 29.8265 213.649C29.7692 213.659 29.7307 213.711 29.7388 213.768C29.7454 213.824 29.7972 213.865 29.8543 213.859C29.8569 213.902 29.8597 213.947 29.8597 213.99L28.8395 213.935ZM29.7561 213.385C29.7694 213.426 29.784 213.468 29.7961 213.51L28.7958 213.721L28.3548 213.873C28.3494 213.86 28.3428 213.848 28.3377 213.835L28.7588 213.63L29.6131 213.073C29.6356 213.111 29.6556 213.149 29.6753 213.189C29.6237 213.213 29.5983 213.274 29.6206 213.327C29.6417 213.379 29.7029 213.405 29.7561 213.385ZM29.3921 212.931C29.4266 212.977 29.4918 212.985 29.5369 212.953C29.5634 212.989 29.586 213.026 29.6073 213.064L28.6974 213.525L28.3096 213.787C28.3014 213.776 28.2949 213.764 28.2857 213.754L28.6376 213.448L29.3191 212.688C29.3495 212.719 29.3804 212.751 29.4094 212.785C29.3643 212.821 29.3576 212.886 29.3921 212.931ZM29.0693 212.608C29.1144 212.643 29.1796 212.635 29.2155 212.591C29.2489 212.619 29.2808 212.649 29.3125 212.68L28.5527 213.362L28.2444 213.715C28.2338 213.707 28.2246 213.698 28.2124 213.691L28.4754 213.302L28.9364 212.392C28.9734 212.414 29.0106 212.438 29.0477 212.463C29.0149 212.509 29.0228 212.574 29.0693 212.608ZM28.6735 212.38C28.7265 212.401 28.7863 212.377 28.8102 212.325C28.8501 212.344 28.8898 212.365 28.9271 212.387L28.3692 213.242L28.1647 213.661C28.1526 213.655 28.1394 213.651 28.1262 213.647L28.2801 213.204L28.4888 212.206C28.5313 212.217 28.5738 212.23 28.6163 212.245C28.5951 212.298 28.6204 212.358 28.6735 212.38ZM28.1407 212.146C28.1354 212.202 28.1753 212.254 28.2324 212.261C28.2896 212.269 28.3413 212.23 28.3506 212.173C28.3946 212.182 28.4371 212.192 28.4794 212.203L28.162 213.173L28.0729 213.633C28.0582 213.63 28.0464 213.627 28.0318 213.626L28.065 213.159L28.0094 212.14C28.0531 212.14 28.0982 212.143 28.1407 212.146ZM27.7755 212.261C27.8326 212.254 27.8738 212.202 27.8685 212.146C27.911 212.142 27.9562 212.141 27.9987 212.14L27.9442 213.159L27.9761 213.627C27.9694 213.628 27.9628 213.627 27.9562 213.628C27.9495 213.628 27.9416 213.632 27.9349 213.633L27.8459 213.173L27.5284 212.202C27.5709 212.192 27.6134 212.182 27.6573 212.173C27.6666 212.23 27.7184 212.269 27.7755 212.261ZM27.3345 212.38C27.389 212.358 27.4129 212.297 27.3929 212.243C27.4341 212.229 27.4766 212.217 27.5191 212.206L27.729 213.204L27.8805 213.645C27.8684 213.651 27.8565 213.657 27.8446 213.663L27.6386 213.242L27.082 212.386C27.1192 212.365 27.1578 212.344 27.1976 212.325C27.2216 212.377 27.2813 212.401 27.3345 212.38ZM26.94 212.608C26.9852 212.573 26.9945 212.508 26.9599 212.462C26.997 212.437 27.0329 212.414 27.0728 212.392L27.5324 213.302L27.7954 213.691C27.7848 213.698 27.7728 213.706 27.7622 213.714L27.4553 213.362L26.6954 212.68C26.7287 212.649 26.7592 212.619 26.7937 212.591C26.8284 212.635 26.8935 212.643 26.94 212.608ZM26.6171 212.931C26.6517 212.886 26.6437 212.821 26.5999 212.785C26.6264 212.752 26.6583 212.72 26.6889 212.688L27.3703 213.448L27.7237 213.755C27.7158 213.765 27.7065 213.776 27.6985 213.787L27.3106 213.525L26.4007 213.064C26.422 213.026 26.4458 212.988 26.4711 212.952C26.5162 212.985 26.5827 212.977 26.6171 212.931ZM26.3873 213.327C26.4099 213.274 26.386 213.213 26.3328 213.189C26.3527 213.15 26.3727 213.111 26.3952 213.073L27.2493 213.63L27.6705 213.835C27.6651 213.847 27.6599 213.861 27.6559 213.873L27.2123 213.721L26.2133 213.511C26.2253 213.467 26.2386 213.426 26.2518 213.384C26.305 213.405 26.3661 213.379 26.3873 213.327ZM26.2519 214.607C26.2387 214.566 26.2254 214.523 26.2134 214.481L27.2123 214.271L27.6547 214.119C27.6587 214.132 27.6653 214.144 27.6706 214.156L27.2494 214.362L26.3953 214.919C26.3727 214.881 26.3528 214.842 26.3329 214.802C26.3861 214.779 26.4099 214.718 26.3874 214.665C26.3661 214.612 26.305 214.586 26.2519 214.607ZM26.6171 215.06C26.5827 215.015 26.5162 215.006 26.471 215.04C26.4458 215.003 26.4219 214.966 26.4006 214.928L27.3106 214.466L27.6984 214.204C27.7064 214.215 27.7143 214.227 27.7237 214.237L27.3703 214.544L26.6888 215.303C26.6583 215.272 26.6277 215.24 26.5998 215.207C26.6438 215.17 26.6518 215.106 26.6171 215.06ZM26.94 215.384C26.8935 215.348 26.8285 215.357 26.7938 215.401C26.7606 215.372 26.7287 215.342 26.6955 215.311L27.4554 214.63L27.7636 214.276C27.7742 214.285 27.7849 214.294 27.7955 214.3L27.5325 214.689L27.0729 215.599C27.0344 215.577 26.9971 215.553 26.9599 215.529C26.9944 215.483 26.9852 215.418 26.94 215.384ZM27.3345 215.611C27.2813 215.59 27.2216 215.614 27.1977 215.666C27.1578 215.647 27.1193 215.626 27.0821 215.605L27.6387 214.75L27.8446 214.329C27.8566 214.335 27.8699 214.34 27.8818 214.344L27.729 214.788L27.5191 215.786C27.4766 215.775 27.4354 215.762 27.3929 215.747C27.4129 215.694 27.3876 215.634 27.3345 215.611ZM27.8685 215.846C27.8739 215.789 27.8326 215.738 27.7755 215.73C27.7184 215.722 27.6666 215.762 27.6573 215.818C27.6133 215.81 27.5708 215.8 27.5284 215.789L27.8459 214.819L27.9349 214.359C27.9495 214.361 27.9628 214.365 27.9761 214.366L27.9442 214.832L27.9987 215.851C27.9548 215.851 27.911 215.85 27.8685 215.846ZM28.2324 215.73C28.1753 215.738 28.1354 215.789 28.1407 215.846C28.0969 215.848 28.0531 215.851 28.0092 215.851L28.065 214.832L28.0316 214.364C28.0382 214.363 28.0464 214.365 28.0515 214.363C28.0579 214.363 28.0661 214.36 28.0727 214.359L28.1618 214.819L28.4792 215.789C28.4367 215.8 28.3942 215.81 28.3505 215.818C28.3414 215.762 28.2896 215.722 28.2324 215.73ZM28.6735 215.611C28.6203 215.634 28.5951 215.694 28.6163 215.747C28.5738 215.762 28.5313 215.775 28.4888 215.786L28.2801 214.788L28.1274 214.346C28.1394 214.341 28.1511 214.335 28.1645 214.328L28.3691 214.75L28.927 215.605C28.8899 215.627 28.8499 215.647 28.81 215.666C28.7863 215.614 28.7265 215.59 28.6735 215.611ZM29.0693 215.384C29.0228 215.418 29.0148 215.483 29.048 215.53C29.0109 215.554 28.975 215.578 28.9365 215.599L28.4758 214.689L28.213 214.3C28.225 214.294 28.2367 214.286 28.2462 214.277L28.5531 214.63L29.3129 215.311C29.281 215.343 29.2491 215.372 29.2158 215.401C29.1795 215.357 29.1144 215.348 29.0693 215.384ZM29.3921 215.06C29.3576 215.106 29.3656 215.17 29.4094 215.206C29.3815 215.24 29.3495 215.272 29.3191 215.303L28.6376 214.544L28.2842 214.237C28.2923 214.226 28.3014 214.215 28.3096 214.204L28.6974 214.467L29.6073 214.927C29.586 214.966 29.5621 215.003 29.5369 215.04C29.4904 215.006 29.4266 215.015 29.3921 215.06ZM29.6206 214.665C29.5978 214.718 29.6232 214.779 29.6751 214.803C29.6552 214.842 29.6351 214.88 29.6127 214.919L28.7586 214.362L28.3388 214.156C28.3441 214.144 28.3481 214.131 28.3534 214.119L28.7958 214.271L29.7949 214.481C29.7842 214.524 29.7695 214.566 29.7564 214.607C29.7029 214.587 29.6417 214.612 29.6206 214.665Z" fill="#21296F"/>
</g>
<path d="M100.512 201L100.512 227" stroke="#B5B5B5"/>
<path d="M3.11861 95V84.8182H9.50213V86.1406H4.65483V89.2429H9.16903V90.5604H4.65483V93.6776H9.56179V95H3.11861ZM11.1548 95V87.3636H12.5817V88.6065H12.6761C12.8352 88.1856 13.0954 87.8575 13.4567 87.6222C13.818 87.3835 14.2505 87.2642 14.7543 87.2642C15.2647 87.2642 15.6922 87.3835 16.0369 87.6222C16.385 87.8608 16.6418 88.1889 16.8075 88.6065H16.8871C17.0694 88.1989 17.3594 87.8741 17.7571 87.6321C18.1548 87.3868 18.6288 87.2642 19.179 87.2642C19.8717 87.2642 20.4368 87.4813 20.8743 87.9155C21.3151 88.3497 21.5355 89.0043 21.5355 89.8793V95H20.049V90.0185C20.049 89.5014 19.9082 89.1269 19.6264 88.8949C19.3447 88.6629 19.0083 88.5469 18.6172 88.5469C18.1333 88.5469 17.7571 88.696 17.4886 88.9943C17.2202 89.2893 17.0859 89.6688 17.0859 90.1328V95H15.6044V89.924C15.6044 89.5097 15.4751 89.1766 15.2166 88.9247C14.9581 88.6728 14.6217 88.5469 14.2074 88.5469C13.9257 88.5469 13.6655 88.6214 13.4269 88.7706C13.1915 88.9164 13.001 89.1203 12.8551 89.3821C12.7126 89.6439 12.6413 89.9472 12.6413 90.2919V95H11.1548ZM25.4702 95.169C24.9863 95.169 24.5488 95.0795 24.1577 94.9006C23.7666 94.7183 23.4567 94.4548 23.228 94.1101C23.0026 93.7654 22.8899 93.3428 22.8899 92.8423C22.8899 92.4115 22.9728 92.0568 23.1385 91.7784C23.3042 91.5 23.528 91.2796 23.8097 91.1172C24.0914 90.9548 24.4063 90.8321 24.7543 90.7493C25.1023 90.6664 25.4569 90.6035 25.8182 90.5604C26.2756 90.5073 26.6468 90.4643 26.9318 90.4311C27.2169 90.3946 27.424 90.3366 27.5533 90.2571C27.6825 90.1776 27.7472 90.0483 27.7472 89.8693V89.8345C27.7472 89.4003 27.6245 89.0639 27.3793 88.8253C27.1373 88.5866 26.7761 88.4673 26.2955 88.4673C25.795 88.4673 25.4006 88.5784 25.1122 88.8004C24.8272 89.0192 24.63 89.2628 24.5206 89.5312L23.1236 89.2131C23.2893 88.7491 23.5313 88.3745 23.8494 88.0895C24.1709 87.8011 24.5405 87.5923 24.9581 87.4631C25.3757 87.3305 25.8149 87.2642 26.2756 87.2642C26.5805 87.2642 26.9037 87.3007 27.245 87.3736C27.5897 87.4432 27.9112 87.5724 28.2095 87.7614C28.5111 87.9503 28.7581 88.2204 28.9503 88.5717C29.1425 88.9197 29.2387 89.3722 29.2387 89.929V95H27.7869V93.956H27.7273C27.6312 94.1482 27.487 94.3371 27.2948 94.5227C27.1025 94.7083 26.8556 94.8625 26.554 94.9851C26.2524 95.1077 25.8911 95.169 25.4702 95.169ZM25.7933 93.9759C26.2043 93.9759 26.5556 93.8946 26.8473 93.7322C27.1423 93.5698 27.366 93.3577 27.5185 93.0959C27.6743 92.8307 27.7521 92.5473 27.7521 92.2457V91.2614C27.6991 91.3144 27.5964 91.3641 27.4439 91.4105C27.2948 91.4536 27.1241 91.4917 26.9318 91.5249C26.7396 91.5547 26.5523 91.5829 26.37 91.6094C26.1878 91.6326 26.0353 91.6525 25.9127 91.669C25.6243 91.7055 25.3608 91.7668 25.1222 91.853C24.8869 91.9392 24.6979 92.0634 24.5554 92.2259C24.4162 92.3849 24.3466 92.5971 24.3466 92.8622C24.3466 93.2301 24.4825 93.5085 24.7543 93.6974C25.0261 93.883 25.3724 93.9759 25.7933 93.9759ZM30.9386 95V87.3636H32.4251V95H30.9386ZM31.6893 86.1854C31.4308 86.1854 31.2087 86.0992 31.0231 85.9268C30.8408 85.7512 30.7497 85.5424 30.7497 85.3004C30.7497 85.0552 30.8408 84.8464 31.0231 84.674C31.2087 84.4983 31.4308 84.4105 31.6893 84.4105C31.9478 84.4105 32.1682 84.4983 32.3505 84.674C32.5361 84.8464 32.6289 85.0552 32.6289 85.3004C32.6289 85.5424 32.5361 85.7512 32.3505 85.9268C32.1682 86.0992 31.9478 86.1854 31.6893 86.1854ZM35.6314 84.8182V95H34.1449V84.8182H35.6314ZM41.7557 95H40.125L43.7891 84.8182H45.564L49.228 95H47.5973L44.7188 86.6676H44.6392L41.7557 95ZM42.0292 91.0128H47.3189V92.3054H42.0292V91.0128ZM53.0347 95.1491C52.4182 95.1491 51.868 94.9917 51.3841 94.6768C50.9035 94.3587 50.5257 93.9062 50.2506 93.3196C49.9788 92.7296 49.8429 92.022 49.8429 91.1967C49.8429 90.3714 49.9805 89.6655 50.2556 89.0788C50.534 88.4922 50.9151 88.0431 51.399 87.7315C51.8829 87.42 52.4315 87.2642 53.0446 87.2642C53.5186 87.2642 53.8997 87.3438 54.1881 87.5028C54.4798 87.6586 54.7051 87.8409 54.8642 88.0497C55.0266 88.2585 55.1526 88.4425 55.2421 88.6016H55.3315V84.8182H56.8181V95H55.3664V93.8118H55.2421C55.1526 93.9742 55.0233 94.1598 54.8543 94.3686C54.6886 94.5774 54.4599 94.7597 54.1682 94.9155C53.8765 95.0713 53.4987 95.1491 53.0347 95.1491ZM53.3628 93.8814C53.7904 93.8814 54.1516 93.7687 54.4466 93.5433C54.7449 93.3146 54.9703 92.9981 55.1227 92.5938C55.2785 92.1894 55.3564 91.7187 55.3564 91.1818C55.3564 90.6515 55.2802 90.1875 55.1277 89.7898C54.9753 89.392 54.7515 89.0821 54.4565 88.8601C54.1616 88.638 53.797 88.527 53.3628 88.527C52.9154 88.527 52.5425 88.643 52.2442 88.875C51.9459 89.107 51.7205 89.4235 51.5681 89.8246C51.4189 90.2256 51.3443 90.678 51.3443 91.1818C51.3443 91.6922 51.4206 92.1513 51.573 92.5589C51.7255 92.9666 51.9509 93.2898 52.2492 93.5284C52.5508 93.7637 52.922 93.8814 53.3628 93.8814ZM61.5183 95.1491C60.9019 95.1491 60.3517 94.9917 59.8678 94.6768C59.3872 94.3587 59.0093 93.9062 58.7343 93.3196C58.4625 92.7296 58.3266 92.022 58.3266 91.1967C58.3266 90.3714 58.4641 89.6655 58.7392 89.0788C59.0176 88.4922 59.3988 88.0431 59.8827 87.7315C60.3666 87.42 60.9151 87.2642 61.5283 87.2642C62.0022 87.2642 62.3834 87.3438 62.6718 87.5028C62.9634 87.6586 63.1888 87.8409 63.3479 88.0497C63.5103 88.2585 63.6362 88.4425 63.7257 88.6016H63.8152V84.8182H65.3017V95H63.85V93.8118H63.7257C63.6362 93.9742 63.507 94.1598 63.3379 94.3686C63.1722 94.5774 62.9435 94.7597 62.6519 94.9155C62.3602 95.0713 61.9824 95.1491 61.5183 95.1491ZM61.8465 93.8814C62.274 93.8814 62.6353 93.7687 62.9303 93.5433C63.2286 93.3146 63.4539 92.9981 63.6064 92.5938C63.7622 92.1894 63.8401 91.7187 63.8401 91.1818C63.8401 90.6515 63.7638 90.1875 63.6114 89.7898C63.4589 89.392 63.2352 89.0821 62.9402 88.8601C62.6452 88.638 62.2807 88.527 61.8465 88.527C61.399 88.527 61.0262 88.643 60.7279 88.875C60.4296 89.107 60.2042 89.4235 60.0517 89.8246C59.9026 90.2256 59.828 90.678 59.828 91.1818C59.828 91.6922 59.9042 92.1513 60.0567 92.5589C60.2092 92.9666 60.4345 93.2898 60.7328 93.5284C61.0344 93.7637 61.4057 93.8814 61.8465 93.8814ZM67.1434 95V87.3636H68.5801V88.5767H68.6597C68.7989 88.1657 69.0442 87.8426 69.3955 87.6072C69.7501 87.3686 70.1512 87.2493 70.5986 87.2493C70.6914 87.2493 70.8008 87.2526 70.9267 87.2592C71.056 87.2659 71.1571 87.2741 71.23 87.2841V88.706C71.1703 88.6894 71.0643 88.6712 70.9118 88.6513C70.7594 88.6281 70.6069 88.6165 70.4544 88.6165C70.1031 88.6165 69.7899 88.6911 69.5148 88.8402C69.243 88.986 69.0276 89.1899 68.8685 89.4517C68.7094 89.7102 68.6299 90.0052 68.6299 90.3366V95H67.1434ZM75.2542 95.1541C74.5018 95.1541 73.8538 94.9934 73.3103 94.6719C72.77 94.3471 72.3524 93.8913 72.0574 93.3047C71.7658 92.7147 71.6199 92.0237 71.6199 91.2315C71.6199 90.4493 71.7658 89.7599 72.0574 89.1634C72.3524 88.5668 72.7634 88.1011 73.2904 87.7663C73.8207 87.4316 74.4405 87.2642 75.1497 87.2642C75.5806 87.2642 75.9982 87.3355 76.4026 87.478C76.8069 87.6205 77.1699 87.8442 77.4914 88.1491C77.8129 88.4541 78.0664 88.8501 78.252 89.3374C78.4376 89.8213 78.5304 90.4096 78.5304 91.1023V91.6293H72.4601V90.5156H77.0738C77.0738 90.1245 76.9942 89.7782 76.8351 89.4766C76.676 89.1716 76.4523 88.9313 76.164 88.7557C75.8789 88.58 75.5442 88.4922 75.1597 88.4922C74.7421 88.4922 74.3775 88.5949 74.0659 88.8004C73.7577 89.0026 73.5191 89.2678 73.35 89.5959C73.1843 89.9207 73.1015 90.2737 73.1015 90.6548V91.5249C73.1015 92.0353 73.1909 92.4695 73.3699 92.8274C73.5522 93.1854 73.8058 93.4588 74.1306 93.6477C74.4554 93.8333 74.8349 93.9261 75.2691 93.9261C75.5508 93.9261 75.8077 93.8864 76.0397 93.8068C76.2717 93.724 76.4722 93.6013 76.6412 93.4389C76.8103 93.2765 76.9395 93.076 77.029 92.8374L78.436 93.0909C78.3233 93.5052 78.1211 93.8681 77.8294 94.1797C77.5411 94.4879 77.1782 94.7282 76.7407 94.9006C76.3065 95.0696 75.811 95.1541 75.2542 95.1541ZM85.6221 89.228L84.2748 89.4666C84.2184 89.2943 84.1289 89.1302 84.0063 88.9744C83.887 88.8187 83.7246 88.6911 83.5191 88.5916C83.3136 88.4922 83.0567 88.4425 82.7485 88.4425C82.3276 88.4425 81.9762 88.5369 81.6945 88.7259C81.4128 88.9115 81.2719 89.1518 81.2719 89.4467C81.2719 89.7019 81.3664 89.9074 81.5553 90.0632C81.7442 90.219 82.0491 90.3466 82.4701 90.446L83.6831 90.7244C84.3858 90.8868 84.9095 91.1371 85.2542 91.4751C85.5989 91.8132 85.7712 92.2524 85.7712 92.7926C85.7712 93.25 85.6386 93.6577 85.3735 94.0156C85.1116 94.3703 84.7454 94.6487 84.2748 94.8509C83.8074 95.053 83.2655 95.1541 82.649 95.1541C81.7939 95.1541 81.0963 94.9718 80.556 94.6072C80.0158 94.2393 79.6843 93.7173 79.5617 93.0412L80.9985 92.8224C81.088 93.197 81.2719 93.4804 81.5503 93.6726C81.8287 93.8615 82.1917 93.956 82.6391 93.956C83.1263 93.956 83.5158 93.8549 83.8074 93.6527C84.0991 93.4472 84.2449 93.197 84.2449 92.902C84.2449 92.6634 84.1554 92.4628 83.9765 92.3004C83.8008 92.138 83.5307 92.0154 83.1661 91.9325L81.8735 91.6491C81.1609 91.4867 80.6339 91.2282 80.2925 90.8736C79.9544 90.5189 79.7854 90.0698 79.7854 89.5263C79.7854 89.0755 79.9114 88.6811 80.1633 88.343C80.4151 88.005 80.7632 87.7415 81.2073 87.5526C81.6514 87.3603 82.1602 87.2642 82.7336 87.2642C83.5588 87.2642 84.2085 87.4432 84.6824 87.8011C85.1564 88.1558 85.4696 88.6314 85.6221 89.228ZM92.8479 89.228L91.5006 89.4666C91.4443 89.2943 91.3548 89.1302 91.2322 88.9744C91.1128 88.8187 90.9504 88.6911 90.7449 88.5916C90.5394 88.4922 90.2826 88.4425 89.9743 88.4425C89.5534 88.4425 89.2021 88.5369 88.9204 88.7259C88.6386 88.9115 88.4978 89.1518 88.4978 89.4467C88.4978 89.7019 88.5922 89.9074 88.7812 90.0632C88.9701 90.219 89.275 90.3466 89.6959 90.446L90.909 90.7244C91.6116 90.8868 92.1353 91.1371 92.48 91.4751C92.8247 91.8132 92.9971 92.2524 92.9971 92.7926C92.9971 93.25 92.8645 93.6577 92.5993 94.0156C92.3375 94.3703 91.9713 94.6487 91.5006 94.8509C91.0333 95.053 90.4914 95.1541 89.8749 95.1541C89.0198 95.1541 88.3221 94.9718 87.7819 94.6072C87.2416 94.2393 86.9102 93.7173 86.7875 93.0412L88.2243 92.8224C88.3138 93.197 88.4978 93.4804 88.7762 93.6726C89.0546 93.8615 89.4175 93.956 89.865 93.956C90.3522 93.956 90.7416 93.8549 91.0333 93.6527C91.325 93.4472 91.4708 93.197 91.4708 92.902C91.4708 92.6634 91.3813 92.4628 91.2023 92.3004C91.0267 92.138 90.7565 92.0154 90.392 91.9325L89.0993 91.6491C88.3867 91.4867 87.8598 91.2282 87.5184 90.8736C87.1803 90.5189 87.0113 90.0698 87.0113 89.5263C87.0113 89.0755 87.1372 88.6811 87.3891 88.343C87.641 88.005 87.989 87.7415 88.4331 87.5526C88.8773 87.3603 89.386 87.2642 89.9594 87.2642C90.7847 87.2642 91.4343 87.4432 91.9083 87.8011C92.3822 88.1558 92.6955 88.6314 92.8479 89.228Z" fill="#010101"/>
<path d="M96.4644 90.5455L96.5589 88.4474L94.789 89.5859L94.2471 88.6413L96.1263 87.6818L94.2471 86.7223L94.789 85.7777L96.5589 86.9162L96.4644 84.8182H97.5432L97.4488 86.9162L99.2187 85.7777L99.7606 86.7223L97.8813 87.6818L99.7606 88.6413L99.2187 89.5859L97.4488 88.4474L97.5432 90.5455H96.4644Z" fill="#FC0E35"/>
<g filter="url(#filter2_d_37103_296550)">
<rect x="2" y="106" width="330" height="42" rx="4" fill="white"/>
<rect x="2.5" y="106.5" width="329" height="41" rx="3.5" stroke="#C9CED2"/>
</g>
<path d="M3.11861 262V251.818H6.74787C7.54001 251.818 8.19626 251.962 8.71662 252.251C9.23698 252.539 9.62642 252.933 9.88494 253.434C10.1435 253.931 10.2727 254.491 10.2727 255.114C10.2727 255.741 10.1418 256.304 9.87997 256.805C9.62145 257.302 9.23035 257.696 8.70668 257.988C8.18632 258.276 7.53172 258.42 6.7429 258.42H4.24716V257.118H6.60369C7.10417 257.118 7.51018 257.032 7.82173 256.859C8.13329 256.684 8.36198 256.445 8.50781 256.143C8.65365 255.842 8.72656 255.499 8.72656 255.114C8.72656 254.73 8.65365 254.388 8.50781 254.09C8.36198 253.792 8.13163 253.558 7.81676 253.389C7.50521 253.22 7.09422 253.136 6.58381 253.136H4.65483V262H3.11861ZM13.8283 262.169C13.3444 262.169 12.9069 262.08 12.5158 261.901C12.1247 261.718 11.8148 261.455 11.5861 261.11C11.3607 260.765 11.2481 260.343 11.2481 259.842C11.2481 259.411 11.3309 259.057 11.4966 258.778C11.6624 258.5 11.8861 258.28 12.1678 258.117C12.4495 257.955 12.7644 257.832 13.1124 257.749C13.4604 257.666 13.8151 257.603 14.1763 257.56C14.6337 257.507 15.0049 257.464 15.29 257.431C15.575 257.395 15.7821 257.337 15.9114 257.257C16.0407 257.178 16.1053 257.048 16.1053 256.869V256.835C16.1053 256.4 15.9827 256.064 15.7374 255.825C15.4955 255.587 15.1342 255.467 14.6536 255.467C14.1531 255.467 13.7587 255.578 13.4704 255.8C13.1853 256.019 12.9881 256.263 12.8787 256.531L11.4817 256.213C11.6474 255.749 11.8894 255.375 12.2076 255.089C12.5291 254.801 12.8986 254.592 13.3162 254.463C13.7338 254.33 14.173 254.264 14.6337 254.264C14.9386 254.264 15.2618 254.301 15.6032 254.374C15.9479 254.443 16.2694 254.572 16.5677 254.761C16.8693 254.95 17.1162 255.22 17.3084 255.572C17.5007 255.92 17.5968 256.372 17.5968 256.929V262H16.1451V260.956H16.0854C15.9893 261.148 15.8451 261.337 15.6529 261.523C15.4606 261.708 15.2137 261.862 14.9121 261.985C14.6105 262.108 14.2492 262.169 13.8283 262.169ZM14.1515 260.976C14.5624 260.976 14.9138 260.895 15.2054 260.732C15.5004 260.57 15.7241 260.358 15.8766 260.096C16.0324 259.831 16.1103 259.547 16.1103 259.246V258.261C16.0572 258.314 15.9545 258.364 15.802 258.411C15.6529 258.454 15.4822 258.492 15.29 258.525C15.0977 258.555 14.9105 258.583 14.7282 258.609C14.5459 258.633 14.3934 258.652 14.2708 258.669C13.9824 258.705 13.7189 258.767 13.4803 258.853C13.245 258.939 13.0561 259.063 12.9135 259.226C12.7743 259.385 12.7047 259.597 12.7047 259.862C12.7047 260.23 12.8406 260.509 13.1124 260.697C13.3842 260.883 13.7305 260.976 14.1515 260.976ZM25.019 256.228L23.6717 256.467C23.6154 256.294 23.5259 256.13 23.4032 255.974C23.2839 255.819 23.1215 255.691 22.916 255.592C22.7105 255.492 22.4537 255.442 22.1454 255.442C21.7245 255.442 21.3732 255.537 21.0915 255.726C20.8097 255.911 20.6689 256.152 20.6689 256.447C20.6689 256.702 20.7633 256.907 20.9523 257.063C21.1412 257.219 21.4461 257.347 21.867 257.446L23.0801 257.724C23.7827 257.887 24.3064 258.137 24.6511 258.475C24.9958 258.813 25.1682 259.252 25.1682 259.793C25.1682 260.25 25.0356 260.658 24.7704 261.016C24.5086 261.37 24.1424 261.649 23.6717 261.851C23.2044 262.053 22.6625 262.154 22.046 262.154C21.1909 262.154 20.4932 261.972 19.953 261.607C19.4127 261.239 19.0813 260.717 18.9586 260.041L20.3954 259.822C20.4849 260.197 20.6689 260.48 20.9473 260.673C21.2257 260.862 21.5886 260.956 22.0361 260.956C22.5233 260.956 22.9127 260.855 23.2044 260.653C23.496 260.447 23.6419 260.197 23.6419 259.902C23.6419 259.663 23.5524 259.463 23.3734 259.3C23.1978 259.138 22.9276 259.015 22.563 258.933L21.2704 258.649C20.5578 258.487 20.0309 258.228 19.6895 257.874C19.3514 257.519 19.1824 257.07 19.1824 256.526C19.1824 256.076 19.3083 255.681 19.5602 255.343C19.8121 255.005 20.1601 254.741 20.6042 254.553C21.0484 254.36 21.5571 254.264 22.1305 254.264C22.9558 254.264 23.6054 254.443 24.0794 254.801C24.5533 255.156 24.8666 255.631 25.019 256.228ZM32.2449 256.228L30.8976 256.467C30.8412 256.294 30.7517 256.13 30.6291 255.974C30.5098 255.819 30.3474 255.691 30.1419 255.592C29.9364 255.492 29.6795 255.442 29.3713 255.442C28.9504 255.442 28.599 255.537 28.3173 255.726C28.0356 255.911 27.8947 256.152 27.8947 256.447C27.8947 256.702 27.9892 256.907 28.1781 257.063C28.367 257.219 28.672 257.347 29.0929 257.446L30.306 257.724C31.0086 257.887 31.5323 258.137 31.877 258.475C32.2217 258.813 32.394 259.252 32.394 259.793C32.394 260.25 32.2614 260.658 31.9963 261.016C31.7345 261.37 31.3682 261.649 30.8976 261.851C30.4302 262.053 29.8883 262.154 29.2719 262.154C28.4167 262.154 27.7191 261.972 27.1788 261.607C26.6386 261.239 26.3071 260.717 26.1845 260.041L27.6213 259.822C27.7108 260.197 27.8947 260.48 28.1731 260.673C28.4515 260.862 28.8145 260.956 29.2619 260.956C29.7491 260.956 30.1386 260.855 30.4302 260.653C30.7219 260.447 30.8677 260.197 30.8677 259.902C30.8677 259.663 30.7783 259.463 30.5993 259.3C30.4236 259.138 30.1535 259.015 29.7889 258.933L28.4963 258.649C27.7837 258.487 27.2567 258.228 26.9153 257.874C26.5773 257.519 26.4082 257.07 26.4082 256.526C26.4082 256.076 26.5342 255.681 26.7861 255.343C27.038 255.005 27.386 254.741 27.8301 254.553C28.2742 254.36 28.783 254.264 29.3564 254.264C30.1817 254.264 30.8313 254.443 31.3052 254.801C31.7792 255.156 32.0924 255.631 32.2449 256.228ZM35.404 262L33.1568 254.364H34.693L36.1895 259.972H36.2641L37.7655 254.364H39.3017L40.7932 259.947H40.8677L42.3543 254.364H43.8905L41.6483 262H40.132L38.5808 256.487H38.4665L36.9153 262H35.404ZM48.0054 262.154C47.2895 262.154 46.6647 261.99 46.1311 261.662C45.5975 261.334 45.1832 260.875 44.8882 260.285C44.5932 259.695 44.4457 259.005 44.4457 258.217C44.4457 257.424 44.5932 256.732 44.8882 256.138C45.1832 255.545 45.5975 255.085 46.1311 254.756C46.6647 254.428 47.2895 254.264 48.0054 254.264C48.7213 254.264 49.346 254.428 49.8797 254.756C50.4133 255.085 50.8276 255.545 51.1225 256.138C51.4175 256.732 51.565 257.424 51.565 258.217C51.565 259.005 51.4175 259.695 51.1225 260.285C50.8276 260.875 50.4133 261.334 49.8797 261.662C49.346 261.99 48.7213 262.154 48.0054 262.154ZM48.0103 260.906C48.4743 260.906 48.8588 260.784 49.1637 260.538C49.4687 260.293 49.694 259.967 49.8399 259.559C49.989 259.151 50.0636 258.702 50.0636 258.212C50.0636 257.724 49.989 257.277 49.8399 256.869C49.694 256.458 49.4687 256.129 49.1637 255.88C48.8588 255.631 48.4743 255.507 48.0103 255.507C47.543 255.507 47.1552 255.631 46.847 255.88C46.5421 256.129 46.315 256.458 46.1659 256.869C46.02 257.277 45.9471 257.724 45.9471 258.212C45.9471 258.702 46.02 259.151 46.1659 259.559C46.315 259.967 46.5421 260.293 46.847 260.538C47.1552 260.784 47.543 260.906 48.0103 260.906ZM52.9443 262V254.364H54.3811V255.577H54.4606C54.5998 255.166 54.8451 254.843 55.1964 254.607C55.5511 254.369 55.9521 254.249 56.3995 254.249C56.4923 254.249 56.6017 254.253 56.7277 254.259C56.8569 254.266 56.958 254.274 57.0309 254.284V255.706C56.9713 255.689 56.8652 255.671 56.7128 255.651C56.5603 255.628 56.4078 255.616 56.2554 255.616C55.904 255.616 55.5908 255.691 55.3157 255.84C55.044 255.986 54.8285 256.19 54.6694 256.452C54.5103 256.71 54.4308 257.005 54.4308 257.337V262H52.9443ZM60.6226 262.149C60.0061 262.149 59.4559 261.992 58.972 261.677C58.4914 261.359 58.1136 260.906 57.8385 260.32C57.5667 259.73 57.4308 259.022 57.4308 258.197C57.4308 257.371 57.5684 256.665 57.8434 256.079C58.1219 255.492 58.503 255.043 58.9869 254.732C59.4708 254.42 60.0193 254.264 60.6325 254.264C61.1065 254.264 61.4876 254.344 61.776 254.503C62.0676 254.659 62.293 254.841 62.4521 255.05C62.6145 255.259 62.7405 255.442 62.83 255.602H62.9194V251.818H64.4059V262H62.9542V260.812H62.83C62.7405 260.974 62.6112 261.16 62.4422 261.369C62.2764 261.577 62.0478 261.76 61.7561 261.915C61.4644 262.071 61.0866 262.149 60.6226 262.149ZM60.9507 260.881C61.3782 260.881 61.7395 260.769 62.0345 260.543C62.3328 260.315 62.5582 259.998 62.7106 259.594C62.8664 259.189 62.9443 258.719 62.9443 258.182C62.9443 257.652 62.8681 257.187 62.7156 256.79C62.5631 256.392 62.3394 256.082 62.0444 255.86C61.7495 255.638 61.3849 255.527 60.9507 255.527C60.5032 255.527 60.1304 255.643 59.8321 255.875C59.5338 256.107 59.3084 256.424 59.1559 256.825C59.0068 257.226 58.9322 257.678 58.9322 258.182C58.9322 258.692 59.0085 259.151 59.1609 259.559C59.3134 259.967 59.5388 260.29 59.8371 260.528C60.1387 260.764 60.5099 260.881 60.9507 260.881Z" fill="#010101"/>
<path d="M68.3605 257.545L68.455 255.447L66.6851 256.586L66.1432 255.641L68.0224 254.682L66.1432 253.722L66.6851 252.778L68.455 253.916L68.3605 251.818H69.4393L69.3449 253.916L71.1148 252.778L71.6567 253.722L69.7774 254.682L71.6567 255.641L71.1148 256.586L69.3449 255.447L69.4393 257.545H68.3605Z" fill="#FC0E35"/>
<rect x="2.5" y="273.5" width="329" height="41" rx="3.5" fill="white"/>
<rect x="2.5" y="273.5" width="329" height="41" rx="3.5" stroke="#C9CED2"/>
<path d="M308.335 291.673L303.651 296.336C303.322 296.035 303.058 295.671 302.875 295.265C302.691 294.86 302.592 294.422 302.583 293.977C302.574 293.532 302.655 293.09 302.822 292.678C302.988 292.265 303.237 291.89 303.553 291.576C303.869 291.261 304.245 291.014 304.66 290.848C305.074 290.682 305.518 290.601 305.965 290.61C306.411 290.619 306.851 290.718 307.259 290.901C307.666 291.083 308.032 291.346 308.335 291.673Z" stroke="#292D32" stroke-linecap="round" stroke-linejoin="round"/>
<path d="M311.434 288.271C309.893 287.073 308 286.412 306.046 286.391C302.778 286.391 299.733 288.308 297.613 291.625C297.203 292.356 296.988 293.179 296.988 294.016C296.988 294.853 297.203 295.677 297.613 296.408C298.303 297.498 299.149 298.482 300.124 299.329" stroke="#292D32" stroke-linecap="round" stroke-linejoin="round"/>
<path d="M302.613 300.917C303.661 301.362 304.788 301.594 305.928 301.599C309.196 301.599 312.241 299.682 314.366 296.365C314.775 295.633 314.99 294.81 314.99 293.973C314.99 293.136 314.775 292.313 314.366 291.582C314.062 291.112 313.733 290.66 313.379 290.227" stroke="#292D32" stroke-linecap="round" stroke-linejoin="round"/>
<path d="M309.229 294.633C309.104 295.276 308.788 295.867 308.323 296.331C307.857 296.794 307.263 297.108 306.617 297.233" stroke="#292D32" stroke-linecap="round" stroke-linejoin="round"/>
<path d="M303.704 296.273L296.789 303.157" stroke="#292D32" stroke-linecap="round" stroke-linejoin="round"/>
<path d="M315.188 284.844L308.273 291.728" stroke="#292D32" stroke-linecap="round" stroke-linejoin="round"/>
<defs>
<filter id="filter0_d_37103_296550" x="0" y="24" width="334" height="46" filterUnits="userSpaceOnUse" color-interpolation-filters="sRGB">
<feFlood flood-opacity="0" result="BackgroundImageFix"/>
<feColorMatrix in="SourceAlpha" type="matrix" values="0 0 0 0 0 0 0 0 0 0 0 0 0 0 0 0 0 0 127 0" result="hardAlpha"/>
<feOffset dy="1"/>
<feGaussianBlur stdDeviation="1"/>
<feColorMatrix type="matrix" values="0 0 0 0 0.0627451 0 0 0 0 0.0941176 0 0 0 0 0.156863 0 0 0 0.05 0"/>
<feBlend mode="normal" in2="BackgroundImageFix" result="effect1_dropShadow_37103_296550"/>
<feBlend mode="normal" in="SourceGraphic" in2="effect1_dropShadow_37103_296550" result="shape"/>
</filter>
<filter id="filter1_d_37103_296550" x="0" y="191" width="334" height="46" filterUnits="userSpaceOnUse" color-interpolation-filters="sRGB">
<feFlood flood-opacity="0" result="BackgroundImageFix"/>
<feColorMatrix in="SourceAlpha" type="matrix" values="0 0 0 0 0 0 0 0 0 0 0 0 0 0 0 0 0 0 127 0" result="hardAlpha"/>
<feOffset dy="1"/>
<feGaussianBlur stdDeviation="1"/>
<feColorMatrix type="matrix" values="0 0 0 0 0.0627451 0 0 0 0 0.0941176 0 0 0 0 0.156863 0 0 0 0.05 0"/>
<feBlend mode="normal" in2="BackgroundImageFix" result="effect1_dropShadow_37103_296550"/>
<feBlend mode="normal" in="SourceGraphic" in2="effect1_dropShadow_37103_296550" result="shape"/>
</filter>
<filter id="filter2_d_37103_296550" x="0" y="105" width="334" height="46" filterUnits="userSpaceOnUse" color-interpolation-filters="sRGB">
<feFlood flood-opacity="0" result="BackgroundImageFix"/>
<feColorMatrix in="SourceAlpha" type="matrix" values="0 0 0 0 0 0 0 0 0 0 0 0 0 0 0 0 0 0 127 0" result="hardAlpha"/>
<feOffset dy="1"/>
<feGaussianBlur stdDeviation="1"/>
<feColorMatrix type="matrix" values="0 0 0 0 0.0627451 0 0 0 0 0.0941176 0 0 0 0 0.156863 0 0 0 0.05 0"/>
<feBlend mode="normal" in2="BackgroundImageFix" result="effect1_dropShadow_37103_296550"/>
<feBlend mode="normal" in="SourceGraphic" in2="effect1_dropShadow_37103_296550" result="shape"/>
</filter>
<clipPath id="clip0_37103_296550">
<rect width="22.8242" height="24" fill="white" transform="translate(15.3125 202)"/>
</clipPath>
</defs>
</svg>
