<svg width="23" height="16" viewBox="0 0 23 16" fill="none" xmlns="http://www.w3.org/2000/svg">
<path d="M0.238281 0.09375H23.7585V15.9023H0.238281V0.09375Z" fill="#D6D4D1"/>
<path d="M0.433594 10.5H23.5693V15.7053H0.433594V10.5Z" fill="#11892E"/>
<path d="M0.433594 0.28125H23.5693V5.48698H0.433594V0.28125Z" fill="#F2963B"/>
<path d="M0.433594 5.49219H23.5707V10.5047H0.433594V5.49219Z" fill="white"/>
<path d="M14.1068 7.71915C13.954 6.55818 12.8886 5.74054 11.7276 5.89337C10.5653 6.04679 9.74843 7.11149 9.90118 8.27245C10.054 9.43342 11.1193 10.2504 12.2815 10.0982C13.4425 9.94473 14.2595 8.8802 14.1068 7.71915ZM13.8557 8.13301C13.7985 8.127 13.7454 8.16679 13.7388 8.22394C13.7308 8.28109 13.7692 8.3335 13.8265 8.34214C13.8183 8.38532 13.8078 8.42858 13.7972 8.471L12.8275 8.1535L12.3679 8.06375C12.3703 8.05046 12.3732 8.03725 12.3745 8.02387L12.8392 8.05638L13.8595 8.00126C13.8597 8.04529 13.857 8.08906 13.8557 8.13301ZM10.1537 7.8586C10.2107 7.86461 10.2625 7.82405 10.2705 7.76766C10.2785 7.71051 10.2387 7.6587 10.1815 7.64879C10.1895 7.60629 10.2001 7.56311 10.2107 7.5206L11.1804 7.83811L11.6414 7.92777C11.6387 7.94039 11.636 7.95368 11.6348 7.96765L11.1684 7.93514L10.1496 7.99026C10.1496 7.94631 10.1509 7.90246 10.1537 7.8586ZM10.1815 8.34214C10.2387 8.3335 10.2785 8.28101 10.2705 8.22394C10.2625 8.16679 10.2107 8.12691 10.1537 8.13301C10.1509 8.08906 10.1496 8.0447 10.1496 8.00152L11.1684 8.05664L11.636 8.02412C11.6374 8.03081 11.636 8.03742 11.6374 8.0447C11.6374 8.05139 11.64 8.05723 11.6414 8.064L11.1804 8.15375L10.2107 8.47126C10.2001 8.42858 10.1907 8.386 10.1815 8.34214ZM12.8395 7.93514L12.3732 7.96765C12.3719 7.96105 12.3732 7.95436 12.3719 7.94708C12.3719 7.94047 12.3692 7.93378 12.3679 7.92777L12.8275 7.83811L13.7972 7.5206C13.8078 7.56311 13.8183 7.60629 13.8265 7.64947C13.7692 7.65878 13.7307 7.7106 13.7388 7.76766C13.7454 7.82414 13.7972 7.86461 13.8543 7.8586C13.8569 7.90246 13.8597 7.94691 13.8597 7.99017L12.8395 7.93514ZM13.7561 7.38454C13.7694 7.42569 13.784 7.46752 13.7961 7.51002L12.7958 7.72059L12.3548 7.87265C12.3494 7.86004 12.3428 7.8481 12.3377 7.83548L12.7588 7.63025L13.6131 7.07296C13.6356 7.11081 13.6556 7.14933 13.6753 7.18921C13.6237 7.21309 13.5983 7.27354 13.6206 7.32671C13.6417 7.37921 13.7029 7.40503 13.7561 7.38454ZM13.3921 6.93148C13.4266 6.9767 13.4918 6.98525 13.5369 6.95273C13.5634 6.98863 13.586 7.0258 13.6073 7.06365L12.6974 7.52526L12.3096 7.78697C12.3014 7.7763 12.2949 7.76436 12.2857 7.75437L12.6376 7.44753L13.3191 6.68772C13.3495 6.71897 13.3804 6.7508 13.4094 6.78475C13.3643 6.82116 13.3576 6.88568 13.3921 6.93148ZM13.0693 6.60797C13.1144 6.64319 13.1796 6.63455 13.2155 6.59069C13.2489 6.61923 13.2808 6.64912 13.3125 6.68036L12.5527 7.36185L12.2444 7.71517C12.2338 7.70653 12.2246 7.6979 12.2124 7.69062L12.4754 7.30207L12.9364 6.39215C12.9734 6.41408 13.0106 6.43804 13.0477 6.46259C13.0149 6.50907 13.0228 6.57351 13.0693 6.60797ZM12.6735 6.37953C12.7265 6.40146 12.7863 6.37691 12.8102 6.32509C12.8501 6.34431 12.8898 6.36488 12.9271 6.38681L12.3692 7.24162L12.1647 7.66141C12.1526 7.65539 12.1394 7.65142 12.1262 7.64684L12.2801 7.20386L12.4888 6.20562C12.5313 6.21688 12.5738 6.23018 12.6163 6.24483C12.5951 6.29791 12.6204 6.3576 12.6735 6.37953ZM12.1407 6.14576C12.1354 6.20224 12.1753 6.25397 12.2324 6.26134C12.2896 6.2687 12.3413 6.23009 12.3506 6.17303C12.3946 6.18166 12.4371 6.19165 12.4794 6.20291L12.162 7.17262L12.0729 7.63287C12.0582 7.63025 12.0464 7.62695 12.0318 7.62559L12.065 7.15933L12.0094 6.14043C12.0531 6.14043 12.0982 6.14255 12.1407 6.14576ZM11.7755 6.26134C11.8326 6.25405 11.8738 6.20224 11.8685 6.14576C11.911 6.14246 11.9562 6.14111 11.9987 6.14043L11.9442 7.15933L11.9761 7.62686C11.9694 7.62754 11.9628 7.62686 11.9562 7.62754C11.9495 7.62822 11.9416 7.63152 11.9349 7.63287L11.8459 7.17262L11.5284 6.20224C11.5709 6.19165 11.6134 6.18166 11.6573 6.17303C11.6666 6.23009 11.7184 6.26862 11.7755 6.26134ZM11.3345 6.37953C11.389 6.3576 11.4129 6.29715 11.3929 6.24339C11.4341 6.22942 11.4766 6.21688 11.5191 6.20554L11.729 7.20378L11.8805 7.64549C11.8684 7.65082 11.8565 7.65675 11.8446 7.66276L11.6386 7.24171L11.082 6.38622C11.1192 6.36497 11.1578 6.34431 11.1976 6.32509C11.2216 6.37691 11.2813 6.40146 11.3345 6.37953ZM10.94 6.60797C10.9852 6.57342 10.9945 6.5084 10.9599 6.46183C10.997 6.43719 11.0329 6.41399 11.0728 6.39206L11.5324 7.30199L11.7954 7.69053C11.7848 7.69781 11.7728 7.70586 11.7622 7.71441L11.4553 7.36177L10.6954 6.68027C10.7287 6.64903 10.7592 6.61914 10.7937 6.59061C10.8284 6.63455 10.8935 6.64319 10.94 6.60797ZM10.6171 6.93148C10.6517 6.88568 10.6437 6.82125 10.5999 6.78475C10.6264 6.75156 10.6583 6.71964 10.6889 6.68772L11.3703 7.44753L11.7237 7.75505C11.7158 7.76504 11.7065 7.7763 11.6985 7.78697L11.3106 7.52526L10.4007 7.06365C10.422 7.0258 10.4458 6.98796 10.4711 6.95206C10.5162 6.98525 10.5827 6.97661 10.6171 6.93148ZM10.3873 7.32663C10.4099 7.27354 10.386 7.21309 10.3328 7.18913C10.3527 7.14993 10.3727 7.11072 10.3952 7.07288L11.2493 7.63016L11.6705 7.8354C11.6651 7.84734 11.6599 7.86063 11.6559 7.87325L11.2123 7.7205L10.2133 7.51061C10.2253 7.46743 10.2386 7.42628 10.2518 7.38446C10.305 7.40503 10.3661 7.37921 10.3873 7.32663ZM10.2519 8.60715C10.2387 8.566 10.2254 8.5235 10.2134 8.48099L11.2123 8.27051L11.6547 8.11904C11.6587 8.13157 11.6653 8.14368 11.6706 8.15561L11.2494 8.36161L10.3953 8.91873C10.3727 8.88096 10.3528 8.84244 10.3329 8.80248C10.3861 8.77928 10.4099 8.71815 10.3874 8.66506C10.3661 8.6118 10.305 8.5859 10.2519 8.60715ZM10.6171 9.06021C10.5827 9.01499 10.5162 9.00636 10.471 9.03963C10.4458 9.00297 10.4219 8.96589 10.4006 8.92804L11.3106 8.46643L11.6984 8.20404C11.7064 8.21539 11.7143 8.22665 11.7237 8.23732L11.3703 8.54415L10.6888 9.30329C10.6583 9.27213 10.6277 9.2403 10.5998 9.20694C10.6438 9.17036 10.6518 9.10601 10.6171 9.06021ZM10.94 9.38355C10.8935 9.34833 10.8285 9.35705 10.7938 9.40083C10.7606 9.37229 10.7287 9.34249 10.6955 9.31116L11.4554 8.62975L11.7636 8.27567C11.7742 8.2849 11.7849 8.29354 11.7955 8.30023L11.5325 8.68877L11.0729 9.59929C11.0344 9.57736 10.9971 9.55348 10.9599 9.52884C10.9944 9.48312 10.9852 9.4181 10.94 9.38355ZM11.3345 9.61131C11.2813 9.59006 11.2216 9.61394 11.1977 9.66635C11.1578 9.64704 11.1193 9.62579 11.0821 9.60462L11.6387 8.74981L11.8446 8.32935C11.8566 8.33536 11.8699 8.33994 11.8818 8.344L11.729 8.78758L11.5191 9.78581C11.4766 9.77455 11.4354 9.76194 11.3929 9.74729C11.4129 9.69369 11.3876 9.63392 11.3345 9.61131ZM11.8685 9.84584C11.8739 9.78937 11.8326 9.73772 11.7755 9.73027C11.7184 9.72231 11.6666 9.76219 11.6573 9.81799C11.6133 9.81003 11.5708 9.80004 11.5284 9.78878L11.8459 8.81907L11.9349 8.35882C11.9495 8.36136 11.9628 8.36466 11.9761 8.3661L11.9442 8.83169L11.9987 9.85126C11.9548 9.85118 11.911 9.84982 11.8685 9.84584ZM12.2324 9.73027C12.1753 9.73764 12.1354 9.78869 12.1407 9.84584C12.0969 9.84847 12.0531 9.85058 12.0092 9.85058L12.065 8.83169L12.0316 8.36415C12.0382 8.36347 12.0464 8.36483 12.0515 8.36347C12.0579 8.3628 12.0661 8.36017 12.0727 8.35882L12.1618 8.81907L12.4792 9.78878C12.4367 9.80004 12.3942 9.81003 12.3505 9.81799C12.3414 9.76219 12.2896 9.72231 12.2324 9.73027ZM12.6735 9.61131C12.6203 9.63392 12.5951 9.69369 12.6163 9.74737C12.5738 9.76194 12.5313 9.77455 12.4888 9.7859L12.2801 8.78766L12.1274 8.34603C12.1394 8.3407 12.1511 8.33477 12.1645 8.32817L12.3691 8.74981L12.927 9.60462C12.8899 9.62655 12.8499 9.64713 12.81 9.66635C12.7863 9.61411 12.7265 9.59006 12.6735 9.61131ZM13.0693 9.38355C13.0228 9.4181 13.0148 9.48312 13.048 9.52978C13.0109 9.55365 12.975 9.57753 12.9365 9.59946L12.4758 8.68894L12.213 8.3004C12.225 8.29371 12.2367 8.28583 12.2462 8.27728L12.5531 8.62992L13.3129 9.31133C13.281 9.34257 13.2491 9.37246 13.2158 9.401C13.1795 9.35697 13.1144 9.34833 13.0693 9.38355ZM13.3921 9.06021C13.3576 9.10601 13.3656 9.17044 13.4094 9.20634C13.3815 9.24021 13.3495 9.27213 13.3191 9.30337L12.6376 8.54424L12.2842 8.23673C12.2923 8.22614 12.3014 8.21547 12.3096 8.20413L12.6974 8.46651L13.6073 8.92745C13.586 8.96597 13.5621 9.00314 13.5369 9.03972C13.4904 9.00627 13.4266 9.01491 13.3921 9.06021ZM13.6206 8.66506C13.5978 8.71815 13.6232 8.7786 13.6751 8.80256C13.6552 8.84168 13.6351 8.8802 13.6127 8.91873L12.7586 8.36161L12.3388 8.15629C12.3441 8.14435 12.3481 8.13106 12.3534 8.11853L12.7958 8.27059L13.7949 8.48108C13.7842 8.52358 13.7695 8.56617 13.7564 8.60655C13.7029 8.58657 13.6417 8.61248 13.6206 8.66506Z" fill="#21296F"/>
</svg>
