<svg width="28" height="28" viewBox="0 0 28 28" fill="none" xmlns="http://www.w3.org/2000/svg">
<g clip-path="url(#clip0_42819_14963)">
<rect width="28" height="28" rx="14" fill="white"/>
<g clip-path="url(#clip1_42819_14963)">
<path d="M14 30C22.8366 30 30 22.8366 30 14C30 5.16344 22.8366 -2 14 -2C5.16344 -2 -2 5.16344 -2 14C-2 22.8366 5.16344 30 14 30Z" fill="#FC0D72"/>
<path fill-rule="evenodd" clip-rule="evenodd" d="M13.9999 18.7307C14.9351 18.7307 15.8493 18.4534 16.6269 17.9338C17.4045 17.4143 18.0106 16.6758 18.3686 15.8119C18.7266 14.9479 18.8203 13.9971 18.638 13.0799C18.4557 12.1626 18.0055 11.32 17.3443 10.6586C16.6831 9.99716 15.8407 9.54664 14.9235 9.36397C14.0063 9.18131 13.0555 9.2747 12.1914 9.63235C11.3273 9.98999 10.5886 10.5958 10.0688 11.3733C9.54896 12.1507 9.27132 13.0648 9.27097 14C9.27073 14.6212 9.39288 15.2363 9.63042 15.8102C9.86796 16.3842 10.2163 16.9057 10.6554 17.345C11.0945 17.7843 11.6159 18.1328 12.1898 18.3705C12.7636 18.6083 13.3787 18.7307 13.9999 18.7307ZM13.9999 17.1538C14.6237 17.1541 15.2336 16.9695 15.7525 16.6231C16.2714 16.2768 16.6759 15.7844 16.9148 15.2081C17.1538 14.6319 17.2165 13.9977 17.095 13.3858C16.9735 12.7739 16.6733 12.2118 16.2323 11.7706C15.7913 11.3293 15.2294 11.0288 14.6176 10.907C14.0057 10.7851 13.3715 10.8475 12.7951 11.0861C12.2188 11.3248 11.7261 11.729 11.3795 12.2477C11.0329 12.7663 10.8479 13.3762 10.8479 14C10.8479 14.8361 11.1799 15.638 11.7709 16.2294C12.362 16.8208 13.1637 17.1533 13.9999 17.1538Z" fill="#F6F6F6"/>
<path d="M18.7289 8.48346C18.5731 8.48346 18.4208 8.52965 18.2913 8.61619C18.1618 8.70272 18.0609 8.82572 18.0013 8.96963C17.9417 9.11354 17.9261 9.27189 17.9564 9.42466C17.9868 9.57743 18.0618 9.71776 18.172 9.8279C18.2821 9.93804 18.4225 10.013 18.5752 10.0434C18.728 10.0738 18.8863 10.0582 19.0303 9.99862C19.1742 9.93901 19.2972 9.83807 19.3837 9.70856C19.4702 9.57904 19.5164 9.42678 19.5164 9.27101C19.5164 9.06214 19.4335 8.86182 19.2858 8.71413C19.1381 8.56643 18.9377 8.48346 18.7289 8.48346Z" fill="#F6F6F6"/>
<path fill-rule="evenodd" clip-rule="evenodd" d="M5.84534 7.91291C5.31725 9.51757 5.1414 11.2172 5.32978 12.896V15.1076C5.14218 16.7846 5.31802 18.4824 5.84534 20.0854C6.2988 20.9756 7.0226 21.6994 7.91289 22.1529C9.51588 22.6802 11.2136 22.8561 12.8907 22.6685H15.1076C16.7846 22.8561 18.4824 22.6802 20.0853 22.1529C20.9763 21.6997 21.7007 20.9759 22.1547 20.0854C22.682 18.4824 22.8578 16.7846 22.6702 15.1076V12.896C22.8578 11.219 22.682 9.52122 22.1547 7.91824C21.7017 7.02569 20.9771 6.2999 20.0853 5.84535C18.4824 5.31803 16.7846 5.14219 15.1076 5.3298H12.896C11.219 5.14219 9.52121 5.31803 7.91823 5.84535C7.02595 6.2979 6.30019 7.02179 5.84534 7.91291ZM15.1076 6.90668H12.896C11.5449 6.90668 10.6276 6.90668 9.91823 6.96535C9.47355 6.9749 9.03506 7.07154 8.62756 7.2498C8.03439 7.55212 7.5521 8.0344 7.24978 8.62757C7.07153 9.03507 6.97489 9.47356 6.96534 9.91824C6.90667 10.6294 6.90667 11.5449 6.90667 12.896V15.1076C6.90667 16.4587 6.90667 17.376 6.96534 18.0854C6.97489 18.53 7.07153 18.9685 7.24978 19.376C7.5521 19.9692 8.03439 20.4515 8.62756 20.7538C9.03504 20.9321 9.47355 21.0287 9.91823 21.0382C10.6293 21.0969 11.5449 21.0969 12.896 21.0969H15.1076C16.4587 21.0969 17.376 21.0969 18.0853 21.0382C18.53 21.0287 18.9685 20.9321 19.376 20.7538C19.9681 20.4504 20.4491 19.9675 20.7502 19.3742C20.9285 18.9668 21.0252 18.5283 21.0347 18.0836C21.0933 17.3725 21.0933 16.4569 21.0933 15.1058V12.896C21.0933 11.5449 21.0933 10.6276 21.0347 9.91824C21.0252 9.47356 20.9285 9.03506 20.7502 8.62757C20.4484 8.03467 19.9667 7.55242 19.3742 7.2498C18.9667 7.07154 18.5282 6.9749 18.0836 6.96535C17.3725 6.90668 16.4551 6.90668 15.1076 6.90668Z" fill="#F6F6F6"/>
</g>
</g>
<defs>
<clipPath id="clip0_42819_14963">
<rect width="28" height="28" rx="14" fill="white"/>
</clipPath>
<clipPath id="clip1_42819_14963">
<rect width="32" height="32" fill="white" transform="translate(-2 -2)"/>
</clipPath>
</defs>
</svg>
