<svg width="28" height="28" viewBox="0 0 28 28" fill="none" xmlns="http://www.w3.org/2000/svg">
<g clip-path="url(#clip0_42819_14974)">
<rect width="28" height="28" rx="14" fill="white"/>
<rect x="-2" y="-2" width="32" height="32" rx="16" fill="#1275B1"/>
<path d="M10.1355 6.93388C10.1355 8.00194 9.20973 8.86777 8.06775 8.86777C6.92576 8.86777 6 8.00194 6 6.93388C6 5.86583 6.92576 5 8.06775 5C9.20973 5 10.1355 5.86583 10.1355 6.93388Z" fill="white"/>
<path d="M6.28277 10.2893H9.81738V21H6.28277V10.2893Z" fill="white"/>
<path d="M15.5081 10.2893H11.9735V21H15.5081C15.5081 21 15.5081 17.6281 15.5081 15.5198C15.5081 14.2544 15.9402 12.9835 17.6642 12.9835C19.6126 12.9835 19.6009 14.6395 19.5918 15.9224C19.5799 17.5994 19.6082 19.3107 19.6082 21H23.1429V15.3471C23.1129 11.7376 22.1724 10.0744 19.0781 10.0744C17.2405 10.0744 16.1014 10.9086 15.5081 11.6634V10.2893Z" fill="white"/>
</g>
<defs>
<clipPath id="clip0_42819_14974">
<rect width="28" height="28" rx="14" fill="white"/>
</clipPath>
</defs>
</svg>
