<svg width="20" height="20" viewBox="0 0 20 20" fill="none" xmlns="http://www.w3.org/2000/svg">
<path d="M17.0444 16.8223H14.175V12.3278C14.175 11.2562 14.1557 9.87634 12.6822 9.87634C11.1878 9.87634 10.9587 11.0448 10.9587 12.2487V16.8223H8.08926V7.57986H10.8441V8.84349H10.8828C11.4444 7.88487 12.4902 7.31035 13.6005 7.35069C16.5086 7.35069 17.046 9.26309 17.046 11.7532L17.0444 16.8207V16.8223ZM4.85191 6.31622C4.41113 6.31411 3.98898 6.13818 3.67715 5.82664C3.36531 5.51511 3.18898 5.09314 3.18643 4.65236C3.18643 3.73893 3.93848 2.98688 4.85191 2.98688C5.76534 2.98688 6.51577 3.73893 6.51739 4.65236C6.51739 5.56579 5.76534 6.31622 4.85191 6.31622ZM6.28661 16.8223H3.41398V7.57986H6.28661V16.8223ZM18.4727 0.320825H1.97121C1.59705 0.318652 1.23714 0.46423 0.969704 0.725924C0.702269 0.987617 0.548915 1.34428 0.542969 1.71841V18.2893C0.548915 18.6634 0.702269 19.0201 0.969704 19.2818C1.23714 19.5434 1.59705 19.689 1.97121 19.6869H18.4743C18.8493 19.6899 19.2104 19.5448 19.479 19.2831C19.7477 19.0214 19.9022 18.6642 19.909 18.2893V1.71679C19.9022 1.3421 19.7476 0.985287 19.4788 0.724104C19.2101 0.462921 18.849 0.318544 18.4743 0.322438L18.4727 0.320825Z" fill="#0A66C2"/>
</svg>
