<svg width="30" height="30" viewBox="0 0 30 30" fill="none" xmlns="http://www.w3.org/2000/svg">
<g clip-path="url(#clip0_42890_15006)">
<path d="M21.127 11.1553C21.3239 9.95095 20.4594 8.84766 19.319 8.84766H9.91419C8.77373 8.84766 7.90934 9.95095 8.10617 11.1553" stroke="#616C77" stroke-width="1.35"/>
<path d="M19.5818 8.84578C19.6055 8.60663 19.6173 8.48702 19.6175 8.38826C19.6194 7.44337 18.9773 6.64945 18.1298 6.54863C18.0412 6.53809 17.9327 6.53809 17.7157 6.53809H12.2885C12.0715 6.53809 11.963 6.53809 11.8744 6.54863C11.0269 6.64945 10.3849 7.44337 10.3867 8.38825C10.3869 8.48702 10.3987 8.60661 10.4224 8.84578" stroke="#616C77" stroke-width="1.35"/>
<path d="M17.6897 16.208C18.2052 16.5187 18.2052 17.3229 17.6897 17.6336L14.5775 19.5094C14.0765 19.8113 13.4609 19.4184 13.4609 18.7966V15.045C13.4609 14.4234 14.0765 14.0304 14.5775 14.3323L17.6897 16.208Z" stroke="#616C77" stroke-width="1.35"/>
<path d="M6.86357 16.7261C6.48616 14.1303 6.29746 12.8325 7.09949 11.9924C7.90152 11.1523 9.32933 11.1523 12.1849 11.1523H17.8163C20.6719 11.1523 22.0997 11.1523 22.9017 11.9924C23.7037 12.8325 23.515 14.1303 23.1377 16.7261L22.7797 19.1876C22.4837 21.2232 22.3358 22.241 21.5767 22.8506C20.8175 23.46 19.6978 23.46 17.4583 23.46H12.5428C10.3034 23.46 9.18374 23.46 8.42458 22.8506C7.66542 22.241 7.51744 21.2232 7.22147 19.1876L6.86357 16.7261Z" stroke="#616C77" stroke-width="1.35"/>
</g>
<defs>
<clipPath id="clip0_42890_15006">
<rect width="20" height="20" fill="white" transform="translate(5 5)"/>
</clipPath>
</defs>
</svg>
