<svg width="30" height="30" viewBox="0 0 30 30" fill="none" xmlns="http://www.w3.org/2000/svg">
<path d="M10.8346 15L6.66797 17.0833L14.7032 21.1009C14.8125 21.1556 14.8671 21.1829 14.9245 21.1937C14.9752 21.2032 15.0274 21.2032 15.0781 21.1937C15.1355 21.1829 15.1901 21.1556 15.2994 21.1009L23.3346 17.0833L19.168 15M6.66797 12.9167L14.7032 8.89908C14.8125 8.84443 14.8671 8.8171 14.9245 8.80634C14.9752 8.79681 15.0274 8.79681 15.0781 8.80634C15.1355 8.8171 15.1901 8.84443 15.2994 8.89908L23.3346 12.9167L15.2994 16.9343C15.1901 16.9889 15.1355 17.0163 15.0781 17.027C15.0274 17.0365 14.9752 17.0365 14.9245 17.027C14.8671 17.0163 14.8125 16.9889 14.7032 16.9343L6.66797 12.9167Z" stroke="#616C77" stroke-width="1.5" stroke-linecap="round" stroke-linejoin="round"/>
</svg>
