<svg width="28" height="28" viewBox="0 0 28 28" fill="none" xmlns="http://www.w3.org/2000/svg">
<g clip-path="url(#clip0_42819_14956)">
<path d="M-1.72056 7.33522C-1.57367 5.15856 0.244511 3.45272 2.50796 3.34479C5.78558 3.1885 10.4703 3 14 3C17.5297 3 22.2144 3.1885 25.492 3.34479C27.7555 3.45272 29.5737 5.15856 29.7206 7.33522C29.8613 9.42062 30 11.9866 30 14C30 16.0134 29.8613 18.5794 29.7206 20.6648C29.5737 22.8414 27.7555 24.5473 25.492 24.6552C22.2144 24.8115 17.5297 25 14 25C10.4703 25 5.78558 24.8115 2.50796 24.6552C0.244513 24.5473 -1.57367 22.8414 -1.72056 20.6648C-1.8613 18.5794 -2 16.0134 -2 14C-2 11.9866 -1.8613 9.42062 -1.72056 7.33522Z" fill="#FF0000"/>
<path d="M11.5033 8.99988V18.9999L19.0033 13.9999L11.5033 8.99988Z" fill="white"/>
</g>
<defs>
<clipPath id="clip0_42819_14956">
<rect width="28" height="28" fill="white"/>
</clipPath>
</defs>
</svg>
